<svg width="1440" height="727" viewBox="0 0 1440 727" fill="none" xmlns="http://www.w3.org/2000/svg">
<mask id="mask0_64_483" style="mask-type:luminance" maskUnits="userSpaceOnUse" x="5" y="0" width="1421" height="727">
<path d="M1425.79 0.786615V91.5272V182.267V273.007V363.747V454.487V545.227V635.967V726.707H1248.25L1070.72 726.707H893.178H715.641H538.104H360.567H183.03H5.49316L5.49316 635.967L5.49316 545.227L5.49316 454.487L5.49316 363.747L5.49316 273.007L5.49316 182.267L5.49316 91.5272L5.49316 0.786615H183.03H360.567H538.104H715.641H893.178H1070.72L1248.25 0.786615H1425.79Z" fill="white"/>
</mask>
<g mask="url(#mask0_64_483)">
<path d="M785.927 124.697C791.425 131.987 797.344 139.065 803.59 145.978C809.836 152.891 816.409 159.639 823.215 166.272C830.021 172.904 837.06 179.421 844.237 185.869C851.414 192.318 858.73 198.698 866.09 205.059C873.45 211.42 880.854 217.761 888.209 224.129C895.563 230.498 902.868 236.896 910.028 243.371C917.188 249.845 924.204 256.396 930.981 263.071C937.758 269.747 944.297 276.547 950.503 283.52C957.71 291.617 964.43 299.9 970.731 308.342C977.033 316.783 982.916 325.382 988.449 334.111C993.982 342.839 999.166 351.698 1004.07 360.658C1008.97 369.619 1013.59 378.681 1018 387.816C1022.4 396.951 1026.6 406.161 1030.65 415.415C1034.69 424.67 1038.6 433.97 1042.43 443.288C1046.25 452.605 1050 461.941 1053.75 471.265C1057.49 480.589 1061.22 489.903 1065.02 499.179C1068.81 508.454 1072.71 517.752 1076.77 527.031C1080.84 536.31 1085.06 545.57 1089.51 554.77C1093.95 563.969 1098.61 573.108 1103.55 582.145C1108.49 591.181 1113.71 600.115 1119.26 608.904C1124.81 617.693 1130.69 626.338 1136.97 634.796C1143.24 643.254 1149.9 651.526 1157.01 659.57C1164.12 667.615 1171.68 675.431 1179.74 682.976C1187.8 690.522 1196.36 697.798 1205.49 704.762C1214.61 711.726 1224.44 718.297 1234.83 724.399C1245.23 730.502 1256.2 736.137 1267.6 741.23C1279.01 746.322 1290.85 750.872 1303 754.805C1315.15 758.738 1327.6 762.054 1340.23 764.678C1352.85 767.303 1365.65 769.236 1378.49 770.403C1391.33 771.57 1404.21 771.971 1417 771.531C1429.79 771.092 1442.48 769.811 1454.96 767.616C1467.43 765.42 1479.68 762.31 1491.57 758.21C1500.65 755.077 1509.31 751.449 1517.54 747.387C1525.77 743.324 1533.57 738.827 1540.93 733.953C1548.29 729.08 1555.22 723.831 1561.71 718.266C1568.2 712.701 1574.25 706.818 1579.86 700.679C1585.47 694.54 1590.64 688.143 1595.37 681.549C1600.1 674.954 1604.38 668.161 1608.22 661.229C1612.06 654.298 1615.45 647.227 1618.39 640.077C1621.33 632.927 1623.82 625.696 1625.86 618.446C1627.9 611.197 1629.56 603.914 1630.88 596.606C1632.2 589.298 1633.18 581.964 1633.87 574.61C1634.56 567.256 1634.96 559.883 1635.13 552.497C1635.29 545.11 1635.21 537.711 1634.93 530.304C1634.66 522.897 1634.2 515.483 1633.59 508.068C1632.97 500.653 1632.22 493.237 1631.37 485.826C1630.51 478.416 1629.56 471.01 1628.56 463.616C1627.56 456.223 1626.52 448.84 1625.47 441.476C1623.88 430.308 1622.28 419.139 1620.69 407.971C1619.1 396.802 1617.51 385.634 1615.92 374.465C1614.33 363.297 1612.74 352.129 1611.14 340.96C1609.55 329.792 1607.96 318.623 1606.37 307.455C1604.78 296.286 1603.19 285.118 1601.6 273.95C1600.01 262.781 1598.41 251.613 1596.82 240.444C1595.23 229.276 1593.64 218.107 1592.05 206.939C1590.46 195.771 1588.87 184.602 1587.27 173.434C1585.77 162.88 1584.25 152.278 1582.62 141.664C1580.98 131.05 1579.25 120.423 1577.31 109.817C1575.38 99.2111 1573.26 88.6274 1570.85 78.0991C1568.44 67.5707 1565.76 57.0977 1562.71 46.7155C1559.66 36.3333 1556.24 26.0404 1552.37 15.8724C1548.5 5.70428 1544.17 -4.33893 1539.31 -14.2243C1534.44 -24.1096 1529.04 -33.8355 1523.01 -43.3687C1516.98 -52.9018 1510.33 -62.2416 1502.96 -71.3547C1494.18 -82.2175 1484.39 -92.6042 1473.72 -102.464C1463.04 -112.323 1451.48 -121.656 1439.16 -130.41C1426.84 -139.164 1413.75 -147.34 1400.02 -154.888C1386.29 -162.435 1371.92 -169.355 1357.02 -175.594C1342.13 -181.834 1326.71 -187.395 1310.89 -192.226C1295.08 -197.056 1278.86 -201.157 1262.36 -204.477C1245.86 -207.797 1229.08 -210.337 1212.14 -212.045C1195.2 -213.754 1178.1 -214.63 1160.97 -214.626C1134.35 -214.618 1106.54 -211.957 1078.48 -206.976C1050.43 -201.995 1022.14 -194.693 994.58 -185.404C967.019 -176.115 940.187 -164.838 915.05 -151.905C889.913 -138.972 866.472 -124.384 845.692 -108.473C824.912 -92.562 806.794 -75.3273 792.303 -57.1026C777.812 -38.8771 766.949 -19.6616 760.68 0.212409C754.411 20.0864 752.736 40.6189 756.621 61.4763C760.511 82.3359 769.956 103.52 785.927 124.697Z" fill="#C2D7DB"/>
</g>
<mask id="mask1_64_483" style="mask-type:luminance" maskUnits="userSpaceOnUse" x="0" y="0" width="1449" height="727">
<path d="M1448.79 0.786616V91.5273V182.267V273.007V363.747V454.487V545.227V635.967V726.707H1267.69H1086.59L905.493 726.707H724.395H543.296H362.197H181.099H0L0 635.967L0 545.227L0 454.487L0 363.747L0 273.007L0 182.267L0 91.5273L0 0.786616H181.099H362.197H543.296H724.395H905.493L1086.59 0.786616H1267.69H1448.79Z" fill="white"/>
</mask>
<g mask="url(#mask1_64_483)">
<path d="M700.24 110.501C709.672 124.012 720.583 136.595 732.759 148.349C744.935 160.103 758.378 171.028 772.872 181.222C787.367 191.416 802.914 200.879 819.301 209.709C835.688 218.539 852.914 226.739 870.767 234.403C888.62 242.068 907.099 249.199 925.992 255.895C944.885 262.591 964.191 268.853 983.698 274.778C1003.21 280.703 1022.91 286.291 1042.61 291.641C1062.3 296.992 1081.98 302.105 1101.44 307.078C1114.39 310.39 1127.67 313.667 1141.16 316.772C1154.65 319.876 1168.35 322.808 1182.14 325.426C1195.94 328.044 1209.83 330.348 1223.71 332.199C1237.58 334.051 1251.44 335.448 1265.17 336.253C1278.9 337.058 1292.49 337.269 1305.84 336.746C1319.19 336.224 1332.3 334.969 1345.04 332.839C1357.79 330.71 1370.18 327.708 1382.09 323.693C1394 319.678 1405.44 314.649 1416.3 308.466C1421.99 305.221 1427.36 301.722 1432.41 298.002C1437.45 294.281 1442.17 290.338 1446.58 286.206C1450.99 282.073 1455.08 277.75 1458.87 273.269C1462.66 268.788 1466.14 264.148 1469.32 259.383C1472.5 254.617 1475.38 249.725 1477.97 244.737C1480.56 239.75 1482.86 234.668 1484.87 229.523C1486.89 224.378 1488.62 219.171 1490.07 213.931C1491.52 208.692 1492.7 203.422 1493.61 198.152C1494.52 192.883 1495.18 187.605 1495.64 182.32C1496.1 177.036 1496.34 171.746 1496.41 166.452C1496.47 161.158 1496.35 155.861 1496.07 150.562C1495.8 145.264 1495.37 139.964 1494.81 134.666C1494.26 129.368 1493.58 124.071 1492.8 118.777C1492.02 113.484 1491.14 108.194 1490.19 102.911C1489.25 97.6283 1488.23 92.3512 1487.17 87.083C1486.12 81.8148 1485.02 76.5554 1483.91 71.3063C1482.34 63.9023 1480.73 56.4665 1479.02 49.0278C1477.31 41.5891 1475.5 34.1467 1473.54 26.7293C1471.57 19.312 1469.45 11.9182 1467.12 4.57769C1464.78 -2.76285 1462.24 -10.0516 1459.42 -17.26C1456.61 -24.4684 1453.53 -31.5963 1450.12 -38.6164C1446.72 -45.6365 1442.99 -52.5482 1438.87 -59.3247C1434.76 -66.1012 1430.27 -72.7412 1425.35 -79.2179C1420.42 -85.6947 1415.06 -92.0076 1409.2 -98.1285C1399.61 -108.159 1388.9 -117.393 1377.25 -125.847C1365.6 -134.3 1353.01 -141.974 1339.65 -148.883C1326.29 -155.791 1312.15 -161.935 1297.42 -167.33C1282.68 -172.724 1267.35 -177.369 1251.59 -181.281C1235.82 -185.192 1219.63 -188.37 1203.18 -190.83C1186.72 -193.29 1170.01 -195.031 1153.21 -196.071C1136.41 -197.11 1119.52 -197.447 1102.72 -197.097C1085.91 -196.747 1069.19 -195.71 1052.71 -194.001C1025.11 -191.139 996.824 -187.218 968.709 -182.174C940.593 -177.13 912.652 -170.963 885.748 -163.612C858.844 -156.259 832.979 -147.721 809.016 -137.934C785.053 -128.147 762.992 -117.11 743.697 -104.761C724.402 -92.4113 707.873 -78.75 694.975 -63.7116C682.077 -48.6732 672.809 -32.2586 668.035 -14.4052C663.261 3.44897 662.982 22.7419 668.061 43.5388C673.143 64.3356 683.58 86.6348 700.24 110.501Z" fill="#FFB975"/>
</g>
</svg>
