<svg width="370" height="350" viewBox="0 0 370 350" fill="none" xmlns="http://www.w3.org/2000/svg">
<path d="M212.919 74.5528C212.919 74.5528 216.785 55.3793 237.025 52.2563C237.025 52.2563 230.094 80.5396 212.919 74.5528Z" fill="#3F9896"/>
<path d="M208.891 82.4328C208.891 82.4328 192.217 55.1939 210.935 18.899C210.935 18.899 234.189 61.0733 208.891 82.4328Z" fill="#7FC6A6"/>
<path d="M79.9729 350C54.0404 349.225 30.2277 333.102 17.1753 307.244C6.72896 286.548 -1.4126 256.726 0.205718 214.678C4.30453 108.188 83.6959 34.8371 133.311 31.3177C193.837 27.0244 180.128 70.0548 246.662 77.1099C277.766 80.4081 317.133 97.981 342.054 152.509C357.36 186 369.668 230.788 339.912 301.362C327.36 331.131 301.152 350 272.453 350H79.9729V350Z" fill="#FEEFDC"/>
<path d="M88.0765 241.091C86.8319 240.153 85.4897 239.487 84.1051 239.096L83.4587 234.872L81.0518 234.88L78.645 234.887L78.0161 239.115C76.6331 239.515 75.2936 240.189 74.0529 241.134L71.1489 238.705L69.4513 240.788L67.7538 242.871L69.7581 246.404C68.99 247.923 68.4447 249.562 68.1244 251.252L64.6643 252.041L64.6704 254.98L64.6765 257.918L68.1398 258.686C68.467 260.374 69.0191 262.009 69.7935 263.524L67.8036 267.069L69.5097 269.142L71.2158 271.214L74.1098 268.767C75.3544 269.705 76.6967 270.371 78.0812 270.762L78.7277 274.986L81.1345 274.978L83.5414 274.971L84.1703 270.743C85.5533 270.343 86.8928 269.669 88.1334 268.724L91.0376 271.153L92.7352 269.07L94.4327 266.988L92.4282 263.454C93.1964 261.935 93.7419 260.296 94.062 258.606L97.5221 257.817L97.516 254.879L97.5099 251.94L94.0467 251.173C93.7195 249.484 93.1674 247.849 92.3929 246.334L94.3828 242.789L92.6767 240.716L90.9705 238.644L88.0765 241.091ZM87.4942 262.704C83.9769 267.02 78.2598 267.037 74.7247 262.743C71.1897 258.449 71.1752 251.47 74.6925 247.154C78.2098 242.838 83.9269 242.821 87.462 247.115C90.997 251.409 91.0115 258.388 87.4942 262.704Z" fill="#FECC86"/>
<path d="M18.3536 173.649H70.5925C72.2612 173.649 73.6138 175.301 73.6138 177.338V208.227C73.6138 210.264 72.2612 211.916 70.5925 211.916H66.1434L68.1706 218.674L60.1642 211.916H18.3536C16.685 211.916 15.3324 210.264 15.3324 208.227V177.338C15.3324 175.301 16.685 173.649 18.3536 173.649Z" fill="white"/>
<path d="M20.8055 197.748H69.4032C69.7396 197.748 70.0122 197.415 70.0122 197.005C70.0122 196.594 69.7396 196.261 69.4032 196.261H20.8055C20.4691 196.261 20.1965 196.594 20.1965 197.005C20.1965 197.415 20.4691 197.748 20.8055 197.748Z" fill="#B1E8FC"/>
<path d="M37.8269 180.86H69.4032C69.7396 180.86 70.0122 180.527 70.0122 180.116C70.0122 179.706 69.7396 179.373 69.4032 179.373H37.8269C37.4905 179.373 37.2179 179.706 37.2179 180.116C37.2179 180.527 37.4905 180.86 37.8269 180.86Z" fill="#B1E8FC"/>
<path d="M55.7502 206.192H69.4032C69.7396 206.192 70.0122 205.859 70.0122 205.449C70.0122 205.038 69.7396 204.705 69.4032 204.705H55.7502C55.4138 204.705 55.1412 205.038 55.1412 205.449C55.1414 205.859 55.4138 206.192 55.7502 206.192Z" fill="#B1E8FC"/>
<path d="M20.8055 206.192H51.4799C51.8163 206.192 52.0889 205.859 52.0889 205.449C52.0889 205.038 51.8163 204.705 51.4799 204.705H20.8055C20.4691 204.705 20.1965 205.038 20.1965 205.449C20.1965 205.859 20.4691 206.192 20.8055 206.192Z" fill="#B1E8FC"/>
<path d="M20.4448 180.86H33.0454C33.3818 180.86 33.6544 180.527 33.6544 180.116C33.6544 179.706 33.3818 179.373 33.0454 179.373H20.4448C20.1084 179.373 19.8358 179.706 19.8358 180.116C19.8358 180.527 20.1082 180.86 20.4448 180.86Z" fill="#B1E8FC"/>
<path d="M49.5553 189.304H69.4032C69.7396 189.304 70.0122 188.971 70.0122 188.56C70.0122 188.15 69.7396 187.817 69.4032 187.817H49.5553C49.2189 187.817 48.9463 188.15 48.9463 188.56C48.9463 188.971 49.2189 189.304 49.5553 189.304Z" fill="#B1E8FC"/>
<path d="M20.4448 189.304H45.1044C45.4408 189.304 45.7134 188.971 45.7134 188.56C45.7134 188.15 45.4408 187.817 45.1044 187.817H20.4448C20.1084 187.817 19.8358 188.15 19.8358 188.56C19.8358 188.971 20.1083 189.304 20.4448 189.304Z" fill="#B1E8FC"/>
<path d="M25.1986 80.0394H69.5449C70.9615 80.0394 72.1097 81.4414 72.1097 83.1706V109.393C72.1097 111.123 70.9615 112.524 69.5449 112.524H65.768L67.4889 118.261L60.6921 112.524H25.1986C23.782 112.524 22.6338 111.123 22.6338 109.393V83.1706C22.6338 81.4414 23.7822 80.0394 25.1986 80.0394Z" fill="#AAC9F8"/>
<path d="M27.2801 100.497H68.5352C68.8208 100.497 69.0521 100.215 69.0521 99.866C69.0521 99.5174 68.8208 99.235 68.5352 99.235H27.2801C26.9945 99.235 26.7631 99.5174 26.7631 99.866C26.7631 100.215 26.9945 100.497 27.2801 100.497Z" fill="white"/>
<path d="M41.7296 86.1604H68.535C68.8206 86.1604 69.052 85.878 69.052 85.5293C69.052 85.1807 68.8206 84.8983 68.535 84.8983H41.7296C41.4441 84.8983 41.2127 85.1809 41.2127 85.5293C41.2127 85.878 41.4441 86.1604 41.7296 86.1604Z" fill="white"/>
<path d="M56.9449 107.665H68.535C68.8206 107.665 69.052 107.383 69.052 107.034C69.052 106.686 68.8206 106.403 68.535 106.403H56.9449C56.6593 106.403 56.428 106.686 56.428 107.034C56.428 107.383 56.6593 107.665 56.9449 107.665Z" fill="white"/>
<path d="M27.2801 107.665H53.3199C53.6055 107.665 53.8369 107.383 53.8369 107.034C53.8369 106.686 53.6055 106.403 53.3199 106.403H27.2801C26.9945 106.403 26.7631 106.686 26.7631 107.034C26.7631 107.383 26.9945 107.665 27.2801 107.665Z" fill="white"/>
<path d="M26.9738 86.1604H37.6705C37.956 86.1604 38.1874 85.878 38.1874 85.5293C38.1874 85.1807 37.956 84.8983 37.6705 84.8983H26.9738C26.6882 84.8983 26.4568 85.1809 26.4568 85.5293C26.4568 85.878 26.6882 86.1604 26.9738 86.1604Z" fill="white"/>
<path d="M51.686 93.3288H68.5352C68.8208 93.3288 69.0521 93.0464 69.0521 92.6978C69.0521 92.3491 68.8208 92.0667 68.5352 92.0667H51.686C51.4004 92.0667 51.1691 92.3491 51.1691 92.6978C51.1689 93.0462 51.4004 93.3288 51.686 93.3288Z" fill="white"/>
<path d="M26.9738 93.3288H47.9076C48.1932 93.3288 48.4246 93.0464 48.4246 92.6978C48.4246 92.3491 48.1931 92.0667 47.9076 92.0667H26.9738C26.6882 92.0667 26.4568 92.3491 26.4568 92.6978C26.4568 93.0462 26.6882 93.3288 26.9738 93.3288Z" fill="white"/>
<path d="M274.809 64.9078H235.564C234.31 64.9078 233.294 66.1485 233.294 67.6788V90.8848C233.294 92.4153 234.311 93.6559 235.564 93.6559H238.906L237.384 98.7327L243.398 93.6559H274.809C276.063 93.6559 277.079 92.4153 277.079 90.8848V67.6788C277.079 66.1485 276.063 64.9078 274.809 64.9078Z" fill="#AAC9F8"/>
<path d="M272.967 83.0122H236.458C236.205 83.0122 236 82.7621 236 82.4536C236 82.1451 236.205 81.8952 236.458 81.8952H272.967C273.22 81.8952 273.424 82.1451 273.424 82.4536C273.424 82.7621 273.22 83.0122 272.967 83.0122Z" fill="white"/>
<path d="M260.18 70.3247H236.458C236.205 70.3247 236 70.0746 236 69.7661C236 69.4576 236.205 69.2075 236.458 69.2075H260.18C260.432 69.2075 260.637 69.4576 260.637 69.7661C260.637 70.0748 260.432 70.3247 260.18 70.3247Z" fill="white"/>
<path d="M246.714 89.3559H236.458C236.205 89.3559 236 89.106 236 88.7973C236 88.4886 236.205 88.2387 236.458 88.2387H246.714C246.967 88.2387 247.172 88.4886 247.172 88.7973C247.172 89.106 246.967 89.3559 246.714 89.3559Z" fill="white"/>
<path d="M272.967 89.3559H249.923C249.67 89.3559 249.465 89.106 249.465 88.7973C249.465 88.4886 249.67 88.2387 249.923 88.2387H272.967C273.22 88.2387 273.424 88.4886 273.424 88.7973C273.424 89.106 273.22 89.3559 272.967 89.3559Z" fill="white"/>
<path d="M273.238 70.3248H263.772C263.519 70.3248 263.314 70.0747 263.314 69.7662C263.314 69.4577 263.519 69.2076 263.772 69.2076H273.238C273.491 69.2076 273.695 69.4577 273.695 69.7662C273.695 70.0749 273.491 70.3248 273.238 70.3248Z" fill="white"/>
<path d="M251.368 76.6686H236.458C236.205 76.6686 236 76.4187 236 76.1102C236 75.8017 236.205 75.5516 236.458 75.5516H251.368C251.621 75.5516 251.826 75.8015 251.826 76.1102C251.826 76.4187 251.621 76.6686 251.368 76.6686Z" fill="white"/>
<path d="M273.238 76.6686H254.712C254.459 76.6686 254.255 76.4187 254.255 76.1102C254.255 75.8017 254.459 75.5516 254.712 75.5516H273.238C273.491 75.5516 273.695 75.8015 273.695 76.1102C273.695 76.4187 273.491 76.6686 273.238 76.6686Z" fill="white"/>
<path opacity="0.5" d="M118.729 317.273C141.142 317.273 159.313 315.752 159.313 313.875C159.313 311.998 141.142 310.477 118.729 310.477C96.3146 310.477 78.1445 311.998 78.1445 313.875C78.1445 315.752 96.3146 317.273 118.729 317.273Z" fill="#FECC86"/>
<path opacity="0.5" d="M246.663 317.273C269.077 317.273 287.247 315.752 287.247 313.875C287.247 311.998 269.077 310.477 246.663 310.477C224.249 310.477 206.079 311.998 206.079 313.875C206.079 315.752 224.249 317.273 246.663 317.273Z" fill="#FECC86"/>
<path d="M147.135 123.569L89.134 115.785C85.0475 115.271 81.6989 119.306 81.6989 124.199V287.268C81.6989 292.161 85.0477 296.155 89.134 295.641L147.135 287.897C150.545 287.468 153.284 283.553 153.284 279.148V132.318C153.283 127.913 150.545 123.998 147.135 123.569ZM150.766 278.014C150.766 280.417 149.269 282.54 147.414 282.759L88.8039 289.671C86.5868 289.933 86.4429 288.001 86.4429 285.354V124.638C86.4429 121.684 86.7949 119.535 89.2654 119.834L147.024 126.809C149.095 127.06 150.766 129.433 150.766 132.115L150.766 278.014Z" fill="#5780BC"/>
<path d="M154.025 130.431C154.024 130.382 154.022 130.334 154.019 130.286C153.946 128.655 152.948 127.237 151.698 126.99C151.661 126.982 151.623 126.975 151.586 126.968C151.574 126.967 151.562 126.963 151.549 126.962L91.021 119.653C91.006 119.651 90.9924 119.651 90.9773 119.649C90.9322 119.646 90.8886 119.643 90.8436 119.641C89.3423 119.566 88.1374 120.849 88.0486 122.625C88.0445 122.678 88.0431 122.73 88.0417 122.783C88.0403 122.801 88.0389 122.818 88.0389 122.837V287.054C88.0389 288.763 89.207 290.008 90.64 289.839L109.935 287.563L110.131 287.54L110.179 287.535L124.493 285.847L124.578 285.837L124.705 285.822L124.828 285.807L138.803 284.159L138.882 284.149L139.047 284.131L151.867 282.618C153.061 282.477 154.026 281.107 154.026 279.556V130.478C154.026 130.462 154.025 130.447 154.025 130.431ZM88.0869 131.517V126.557L92.4172 127.035C92.5428 127.117 92.6793 127.168 92.8225 127.185C92.9671 127.202 93.1049 127.178 93.2277 127.125L95.47 127.373C95.5915 127.453 95.728 127.507 95.8727 127.522C96.016 127.538 96.1525 127.515 96.2753 127.463L98.497 127.708C98.617 127.788 98.7535 127.84 98.8955 127.856C99.0389 127.871 99.1739 127.85 99.2954 127.796L142.998 132.631V132.728L149.651 133.463V133.368L154.004 133.849V138.353L88.0869 131.517Z" fill="#D8ECFE"/>
<path d="M147.981 283.076L147.856 283.09C147.87 283.157 147.886 283.225 147.901 283.29C147.991 283.267 148.037 283.255 148.037 283.255C148.018 283.199 147.999 283.138 147.981 283.076Z" fill="#49263E"/>
<path d="M151.512 126.958L91.0654 119.657C89.3974 119.456 88.0392 120.902 88.0392 122.889V131.512L88.0862 131.517L154.005 138.352L154.026 138.354V130.526C154.026 128.723 152.903 127.126 151.512 126.958Z" fill="#273359"/>
<path d="M93.8111 126.116C93.8111 126.594 93.5723 126.98 93.2284 127.126C93.1054 127.179 92.9675 127.201 92.8225 127.185C92.6789 127.169 92.542 127.116 92.4175 127.036C92.0724 126.815 91.8312 126.373 91.8312 125.894C91.8312 125.241 92.2766 124.763 92.8225 124.825C93.369 124.887 93.8111 125.465 93.8111 126.116Z" fill="white"/>
<path d="M96.8522 126.457C96.8522 126.933 96.6156 127.317 96.2745 127.463C96.1526 127.516 96.0157 127.538 95.8722 127.522C95.7285 127.506 95.5913 127.454 95.4693 127.374C95.1272 127.152 94.8893 126.715 94.8893 126.237C94.8893 125.587 95.3294 125.11 95.8722 125.172C96.4141 125.233 96.8522 125.809 96.8522 126.457Z" fill="white"/>
<path d="M99.8676 126.795C99.8676 127.269 99.6329 127.652 99.2947 127.797C99.1739 127.849 99.0383 127.872 98.8957 127.856C98.7532 127.84 98.6174 127.788 98.4963 127.708C98.1572 127.488 97.9214 127.052 97.9214 126.577C97.9214 125.929 98.3578 125.455 98.8959 125.516C99.433 125.577 99.8676 126.149 99.8676 126.795Z" fill="white"/>
<path d="M142.651 130.424V133.463L149.332 133.782V132.839L149.68 132.855V131.51L149.332 131.495V130.712L142.651 130.424ZM149.101 133.521L142.878 133.227V130.682L149.101 130.953V133.521Z" fill="white"/>
<path d="M143.253 132.835L143.908 132.865V131.124L143.253 131.095V132.835Z" fill="white"/>
<path d="M144.353 132.886L145.01 132.917V131.173L144.353 131.144V132.886Z" fill="white"/>
<path d="M145.487 132.939L146.146 132.97V131.223L145.487 131.194V132.939Z" fill="white"/>
<path d="M82.4852 157.114L80.9124 157.008V141.72L82.4852 141.86V157.114Z" fill="#5780BC"/>
<path d="M82.4852 175.521L80.9124 175.455V160.167L82.4852 160.267V175.521Z" fill="#5780BC"/>
<path d="M84.9601 124.199V287.268C84.9601 292.161 88.3088 295.704 92.3947 295.19L107.057 293.347L107.523 293.288L149.563 288.002L149.631 287.993L150.395 287.897C153.806 287.468 156.544 283.554 156.544 279.148V132.318C156.544 127.913 153.806 123.998 150.395 123.569L92.3947 116.276C88.3088 115.761 84.9601 119.305 84.9601 124.199ZM88.0402 124.638C88.0402 121.684 90.0554 119.536 92.526 119.834L150.285 126.809C152.357 127.059 154.026 129.433 154.026 132.114V278.014C154.026 280.417 152.53 282.54 150.675 282.758L149.562 282.89L149.493 282.898L148.224 283.047L147.981 283.076C148 283.138 148.019 283.199 148.038 283.255C148.038 283.255 147.992 283.267 147.902 283.29C147.886 283.225 147.871 283.157 147.857 283.09L101.28 288.586L100.429 288.685L94.0123 289.442L92.0647 289.672C89.8472 289.934 88.0404 288.001 88.0404 285.354V124.638H88.0402Z" fill="#5780BC"/>
<path d="M148.095 283.406L148.019 283.071L147.801 283.097L147.834 283.418L148.095 283.406Z" fill="#49263E"/>
<path d="M149.865 282.854L101.28 288.586V294.073L150.766 287.835L149.865 282.854Z" fill="#5780BC"/>
<path d="M64.3777 296.483C64.7955 295.226 65.0339 293.914 65.0982 292.598L67.608 291.472L67.2984 289.272L66.9888 287.072L64.3151 287.033C63.8949 285.819 63.3115 284.68 62.5741 283.665L63.6966 280.701L62.2035 279.413L60.7105 278.125L58.7967 280.405C57.7672 279.895 56.6927 279.604 55.615 279.526L54.6925 276.462L52.8905 276.84L51.0886 277.217L51.0563 280.482C50.062 280.995 49.1286 281.707 48.2973 282.607L45.8699 281.237L44.8146 283.059L43.7592 284.882L45.6273 287.218C45.2097 288.475 44.9711 289.787 44.9068 291.103L42.397 292.229L42.7065 294.429L43.0159 296.629L45.6897 296.668C46.11 297.882 46.6933 299.022 47.4305 300.037L46.3081 303L47.8011 304.288L49.2942 305.577L51.2079 303.296C52.2375 303.806 53.3119 304.097 54.3896 304.176L55.3123 307.24L57.1143 306.862L58.9163 306.484L58.9485 303.22C59.9429 302.706 60.8762 301.994 61.7075 301.094L64.1349 302.465L65.1903 300.642L66.2456 298.819L64.3777 296.483ZM51.0434 298.689C47.9498 296.019 47.2145 290.793 49.4012 287.017C51.5879 283.24 55.8682 282.343 58.9618 285.012C62.0554 287.682 62.7905 292.907 60.604 296.684C58.4173 300.46 54.137 301.358 51.0434 298.689Z" fill="#FEEFDC"/>
<path d="M144.602 47.1081C144.955 32.04 135.236 19.4756 122.894 19.0446C110.553 18.6137 100.262 30.4794 99.9088 45.5475C99.7337 53.0214 102.037 59.8784 105.909 64.9453L105.908 64.9455C105.908 64.9455 112.464 74.0116 114.523 83.7155C114.523 83.7155 118.389 85.4708 121.334 85.6637C124.283 85.6765 128.225 84.194 128.225 84.194C130.734 74.6496 137.704 66.0559 137.704 66.0559L137.703 66.0557C141.806 61.2672 144.426 54.582 144.602 47.1081Z" fill="#FECC86"/>
<path d="M120.993 99.9862C119.074 99.9191 117.564 97.9663 117.619 95.6241L124.565 95.8666C124.511 98.209 122.911 100.053 120.993 99.9862Z" fill="#4CB7D8"/>
<path d="M121.065 96.9065C116.951 96.7628 113.711 92.5748 113.829 87.5521L113.97 81.5189L128.869 82.0391L128.727 88.0721C128.61 93.0949 125.179 97.05 121.065 96.9065Z" fill="#4CB7D8"/>
<g opacity="0.3">
<path d="M144.602 47.108C144.732 41.5256 143.48 36.2873 141.225 31.8819C134.229 51.3153 123.496 64.1755 108.361 68.78C110.181 71.8742 112.58 76.5221 113.98 81.5194L128.869 82.0392V82.0402C131.752 73.3945 137.704 66.0556 137.704 66.0556L137.703 66.0554C141.806 61.2671 144.426 54.5819 144.602 47.108Z" fill="#FECC86"/>
</g>
<path d="M125.073 82.0134L124.439 81.7778C124.462 81.6852 126.765 72.4026 128.435 62.8709C131.332 46.3321 129.973 42.7555 128.905 42.0955C127.812 41.4209 126.939 41.5044 126.309 42.3442C126.263 42.4054 126.219 42.4699 126.176 42.5373C127.712 43.7165 128.049 45.4574 128.123 46.1601C128.325 48.099 127.573 50.0012 126.446 50.4007C126.173 50.4972 125.651 50.5327 125.221 49.6863C124.537 48.3421 124.391 45.0361 125.243 42.8645C124.484 42.454 123.553 42.2172 122.482 42.1798L121.837 42.1573C120.766 42.12 119.826 42.2914 119.048 42.6481C119.797 44.8755 119.496 48.1661 118.751 49.4603C118.282 50.275 117.763 50.2037 117.494 50.0877C116.388 49.6104 115.726 47.6588 116.019 45.7372C116.125 45.0409 116.544 43.3263 118.132 42.2563C118.093 42.1861 118.051 42.1186 118.008 42.0544C117.419 41.172 116.55 41.0273 115.429 41.6248C114.331 42.2091 112.807 45.6852 114.925 62.3992C116.146 72.0319 118.011 81.46 118.029 81.5542L117.385 81.745C117.366 81.6507 115.495 72.1937 114.27 62.5275C112.578 49.1837 112.871 42.1036 115.164 40.8828C116.943 39.9358 117.972 40.719 118.523 41.5423C118.6 41.658 118.672 41.7806 118.739 41.9099C119.53 41.5311 120.547 41.3023 121.856 41.3479L122.501 41.3703C123.809 41.4161 124.814 41.7158 125.587 42.1489C125.659 42.0247 125.737 41.9072 125.82 41.7971C126.408 41.013 127.472 40.3033 129.204 41.3729C131.436 42.7517 131.396 49.8406 129.083 63.0445C127.407 72.6093 125.097 81.9205 125.073 82.0134ZM118.444 42.9841C117.486 43.6232 116.865 44.6119 116.671 45.8855C116.415 47.5627 117.004 49.0177 117.715 49.3244C117.781 49.3529 117.958 49.4296 118.208 48.9944C118.847 47.8862 119.078 44.9084 118.444 42.9841ZM125.83 43.242C125.107 45.1189 125.199 48.108 125.784 49.2588C126.014 49.7106 126.194 49.6463 126.261 49.6227C126.985 49.3661 127.642 47.9547 127.465 46.2624C127.331 44.9774 126.757 43.9469 125.83 43.242Z" fill="#F99247"/>
<path d="M113.857 81.7059C113.694 81.0776 113.619 80.847 113.454 80.342L113.365 80.066C110.761 72.0138 105.833 65.1478 105.784 65.0796L105.769 65.0581C101.712 59.7372 99.573 52.8076 99.7431 45.5418C100.098 30.3862 110.486 18.4089 122.899 18.8423C130.52 19.1084 137.457 24.0082 141.455 31.949L141.172 32.1611C137.233 24.3369 130.399 19.5093 122.89 19.2471C110.659 18.82 100.424 30.621 100.075 45.5535C99.9066 52.7237 102.022 59.5614 106.03 64.8074L106.24 65.082L106.224 65.0854C107.167 66.4473 111.343 72.7101 113.673 79.9177L113.762 80.1929C113.93 80.7071 114.006 80.9417 114.173 81.5836L113.857 81.7059Z" fill="#21111D"/>
<path d="M106.944 33.1871L106.629 33.0632C106.646 32.9962 108.456 26.3386 114.074 24.0078L114.181 24.3912C108.724 26.6547 106.961 33.1218 106.944 33.1871Z" fill="#21111D"/>
<path d="M107.912 35.6507L107.596 35.5268C107.614 35.4598 109.423 28.8022 115.042 26.4714L115.148 26.8548C109.692 29.1185 107.929 35.5857 107.912 35.6507Z" fill="#21111D"/>
<path d="M121.872 97.1374L120.248 97.0806C116.497 96.9497 113.532 93.1168 113.64 88.537L113.809 81.311L128.873 81.8371L128.864 82.2419L114.131 81.7275L113.971 88.5489C113.869 92.9057 116.689 96.5517 120.258 96.6762L121.882 96.7328C123.59 96.7924 125.221 96.0431 126.473 94.6228L126.699 94.9195C125.382 96.4124 123.668 97.2 121.872 97.1374Z" fill="#21111D"/>
<path d="M121.085 100.194C117.856 100.081 117.479 96.2404 117.476 96.201L117.805 96.1573C117.819 96.3048 118.169 99.7706 121.202 99.7909L121.2 100.196C121.161 100.196 121.122 100.195 121.085 100.194Z" fill="#21111D"/>
<path d="M137.221 62.1361L137.031 61.8041C140.043 59.2355 140.612 54.7914 140.617 54.7468L140.945 54.8056C140.94 54.8518 140.353 59.4649 137.221 62.1361Z" fill="#21111D"/>
<path d="M136.614 60.1695L136.424 59.8375C138.619 57.9654 139.035 54.7242 139.039 54.6917L139.367 54.7505C139.35 54.8902 138.929 58.1949 136.614 60.1695Z" fill="#21111D"/>
<path d="M113.201 85.1319L113.206 84.7271C113.333 84.7297 125.9 84.9696 129.92 83.298L130.027 83.6811C125.952 85.3756 113.72 85.1426 113.201 85.1319Z" fill="#21111D"/>
<path d="M113.122 88.5498L113.125 88.1447C113.263 88.1463 126.903 88.2924 129.49 86.7148L129.638 87.0771C126.98 88.6983 113.686 88.5566 113.122 88.5498Z" fill="#21111D"/>
<path d="M113.724 92.0817L113.731 91.6769C113.854 91.6797 126.09 91.9496 129.416 89.9966L129.559 90.3615C126.163 92.3563 114.23 92.0939 113.724 92.0817Z" fill="#21111D"/>
<path d="M94.3126 41.0539C94.2984 41.0533 94.2843 41.0521 94.2702 41.0503L86.3815 39.9526C86.1084 39.9146 85.9122 39.6136 85.9435 39.2804C85.9744 38.9472 86.2211 38.7087 86.4941 38.7457L94.3828 39.8434C94.6559 39.8813 94.8518 40.1824 94.8208 40.5156C94.791 40.8313 94.5681 41.0629 94.3126 41.0539Z" fill="#F99247"/>
<path d="M98.763 25.8151C98.6664 25.8116 98.5694 25.7739 98.4852 25.699L92.0634 19.9984C91.8411 19.8011 91.7921 19.4212 91.9536 19.15C92.115 18.8788 92.4259 18.8186 92.6485 19.0159L99.0702 24.7165C99.2923 24.9138 99.3415 25.2936 99.1798 25.565C99.0797 25.7336 98.9217 25.8205 98.763 25.8151Z" fill="#F99247"/>
<path d="M110.86 15.1947C110.663 15.1879 110.481 15.0383 110.408 14.7999L107.631 5.71817C107.535 5.40405 107.666 5.0542 107.923 4.93678C108.18 4.81936 108.467 4.97893 108.563 5.29345L111.34 14.3752C111.436 14.6893 111.305 15.0391 111.048 15.1566C110.986 15.1847 110.922 15.1969 110.86 15.1947Z" fill="#F99247"/>
<path d="M149.96 44.7479C149.701 44.7388 149.488 44.4849 149.478 44.1634C149.468 43.8282 149.682 43.5462 149.957 43.5337L157.891 43.1716C158.163 43.1594 158.396 43.4207 158.406 43.7559C158.417 44.0911 158.202 44.3729 157.928 44.3856L149.994 44.7477C149.983 44.7481 149.971 44.7481 149.96 44.7479Z" fill="#F99247"/>
<path d="M146.472 29.1397C146.31 29.1341 146.154 29.0321 146.062 28.8513C145.918 28.5659 145.991 28.1915 146.225 28.0155L152.983 22.9277C153.217 22.7517 153.524 22.8406 153.668 23.1258C153.812 23.4112 153.739 23.7856 153.505 23.9616L146.747 29.0494C146.661 29.114 146.566 29.1431 146.472 29.1397Z" fill="#F99247"/>
<path d="M136.637 16.0594C136.572 16.0572 136.506 16.039 136.443 16.0032C136.194 15.8623 136.085 15.5014 136.2 15.197L139.535 6.39947C139.65 6.09518 139.946 5.96311 140.195 6.10341C140.445 6.24432 140.553 6.60521 140.438 6.9097L137.103 15.7072C137.017 15.9346 136.83 16.0663 136.637 16.0594Z" fill="#F99247"/>
<path d="M124 10.8991C123.997 10.8991 123.995 10.8989 123.992 10.8987C123.718 10.8838 123.505 10.6002 123.517 10.2652L123.866 0.580728C123.878 0.24874 124.106 -0.00918304 124.377 0.000250727C124.38 0.000250727 124.383 0.000451225 124.385 0.000651943C124.66 0.0155051 124.872 0.298921 124.86 0.63412L124.511 10.3186C124.499 10.6506 124.271 10.9085 124 10.8991Z" fill="#F99247"/>
<g opacity="0.5">
<path d="M137.563 33.6952C136.746 35.15 134.061 34.6362 131.566 32.5475C129.07 30.4588 127.71 27.5861 128.527 26.1313C129.344 24.6765 132.029 25.1901 134.524 27.279C137.019 29.3677 138.38 32.2404 137.563 33.6952Z" fill="#F3FFFE"/>
</g>
<path d="M184.281 82.7321C177.055 82.7321 171.198 89.8827 171.198 98.7033C171.198 107.524 177.055 114.674 184.281 114.674C191.506 114.674 197.363 107.524 197.363 98.7033C197.363 89.8827 191.506 82.7321 184.281 82.7321ZM184.281 113.45C177.609 113.45 172.201 106.848 172.201 98.7033C172.201 90.5587 177.609 83.9565 184.281 83.9565C190.952 83.9565 196.36 90.5589 196.36 98.7033C196.36 106.848 190.952 113.45 184.281 113.45Z" fill="#FDBA68"/>
<path d="M185.66 105.362C185.245 106.049 184.403 106.05 183.987 105.364L176.805 93.535C176.091 92.3585 176.293 90.6978 177.257 89.8259C178.22 88.954 179.58 89.2006 180.295 90.3772L184.815 97.8233L193.88 82.8154C194.591 81.6366 195.951 81.3855 196.917 82.2548C197.882 83.1239 198.088 84.7838 197.376 85.9624L185.66 105.362Z" fill="white"/>
<path d="M235.532 308.719L245.286 308.879L245.437 296.41L235.722 294.786L235.532 308.719Z" fill="#FE9F73"/>
<path d="M266.487 305.448L276.249 303.077L274.209 290.851L264.229 291.781L266.487 305.448Z" fill="#FE9F73"/>
<path d="M252.543 200.768C252.183 213.645 250.613 264.015 247.294 296.971C247.076 299.143 245.546 300.783 243.728 300.778C241.715 300.772 238.916 300.484 235.813 299.345C234.313 298.795 233.272 297.154 233.246 295.267L231.869 194.994C231.866 194.75 231.88 194.507 231.91 194.266L231.974 193.771C232.321 191.041 234.675 189.396 236.818 190.385L250.237 196.584C251.669 197.245 252.595 198.924 252.543 200.768Z" fill="#102E5B"/>
<path d="M264.77 194.958C264.77 194.958 264.957 220.541 267.965 248.755C269.634 264.419 274.4 280.686 275.173 294.332C275.276 296.141 274.264 297.76 272.794 298.154C270.712 298.711 267.502 299.237 263.75 298.709C262.478 298.53 261.433 297.411 261.142 295.909L250.671 252.736L244.321 209.083L237.52 185.345L264.77 194.958Z" fill="#133671"/>
<path d="M260.763 294.531C260.777 294.531 260.792 294.528 260.806 294.523C260.888 294.495 260.935 294.392 260.911 294.294L250.821 252.693L246.088 220.151C246.073 220.05 245.994 219.984 245.91 220C245.826 220.018 245.77 220.114 245.785 220.215L250.521 252.777L250.524 252.788L260.616 294.398C260.635 294.478 260.697 294.531 260.763 294.531Z" fill="black"/>
<path d="M271.3 269.37C271.312 269.37 271.324 269.369 271.335 269.365C271.418 269.342 271.47 269.243 271.451 269.143C270.297 263.135 268.627 251.331 267.734 244.83C267.709 244.642 267.691 244.514 267.674 244.427C267.673 244.426 267.673 244.426 267.673 244.425C267.673 244.341 267.665 244.221 267.653 244.049L265.332 210.266C265.325 210.163 265.25 210.085 265.165 210.096C265.08 210.104 265.017 210.194 265.024 210.296C265.048 210.634 267.346 244.049 267.371 244.457C267.371 244.46 267.371 244.465 267.372 244.468L267.389 244.65L267.397 244.649C267.406 244.713 267.417 244.793 267.43 244.89C268.323 251.396 269.995 263.209 271.15 269.226C271.166 269.312 271.23 269.37 271.3 269.37Z" fill="black"/>
<path d="M233.2 292.052C233.2 292.052 233.201 292.052 233.202 292.052C233.287 292.05 233.355 291.966 233.354 291.863L232.238 210.586C232.236 210.484 232.171 210.398 232.081 210.403C231.996 210.405 231.928 210.489 231.929 210.592L233.045 291.869C233.047 291.971 233.115 292.052 233.2 292.052Z" fill="black"/>
<path d="M245.51 310.369L236.956 310.372L233.486 305.827L227.144 310.376L225.778 310.376C225.307 310.376 224.876 310.76 224.787 311.316C224.668 312.065 225.142 312.719 225.743 312.719L245.633 312.712C245.779 312.712 245.897 312.569 245.897 312.393L245.897 310.834C245.896 310.578 245.723 310.369 245.51 310.369Z" fill="#EF3A4C"/>
<path d="M245.434 310.383L245.433 306.157C245.433 306.157 243.992 303.823 241.799 305.015C241.799 305.015 238.482 307.849 235.556 304.422L228.295 308.302C228.295 308.302 226.304 309.104 225.765 310.39L245.434 310.383Z" fill="#49263E"/>
<path d="M245.507 306.156H245.361V310.361H245.507V306.156Z" fill="black"/>
<path d="M238.826 306.205C238.548 306.205 238.38 306.177 238.375 306.176L238.396 306.002C238.413 306.005 240.128 306.294 241.757 304.943L241.84 305.087C240.672 306.055 239.461 306.205 238.826 306.205Z" fill="black"/>
<path d="M243.666 309.594L243.585 309.449L244.512 308.695L244.594 308.841L243.666 309.594Z" fill="black"/>
<path d="M243.001 309.381L242.92 309.236L243.847 308.483L243.929 308.628L243.001 309.381Z" fill="black"/>
<path d="M225.066 312.516C224.831 312.277 224.696 311.927 224.696 311.556C224.696 310.862 225.165 310.297 225.742 310.297L245.408 310.29C245.718 310.289 245.969 310.592 245.969 310.965L245.97 312.133H245.824L245.824 310.965C245.824 310.689 245.637 310.465 245.408 310.465L225.742 310.472C225.245 310.472 224.841 310.959 224.841 311.556C224.841 311.875 224.958 312.177 225.16 312.383L225.066 312.516Z" fill="black"/>
<path d="M225.808 310.422L225.676 310.347C225.692 310.305 226.091 309.323 227.577 308.559C229.037 307.809 235.462 304.377 235.527 304.342L235.586 304.502C235.521 304.537 229.096 307.97 227.634 308.721C226.204 309.455 225.812 310.412 225.808 310.422Z" fill="black"/>
<path d="M276.715 303.824L268.496 306.674L264.117 303.461L259.068 309.944L257.755 310.399C257.303 310.556 256.976 311.068 257.019 311.633C257.076 312.392 257.682 312.863 258.259 312.663L277.372 306.035C277.512 305.986 277.593 305.81 277.553 305.641L277.194 304.142C277.135 303.895 276.921 303.753 276.715 303.824Z" fill="#EF3A4C"/>
<path d="M276.646 303.862L275.674 299.801C275.674 299.801 273.753 298.039 271.919 299.914C271.919 299.914 269.383 303.742 265.784 301.422L259.697 307.568C259.697 307.568 257.968 309.002 257.745 310.417L276.646 303.862Z" fill="#49263E"/>
<path d="M269.335 302.047C269.068 302.14 268.9 302.168 268.895 302.169L268.876 301.995C268.893 301.992 270.607 301.699 271.863 299.859L271.975 299.97C271.075 301.289 269.945 301.835 269.335 302.047Z" fill="black"/>
<path d="M257.562 312.693C257.282 312.541 257.072 312.249 256.986 311.893C256.827 311.226 257.148 310.527 257.702 310.335L276.6 303.781C276.897 303.678 277.208 303.885 277.294 304.243L277.562 305.365L277.423 305.414L277.154 304.291C277.09 304.026 276.86 303.873 276.64 303.949L257.742 310.503C257.265 310.669 256.989 311.271 257.126 311.845C257.2 312.151 257.38 312.402 257.622 312.533L257.562 312.693Z" fill="black"/>
<path d="M257.794 310.433L257.651 310.405C257.657 310.36 257.813 309.283 259.066 308.054C260.298 306.847 265.683 301.41 265.737 301.355L265.83 301.49C265.776 301.544 260.39 306.982 259.158 308.19C257.953 309.372 257.796 310.422 257.794 310.433Z" fill="black"/>
<path d="M204.855 173.704C204.911 173.153 204.849 172.487 204.635 172.277L201.614 167.508C201.285 167.186 200.805 167.25 200.542 167.651C200.344 167.951 200.324 168.356 200.465 168.675C200.749 169.318 200.959 170.005 201.156 170.694L201.631 172.35C201.283 172.399 199.56 173.183 198.382 173.243V176.944L198.213 176.912C198.282 177.696 198.35 178.519 198.386 179.257C198.426 180.105 198.233 180.841 198.8 181.278C199.128 181.531 200.849 181.529 201.46 181.473L205.888 181.422C205.775 179.941 205.683 179.102 204.855 173.704Z" fill="#FE9F73"/>
<path d="M243.053 161.395C243.053 161.395 238.141 174.39 235.943 176.942C233.744 179.494 208.051 181.504 208.051 181.504L207.372 171.837L228.046 166.063L233.467 153.547L243.053 161.395Z" fill="#FE9F73"/>
<path d="M231.929 169.945C231.877 169.939 231.825 169.917 231.78 169.877L227.852 166.418C227.715 166.297 227.684 166.064 227.783 165.897C227.882 165.73 228.073 165.692 228.21 165.812L232.138 169.271C232.275 169.392 232.306 169.625 232.207 169.793C232.141 169.904 232.033 169.958 231.929 169.945Z" fill="#F07162"/>
<path d="M197.135 176.335C197.247 176.949 197.673 177.331 197.788 177.3L201.613 176.271C202.043 176.155 202.347 175.658 202.28 175.127C202.207 174.545 201.748 174.169 201.285 174.293L197.362 175.349C197.362 175.349 197.023 175.721 197.135 176.335Z" fill="#FE9F73"/>
<path d="M197.498 178.275C197.601 178.892 198.021 179.284 198.136 179.256L201.976 178.316C202.408 178.211 202.719 177.721 202.661 177.188C202.597 176.605 202.145 176.217 201.679 176.331L197.741 177.294C197.741 177.294 197.395 177.659 197.498 178.275Z" fill="#FE9F73"/>
<path d="M197.974 180.04C198.065 180.616 198.452 180.986 198.56 180.961L202.145 180.138C202.548 180.045 202.843 179.593 202.793 179.096C202.739 178.552 202.321 178.185 201.886 178.285L198.209 179.129C198.209 179.129 197.884 179.464 197.974 180.04Z" fill="#FE9F73"/>
<path d="M197.788 177.472C197.716 177.472 197.652 177.412 197.636 177.323C197.618 177.22 197.671 177.119 197.755 177.097L201.58 176.085C201.939 175.989 202.18 175.58 202.126 175.156C202.098 174.929 201.997 174.732 201.842 174.603C201.688 174.473 201.502 174.429 201.318 174.478L197.821 175.419C197.738 175.441 197.654 175.377 197.636 175.275C197.617 175.172 197.67 175.071 197.754 175.049L201.252 174.108C201.515 174.037 201.795 174.103 202.018 174.29C202.244 174.479 202.392 174.766 202.434 175.099C202.512 175.72 202.166 176.316 201.647 176.456L197.821 177.468C197.81 177.471 197.799 177.472 197.788 177.472Z" fill="#F07162"/>
<path d="M197.134 174.305C197.241 174.891 197.648 175.255 197.757 175.226L201.406 174.244C201.816 174.134 202.106 173.66 202.042 173.153C201.973 172.598 201.535 172.238 201.093 172.357L197.351 173.364C197.351 173.364 197.027 173.719 197.134 174.305Z" fill="#FE9F73"/>
<path d="M197.757 175.39C197.688 175.39 197.627 175.332 197.612 175.248C197.594 175.15 197.645 175.053 197.725 175.032L201.375 174.067C201.718 173.975 201.947 173.585 201.896 173.18C201.869 172.963 201.772 172.776 201.625 172.652C201.477 172.529 201.3 172.486 201.125 172.534L197.788 173.431C197.709 173.452 197.629 173.391 197.612 173.294C197.594 173.196 197.644 173.099 197.725 173.078L201.061 172.18C201.313 172.113 201.579 172.176 201.792 172.354C202.008 172.534 202.149 172.808 202.189 173.125C202.263 173.718 201.933 174.287 201.438 174.421L197.788 175.386C197.778 175.389 197.767 175.39 197.757 175.39Z" fill="#F07162"/>
<path d="M198.242 179.312C198.169 179.312 198.103 179.248 198.089 179.157C198.074 179.054 198.129 178.955 198.214 178.935L201.967 178.083C202.33 177.994 202.553 177.636 202.507 177.213C202.482 176.985 202.384 176.787 202.232 176.654C202.079 176.521 201.895 176.472 201.71 176.517L197.772 177.48C197.688 177.501 197.605 177.434 197.589 177.332C197.572 177.229 197.626 177.129 197.711 177.108L201.649 176.145C201.914 176.08 202.192 176.153 202.412 176.345C202.636 176.54 202.779 176.83 202.815 177.163C202.883 177.784 202.551 178.327 202.026 178.456L198.271 179.309C198.261 179.31 198.251 179.312 198.242 179.312Z" fill="#F07162"/>
<path d="M198.559 181.151C198.486 181.151 198.421 181.088 198.407 180.996C198.391 180.894 198.446 180.794 198.531 180.775L202.116 179.951C202.448 179.875 202.678 179.51 202.639 179.119C202.618 178.91 202.53 178.727 202.392 178.603C202.253 178.479 202.084 178.432 201.915 178.471L198.238 179.316C198.154 179.335 198.072 179.267 198.056 179.164C198.041 179.062 198.096 178.962 198.18 178.943L201.858 178.098C202.108 178.041 202.369 178.113 202.575 178.297C202.784 178.483 202.916 178.759 202.947 179.073C203.006 179.662 202.666 180.211 202.174 180.324L198.588 181.148C198.578 181.15 198.569 181.151 198.559 181.151Z" fill="#F07162"/>
<path d="M203.096 171.099C203.096 171.099 205.095 172.179 205.647 172.136C206.2 172.094 208.476 171.528 208.476 171.528L209.588 181.376C209.588 181.376 207.892 181.621 204.957 181.433C202.021 181.244 203.096 171.099 203.096 171.099Z" fill="#FE9F73"/>
<path d="M248.661 140.006C248.661 140.006 234.903 133.451 231.747 139.381C228.592 145.311 223.379 161.49 223.458 161.908C224.316 166.459 228.83 171.349 231.596 173.149C234.178 174.829 234.986 173.666 236.681 171.129C239.581 166.789 240.848 147.707 240.889 147.858C240.926 147.996 248.661 140.006 248.661 140.006Z" fill="#7FC6A6"/>
<path d="M264.938 140.255C265.954 142.013 267.159 147.002 268.68 152.361C270.694 159.465 272.945 167.058 272.945 167.058C272.945 167.058 273.291 169.201 265.053 170.141L265.604 204.426C265.604 204.426 249.774 211.019 231.169 204.352C231.169 204.352 230.339 143.461 232.902 138.721C235.464 133.98 260.647 132.828 264.938 140.255Z" fill="#7FC6A6"/>
<path d="M243.314 118.66L243.102 128.524C243.102 128.524 242.926 131.691 245.19 132.16L244.675 136.378C244.484 137.945 245.221 139.475 246.448 139.993C247.048 140.246 247.767 140.44 248.586 140.466C251.183 140.55 252.641 138.217 252.883 137.034C253.125 135.852 252.598 130.15 252.598 130.15L252.737 127.361L252.674 116.535L243.314 118.66Z" fill="#FE9F73"/>
<path d="M250.517 129.635C250.517 129.635 250.251 134.938 244.81 135.271L245.19 132.161C245.19 132.161 248.693 133.137 250.517 129.635Z" fill="#F07162"/>
<path d="M249.474 124.034C249.501 124.035 249.529 124.024 249.55 124C249.594 123.951 249.597 123.867 249.557 123.813C249.543 123.794 248.094 121.887 246.705 123.182C246.658 123.226 246.649 123.309 246.685 123.367C246.721 123.425 246.789 123.436 246.837 123.392C248.067 122.245 249.344 123.92 249.397 123.991C249.418 124.019 249.446 124.033 249.474 124.034Z" fill="black"/>
<path d="M253.234 122.767L250.885 123.286L250.452 123.807C250.452 123.807 250.757 119.033 251.217 118.107C251.677 117.181 253.234 122.767 253.234 122.767Z" fill="black"/>
<path d="M245.03 123.099C245.06 123.1 245.091 123.085 245.113 123.056C245.153 123.002 245.15 122.919 245.106 122.869C245.063 122.822 244.054 121.711 243.387 122.373C243.341 122.419 243.333 122.502 243.371 122.559C243.409 122.616 243.477 122.624 243.523 122.578C244.046 122.059 244.951 123.054 244.96 123.065C244.98 123.087 245.005 123.098 245.03 123.099Z" fill="black"/>
<path d="M247.274 124.498C247.269 124.717 247.411 124.899 247.59 124.905C247.77 124.911 247.919 124.738 247.924 124.519C247.928 124.3 247.787 124.118 247.607 124.112C247.428 124.107 247.279 124.279 247.274 124.498Z" fill="black"/>
<path d="M243.832 123.991C243.827 124.21 243.968 124.392 244.148 124.398C244.327 124.404 244.476 124.231 244.481 124.012C244.486 123.793 244.344 123.611 244.165 123.605C243.986 123.6 243.836 123.772 243.832 123.991Z" fill="black"/>
<path d="M249.959 124.447C249.931 125.76 250.78 126.853 251.856 126.887C252.932 126.922 253.827 125.885 253.855 124.571C253.883 123.258 253.034 122.165 251.958 122.131C250.882 122.096 249.987 123.133 249.959 124.447Z" fill="#FE9F73"/>
<path d="M252.219 125.84C252.624 125.853 252.902 125.49 252.999 125.122C253.114 124.686 253.002 124.256 252.715 124.025C252.291 123.685 251.895 123.882 251.692 124.036C251.781 123.769 251.917 123.577 252.097 123.464C252.487 123.218 252.959 123.421 252.964 123.423C252.992 123.435 253.023 123.418 253.033 123.383C253.043 123.349 253.029 123.311 253.001 123.299C252.98 123.289 252.481 123.074 252.049 123.346C251.799 123.502 251.626 123.789 251.533 124.196L251.481 124.425L251.622 124.262C251.642 124.239 252.117 123.704 252.656 124.136C252.954 124.375 252.972 124.795 252.896 125.081C252.818 125.379 252.595 125.72 252.223 125.708C252.219 125.708 252.216 125.707 252.212 125.707C252.182 125.706 252.157 125.734 252.156 125.771C252.155 125.807 252.178 125.838 252.208 125.839C252.212 125.84 252.216 125.84 252.219 125.84Z" fill="#F07162"/>
<path d="M246.072 127.135C246.094 127.136 246.116 127.119 246.124 127.092C246.134 127.057 246.119 127.02 246.091 127.007L245.016 126.534L245.426 123.429C245.43 123.393 245.41 123.359 245.381 123.353C245.351 123.346 245.323 123.372 245.319 123.408L244.895 126.622L246.054 127.131C246.06 127.134 246.066 127.135 246.072 127.135Z" fill="#F07162"/>
<path d="M246.884 128.449C246.851 128.44 244.743 128.312 244.743 128.312C244.743 128.312 244.985 129.386 245.768 129.436C246.552 129.486 246.884 128.449 246.884 128.449Z" fill="#FBFDFC"/>
<path d="M253.234 122.768C253.234 122.768 253.991 118.158 252.867 116.395C251.743 114.631 245.142 111.397 244.316 112.234C243.489 113.071 244.274 114.145 244.274 114.145C244.274 114.145 241.621 113.012 240.952 115.89C240.284 118.767 246.014 120.185 249.477 118.938C249.477 118.938 251.731 119.82 253.234 122.768Z" fill="black"/>
<path d="M239.073 182.563C239.395 182.638 253.367 184.844 262.568 181.099C265.771 179.795 268.754 176.757 270.222 174.305C272.451 170.584 270.995 163.449 268.926 158.343L264.016 164.785C263.467 165.505 262.835 166.124 262.139 166.621C259.58 168.449 253.611 172.549 247.601 173.144L239.073 182.563Z" fill="#FE9F73"/>
<path d="M272.945 167.058C272.945 167.058 272.792 167.363 272.017 167.993C271.106 168.735 269.283 169.839 265.053 170.141C265.053 170.141 260.556 170.237 255.24 167.058C249.923 163.879 261.638 151.87 261.638 151.87L267.225 154.418L269.748 156.948L272.945 167.058Z" fill="#7FC6A6"/>
<path d="M227.344 169.39C227.386 169.39 227.428 169.368 227.456 169.325C227.505 169.249 227.495 169.139 227.434 169.079C224.258 165.978 223.659 162.297 223.604 161.915C224.692 156.594 230.995 139.955 232.8 138.314C234.644 136.639 244.186 135.112 244.282 135.097C244.361 135.085 244.416 134.997 244.406 134.901C244.396 134.805 244.324 134.739 244.245 134.75C243.85 134.813 234.532 136.304 232.629 138.034C230.661 139.822 224.29 157.056 223.319 161.866L223.312 161.899L223.316 161.933C223.321 161.973 223.831 166.009 227.255 169.352C227.281 169.378 227.313 169.39 227.344 169.39Z" fill="black"/>
<path d="M241.68 207.061C235.36 206.217 231.165 204.535 231.124 204.518L231.033 204.481L231.026 204.365C230.035 188.682 231.719 145.706 231.736 145.273C231.74 145.177 231.809 145.099 231.887 145.107C231.966 145.112 232.026 145.194 232.023 145.29C232.006 145.721 230.33 188.463 231.304 204.221C231.945 204.468 235.93 205.942 241.711 206.713C247.518 207.488 256.369 207.691 265.562 204.258C265.637 204.23 265.718 204.282 265.741 204.374C265.764 204.467 265.721 204.565 265.646 204.593C259.637 206.837 253.775 207.535 248.806 207.535C246.134 207.535 243.72 207.333 241.68 207.061Z" fill="black"/>
<path d="M265.638 170.099C268.345 170.099 271.209 169.442 273.047 167.181L273.11 167.103L273.08 166.999L265.651 141.402C265.617 141.262 264.709 137.741 260.014 136.535C255.395 135.349 253.539 135.075 253.521 135.072C253.443 135.061 253.371 135.129 253.362 135.225C253.352 135.321 253.409 135.408 253.487 135.419C253.505 135.422 255.352 135.695 259.954 136.877C264.485 138.04 265.37 141.476 265.379 141.511L272.779 167.011C268.794 171.765 259.674 168.891 258.622 168.538C258.484 164.62 256.228 147.171 256.205 146.994C256.192 146.898 256.118 146.832 256.041 146.848C255.963 146.863 255.909 146.953 255.922 147.048C255.945 147.228 258.25 165.053 258.34 168.677L258.343 168.804L258.442 168.84C258.682 168.926 262.021 170.099 265.638 170.099Z" fill="black"/>
<path d="M256.677 152.045C256.709 152.045 256.741 152.032 256.767 152.006C256.829 151.945 256.838 151.835 256.788 151.76L255.351 149.605C255.301 149.53 255.21 149.518 255.149 149.58C255.088 149.641 255.079 149.751 255.129 149.826L256.566 151.981C256.594 152.023 256.635 152.045 256.677 152.045Z" fill="black"/>
<path d="M258.68 200.5C258.714 200.5 258.748 200.485 258.775 200.455L262.439 196.439C262.497 196.374 262.502 196.264 262.449 196.192C262.397 196.121 262.306 196.114 262.247 196.179L258.584 200.194C258.525 200.259 258.52 200.37 258.573 200.441C258.601 200.48 258.64 200.5 258.68 200.5Z" fill="black"/>
<path d="M259.646 202.679C259.682 202.679 259.719 202.662 259.747 202.628L262.444 199.364C262.5 199.296 262.5 199.185 262.445 199.117C262.389 199.048 262.298 199.048 262.242 199.116L259.545 202.38C259.489 202.448 259.488 202.559 259.544 202.627C259.572 202.662 259.609 202.679 259.646 202.679Z" fill="black"/>
<path d="M240.122 182.324H234.93C234.404 182.324 233.978 181.726 233.978 180.988V173.974V166.34C233.978 165.602 234.404 165.004 234.93 165.004H240.122C240.648 165.004 241.074 165.602 241.074 166.34V180.988C241.074 181.726 240.648 182.324 240.122 182.324Z" fill="#C2FBFF"/>
<path d="M240.122 182.554C240.018 182.554 239.934 182.451 239.934 182.324C239.934 182.197 240.018 182.094 240.122 182.094C240.543 182.094 240.886 181.598 240.886 180.988V166.34C240.886 165.73 240.543 165.233 240.122 165.233H234.93C234.826 165.233 234.742 165.13 234.742 165.003C234.742 164.876 234.826 164.773 234.93 164.773H240.122C240.751 164.773 241.263 165.476 241.263 166.34V180.988C241.263 181.852 240.751 182.554 240.122 182.554Z" fill="#21111D"/>
<path d="M233.554 174.687C232.938 173.516 233.877 172.471 233.877 172.471C233.839 170.93 234.272 170.37 234.272 170.37C234.272 170.37 237.362 172.413 239.089 173.742C240.179 173.821 240.661 173.287 240.661 173.287L240.679 173.348C240.893 172.235 241.161 170.843 241.188 170.686C241.234 170.419 241.657 170.082 242.058 171.067C242.458 172.052 242.971 173.937 242.971 173.937L249.469 172.847L246.789 183.289C246.789 183.289 239.967 182.725 238.932 182.551C237.898 182.377 234.526 180.442 233.655 179.104C232.784 177.765 233.176 176.868 233.176 176.868C232.592 175.514 233.554 174.687 233.554 174.687Z" fill="#FE9F73"/>
<path d="M235.871 174.489C235.923 174.503 235.978 174.475 236.006 174.416C236.04 174.342 236.019 174.249 235.959 174.207C235.116 173.616 233.972 172.37 233.96 172.357C233.909 172.301 233.829 172.306 233.783 172.369C233.737 172.432 233.741 172.529 233.793 172.586C233.84 172.638 234.968 173.866 235.834 174.473C235.846 174.481 235.858 174.486 235.871 174.489Z" fill="#F07162"/>
<path d="M235.542 176.389C235.601 176.404 235.661 176.367 235.684 176.298C235.711 176.219 235.68 176.13 235.616 176.097C234.523 175.546 233.647 174.583 233.638 174.574C233.587 174.517 233.507 174.522 233.461 174.584C233.414 174.647 233.418 174.744 233.469 174.801C233.506 174.841 234.385 175.808 235.52 176.381C235.528 176.385 235.535 176.387 235.542 176.389Z" fill="#F07162"/>
<path d="M234.895 178.485C234.951 178.5 235.011 178.465 235.035 178.398C235.064 178.321 235.035 178.23 234.972 178.195C234.04 177.686 233.272 176.768 233.265 176.759C233.216 176.699 233.136 176.7 233.087 176.76C233.038 176.82 233.039 176.918 233.088 176.977C233.121 177.016 233.896 177.943 234.87 178.475C234.878 178.48 234.886 178.483 234.895 178.485Z" fill="#F07162"/>
<g opacity="0.3">
<path d="M234.561 167.265C234.561 167.846 234.947 168.317 235.422 168.317C235.898 168.317 236.284 167.846 236.284 167.265C236.284 166.684 235.898 166.213 235.422 166.213C234.947 166.213 234.561 166.684 234.561 167.265Z" fill="white"/>
</g>
<path d="M327.846 134.193H289.327C288.097 134.193 287.099 135.411 287.099 136.913V159.69C287.099 161.192 288.097 162.409 289.327 162.409H292.608L291.113 167.392L297.016 162.409H327.846C329.076 162.409 330.073 161.192 330.073 159.69V136.913C330.073 135.411 329.076 134.193 327.846 134.193Z" fill="white"/>
<path d="M326.038 151.963H290.204C289.956 151.963 289.755 151.718 289.755 151.415C289.755 151.112 289.956 150.866 290.204 150.866H326.038C326.286 150.866 326.487 151.112 326.487 151.415C326.487 151.717 326.286 151.963 326.038 151.963Z" fill="#B1E8FC"/>
<path d="M313.487 139.51H290.204C289.956 139.51 289.755 139.265 289.755 138.962C289.755 138.659 289.956 138.414 290.204 138.414H313.487C313.735 138.414 313.936 138.659 313.936 138.962C313.936 139.265 313.735 139.51 313.487 139.51Z" fill="#B1E8FC"/>
<path d="M300.271 158.189H290.204C289.956 158.189 289.755 157.944 289.755 157.641C289.755 157.338 289.956 157.093 290.204 157.093H300.271C300.519 157.093 300.72 157.338 300.72 157.641C300.72 157.944 300.519 158.189 300.271 158.189Z" fill="#B1E8FC"/>
<path d="M326.038 158.189H303.42C303.172 158.189 302.971 157.944 302.971 157.641C302.971 157.338 303.172 157.093 303.42 157.093H326.038C326.286 157.093 326.487 157.338 326.487 157.641C326.487 157.944 326.286 158.189 326.038 158.189Z" fill="#B1E8FC"/>
<path d="M326.304 139.51H317.013C316.765 139.51 316.564 139.265 316.564 138.962C316.564 138.659 316.765 138.414 317.013 138.414H326.304C326.552 138.414 326.753 138.659 326.753 138.962C326.753 139.265 326.552 139.51 326.304 139.51Z" fill="#B1E8FC"/>
<path d="M304.839 145.737H290.204C289.956 145.737 289.755 145.491 289.755 145.188C289.755 144.886 289.956 144.64 290.204 144.64H304.839C305.087 144.64 305.288 144.886 305.288 145.188C305.288 145.491 305.087 145.737 304.839 145.737Z" fill="#B1E8FC"/>
<path d="M326.304 145.737H308.121C307.873 145.737 307.672 145.491 307.672 145.188C307.672 144.886 307.873 144.64 308.121 144.64H326.304C326.552 144.64 326.753 144.886 326.753 145.188C326.753 145.491 326.552 145.737 326.304 145.737Z" fill="#B1E8FC"/>
<path d="M305.687 211.131V239.661C305.687 242.294 307.435 244.43 309.594 244.43H366.093C368.251 244.43 370 242.294 370 239.661V211.1C370 208.648 368.486 206.629 366.536 206.361H309.594C307.435 206.361 305.687 208.496 305.687 211.131Z" fill="#AAC9F8"/>
<path d="M326.598 242.363C326.518 242.607 317.011 254.068 317.002 253.681C316.993 253.293 316.994 253.291 319.48 240.076L326.598 242.363Z" fill="#AAC9F8"/>
<path d="M325.683 224.886C325.683 228.634 323.907 231.875 321.328 233.427C320.291 234.05 319.122 234.399 317.889 234.399C317.124 234.399 316.384 234.265 315.685 234.013C312.455 232.853 310.096 229.206 310.096 224.886C310.096 219.632 313.586 215.372 317.889 215.372C322.194 215.373 325.683 219.632 325.683 224.886Z" fill="white"/>
<path d="M325.151 224.887C325.151 228.326 323.546 231.308 321.201 232.777C321.166 232.8 321.129 232.823 321.093 232.844C320.127 233.425 319.038 233.75 317.889 233.75C317.201 233.75 316.534 233.634 315.903 233.413C315.88 233.407 315.858 233.398 315.836 233.39C312.826 232.31 310.628 228.911 310.628 224.887C310.628 219.992 313.879 216.023 317.889 216.023C321.9 216.023 325.151 219.992 325.151 224.887Z" fill="#8CD2F9"/>
<path d="M321.201 232.777C321.166 232.8 321.129 232.823 321.093 232.844C320.127 233.425 319.038 233.75 317.889 233.75C317.201 233.75 316.534 233.634 315.903 233.413L315.96 232.953L316.205 230.944C314.743 230.642 314.856 228.597 314.856 228.597L314.991 222.343L314.993 222.228L321.036 220.855L321.054 223.733L321.056 224.289L321.059 224.604L321.06 224.954L321.075 227.395L321.078 227.845L320.987 229.646C320.988 229.647 321.154 231.435 321.201 232.777Z" fill="#FE9F73"/>
<path d="M319.644 229.314C319.644 229.314 319.472 232.738 315.96 232.953L316.205 230.945C316.205 230.945 318.467 231.575 319.644 229.314Z" fill="#F07162"/>
<path d="M321.399 224.88L319.882 225.215L319.602 225.551C319.602 225.551 319.799 222.468 320.096 221.871C320.393 221.273 321.399 224.88 321.399 224.88Z" fill="black"/>
<path d="M319.284 225.964C319.266 226.812 319.814 227.518 320.509 227.54C321.203 227.562 321.781 226.893 321.799 226.045C321.818 225.197 321.269 224.491 320.575 224.469C319.88 224.446 319.302 225.116 319.284 225.964Z" fill="#FE9F73"/>
<path d="M321.399 224.88C321.399 224.88 321.887 221.904 321.161 220.765C320.436 219.627 316.174 217.539 315.64 218.079C315.106 218.62 315.614 219.313 315.614 219.313C315.614 219.313 313.9 218.581 313.469 220.439C313.037 222.297 316.737 223.212 318.973 222.408C318.973 222.408 320.428 222.977 321.399 224.88Z" fill="black"/>
<path d="M329.313 212.14L330.173 214.268L332.097 214.609L330.705 216.266L331.033 218.605L329.313 217.5L327.592 218.605L327.921 216.266L326.529 214.609L328.453 214.268L329.313 212.14Z" fill="white"/>
<path d="M337.686 212.14L338.547 214.268L340.47 214.609L339.078 216.266L339.407 218.604L337.686 217.5L335.966 218.604L336.294 216.266L334.903 214.609L336.826 214.268L337.686 212.14Z" fill="white"/>
<path d="M346.06 212.14L346.92 214.268L348.844 214.609L347.452 216.266L347.78 218.604L346.06 217.5L344.339 218.604L344.668 216.266L343.276 214.609L345.2 214.268L346.06 212.14Z" fill="white"/>
<path d="M354.433 212.14L355.293 214.268L357.217 214.609L355.825 216.266L356.154 218.604L354.433 217.5L352.713 218.604L353.041 216.266L351.649 214.609L353.573 214.268L354.433 212.14Z" fill="white"/>
<path d="M362.807 212.14L363.667 214.268L365.59 214.609L364.198 216.266L364.527 218.604L362.807 217.5L361.086 218.604L361.415 216.266L360.023 214.609L361.946 214.268L362.807 212.14Z" fill="white"/>
<path d="M359.514 221.804H328.262V222.723H359.514V221.804Z" fill="white"/>
<path d="M365.069 225.922H328.262V226.841H365.069V225.922Z" fill="white"/>
<path d="M365.069 230.041H328.262V230.96H365.069V230.041Z" fill="white"/>
<path d="M137.798 208.439L138.598 204.908C138.661 204.93 145.042 206.99 151.498 203.52L152.707 206.872C145.241 210.885 138.099 208.54 137.798 208.439Z" fill="#223749"/>
<path d="M171.359 190.728C171 191.268 170.35 191.35 169.908 190.912C169.466 190.474 169.398 189.681 169.757 189.141L172.092 185.629C172.45 185.089 173.1 185.007 173.542 185.445C173.984 185.883 174.052 186.675 173.693 187.215L171.359 190.728Z" fill="#374169"/>
<path d="M170.698 186.35C170.28 187.061 169.47 187.224 168.888 186.714C168.305 186.204 168.172 185.215 168.59 184.504L171.306 179.881C171.724 179.17 172.534 179.007 173.117 179.517C173.699 180.027 173.832 181.016 173.415 181.727L170.698 186.35Z" fill="#374169"/>
<path d="M166.221 184.438C165.595 184.013 165.37 183.049 165.719 182.284L167.986 177.313C168.334 176.549 169.124 176.274 169.75 176.699C170.376 177.125 170.601 178.089 170.253 178.853L167.986 183.825C167.637 184.589 166.847 184.864 166.221 184.438Z" fill="#374169"/>
<path d="M162.049 185.031C161.423 184.605 161.198 183.641 161.546 182.877L163.813 177.905C164.162 177.141 164.952 176.867 165.577 177.292C166.203 177.717 166.428 178.682 166.08 179.446L163.813 184.417C163.465 185.181 162.675 185.456 162.049 185.031Z" fill="#374169"/>
<path d="M159.742 189.377C158.932 189.588 158.135 188.958 157.962 187.969L156.836 181.535C156.663 180.546 157.179 179.573 157.989 179.362C158.799 179.151 159.596 179.782 159.769 180.77L160.895 187.204C161.068 188.193 160.552 189.166 159.742 189.377Z" fill="#374169"/>
<path d="M152.794 209.392C152.794 209.392 149.68 202.655 151.032 200.047C152.384 197.438 158.189 187.473 159.026 185.459C159.864 183.444 165.015 180.983 168.735 184.157C172.456 187.331 172.851 190.034 167.493 197.77C162.135 205.505 153.482 211.053 152.794 209.392Z" fill="#8CD2F9"/>
<path d="M167.585 197.865C170.646 193.445 171.852 190.62 171.617 188.419C171.454 186.891 170.613 185.58 168.804 184.037C168.62 183.88 168.429 183.735 168.233 183.601C166.571 182.472 164.486 182.185 162.405 182.822C160.748 183.329 159.347 184.362 158.919 185.392C158.508 186.382 156.832 189.402 155.418 191.922C154.931 192.79 154.433 193.673 153.952 194.527C152.667 196.806 151.454 198.958 150.93 199.969C149.56 202.613 152.542 209.146 152.688 209.461C152.773 209.665 152.945 209.786 153.197 209.822C155.289 210.122 162.879 204.657 167.585 197.865ZM167.401 197.676C162.434 204.847 155.034 209.79 153.225 209.531C153.136 209.518 153.063 209.493 153.008 209.455C152.958 209.422 152.923 209.379 152.901 209.326L152.898 209.32C152.867 209.253 149.835 202.63 151.133 200.125C151.655 199.12 152.867 196.97 154.15 194.693C154.631 193.839 155.129 192.956 155.616 192.088C157.123 189.403 158.718 186.524 159.133 185.525C159.526 184.581 160.895 183.587 162.464 183.106C164.723 182.415 166.984 182.842 168.666 184.278C170.415 185.769 171.226 187.019 171.379 188.457C171.605 190.568 170.415 193.325 167.401 197.676Z" fill="#1D1D1B"/>
<path d="M164.448 191.954C163.077 189.788 160.724 188.681 157.453 188.663L157.454 188.37C159.596 188.381 161.356 188.854 162.718 189.78C163.486 190.302 164.128 190.968 164.639 191.776C166.822 195.228 165.823 200.131 165.812 200.181L165.58 200.108C165.59 200.06 166.559 195.291 164.448 191.954Z" fill="#1D1D1B"/>
<path d="M118.517 192.235H110.606V195.887H118.517H118.784H126.695V192.235H118.784H118.517Z" fill="#111E28"/>
<path d="M105.876 235.976C105.876 237.518 106.487 238.796 107.286 239.03H115.881C116.68 238.796 117.291 237.518 117.291 235.976V230.696H105.876V235.976Z" fill="#223749"/>
<path d="M120.01 235.976C120.01 237.518 120.621 238.796 121.42 239.03H130.015C130.814 238.796 131.425 237.518 131.425 235.976V230.696H120.01V235.976Z" fill="#374169"/>
<path d="M133.821 200.903L133.697 199.488C133.256 197.415 131.713 195.887 129.878 195.887H118.784H118.517H107.423C105.588 195.887 104.045 197.415 103.604 199.488L103.48 200.903L101.394 224.643L101.284 225.904V225.91C101.338 228.513 103.084 230.604 105.23 230.604H118.517H118.784H132.071C134.217 230.604 135.963 228.513 136.017 225.91V225.904L135.907 224.643L133.821 200.903Z" fill="#49B3E2"/>
<path d="M108.263 200.075C108.051 199.01 107.128 198.408 106.286 198.784C103.832 199.881 99.0621 202.616 95.4815 208.388L97.8732 210.599C100.986 205.582 105.239 203.169 107.329 202.227C108.042 201.905 108.443 200.978 108.263 200.075Z" fill="#223749"/>
<path d="M86.8099 232.547C86.2489 232.427 85.7144 232.885 85.6161 233.569L84.9759 238.024C84.8774 238.709 85.2524 239.362 85.8132 239.482C86.3742 239.602 86.9087 239.144 87.007 238.46L87.6472 234.005C87.7457 233.32 87.3709 232.667 86.8099 232.547Z" fill="#374169"/>
<path d="M89.3741 235.609C88.6623 235.509 88.0191 236.133 87.9373 237.002L87.4056 242.655C87.3238 243.524 87.8345 244.309 88.5463 244.409C89.258 244.508 89.9012 243.885 89.9829 243.016L90.5146 237.363C90.5965 236.494 90.0858 235.709 89.3741 235.609Z" fill="#374169"/>
<path d="M92.6104 236.014C91.894 236.014 91.3132 236.723 91.3132 237.598V243.288C91.3132 244.162 91.894 244.872 92.6104 244.872C93.3267 244.872 93.9076 244.162 93.9076 243.288V237.598C93.9076 236.723 93.3267 236.014 92.6104 236.014Z" fill="#374169"/>
<path d="M96.02 233.019C95.3036 233.019 94.7227 233.728 94.7227 234.603V240.293C94.7227 241.167 95.3035 241.876 96.02 241.876C96.7365 241.876 97.3172 241.167 97.3172 240.293V234.603C97.3172 233.728 96.7365 233.019 96.02 233.019Z" fill="#374169"/>
<path d="M98.4207 228.025C97.8755 227.264 96.928 227.186 96.3044 227.852C95.6808 228.518 95.6172 229.674 96.1624 230.436L99.7091 235.389C100.254 236.15 101.202 236.228 101.825 235.562C102.449 234.897 102.513 233.74 101.967 232.978L98.4207 228.025Z" fill="#374169"/>
<path d="M94.4016 206.238C93.1383 205.195 87.7881 215.18 86.1881 225.121C84.588 235.062 86.0103 237.188 90.5259 237.753C95.0415 238.317 98.5618 233.108 98.4906 230.851C98.4196 228.594 99.5218 216.439 99.664 213.357C99.8062 210.275 94.4016 206.238 94.4016 206.238Z" fill="#8CD2F9"/>
<path d="M114.356 239.03H109.13V251.119H114.356V239.03Z" fill="#223749"/>
<path d="M135.436 239.03H130.209V251.119H135.436V239.03Z" fill="#223749"/>
<path d="M125.781 192.235H117.87V195.887H125.781H126.048H133.959V192.235H126.048H125.781Z" fill="#374169"/>
<path d="M113.14 235.976C113.14 237.518 113.751 238.796 114.55 239.03H123.145C123.944 238.796 124.555 237.518 124.555 235.976V230.696H113.14L113.14 235.976Z" fill="#374169"/>
<path d="M118.677 265.639V256.07C118.677 251.485 115.204 248.049 111.538 249.045C109.372 249.633 107.464 250.909 107.103 253.528C106.196 260.104 105.876 273.908 105.876 273.908H124.223C124.223 273.908 124.437 267.657 118.677 265.639Z" fill="#8CD2F9"/>
<path d="M125.006 273.908H105.379V275.861H125.006V273.908Z" fill="#223749"/>
<path d="M127.275 235.976C127.275 237.518 127.885 238.796 128.684 239.03H137.28C138.079 238.796 138.689 237.518 138.689 235.976V230.696H127.275V235.976Z" fill="#374169"/>
<path d="M141.085 200.903L140.962 199.488C140.52 197.415 138.977 195.887 137.142 195.887H126.049H125.781H114.688C112.853 195.887 111.31 197.415 110.868 199.488L110.744 200.903L108.659 224.643L108.548 225.904V225.91C108.602 228.513 110.348 230.604 112.494 230.604H125.781H126.049H139.336C141.481 230.604 143.227 228.513 143.281 225.91V225.904L143.171 224.643L141.085 200.903Z" fill="#8CD2F9"/>
<path d="M139.756 265.639V256.07C139.756 251.485 136.283 248.049 132.617 249.045C130.451 249.633 128.543 250.909 128.182 253.528C127.275 260.104 126.955 273.908 126.955 273.908H145.302C145.302 273.908 145.516 267.657 139.756 265.639Z" fill="#8CD2F9"/>
<path d="M146.085 273.908H126.458V275.861H146.085V273.908Z" fill="#223749"/>
<path d="M144.799 157.306H144.061V170.616H144.799V157.306Z" fill="#111E28"/>
<path d="M148.156 175.849C147.573 175.849 147.101 176.426 147.101 177.138C147.101 177.849 147.573 178.426 148.156 178.426C148.739 178.426 149.212 177.849 149.212 177.138C149.212 176.426 148.739 175.849 148.156 175.849Z" fill="#374169"/>
<path d="M148.156 174.273H146.804V180.002H148.156V174.273Z" fill="#111E28"/>
<path d="M144.881 169.069H141.558V185.281H144.881C145.852 185.281 146.657 184.414 146.804 183.279V171.071C146.657 169.936 145.852 169.069 144.881 169.069Z" fill="#374169"/>
<path d="M146.238 157.636C146.455 156.407 145.815 155.195 144.808 154.93C143.801 154.665 142.809 155.447 142.592 156.676C142.375 157.905 143.015 159.116 144.022 159.381C145.029 159.646 146.021 158.865 146.238 157.636Z" fill="#374169"/>
<path d="M133.803 156.96C132.018 155.634 120.9 155.743 119.724 155.758C118.549 155.743 107.431 155.634 105.646 156.96C103.76 158.361 101.465 174.773 101.219 178.676C100.974 182.565 101.381 192.809 119.622 193.875V193.887C119.656 193.886 119.69 193.883 119.724 193.881C119.759 193.883 119.792 193.886 119.827 193.887V193.875C138.068 192.809 138.475 182.565 138.23 178.676C137.984 174.773 135.688 158.361 133.803 156.96Z" fill="#49B3E2"/>
<path d="M139.385 156.96C137.6 155.634 126.482 155.743 125.307 155.758C124.131 155.743 113.013 155.634 111.228 156.96C109.342 158.361 107.047 174.773 106.801 178.676C106.556 182.565 104.127 193.038 122.368 194.104H126.651C144.892 193.038 144.057 182.565 143.812 178.676C143.566 174.773 141.271 158.361 139.385 156.96Z" fill="#8CD2F9"/>
<path d="M102.186 158.578H101.8V169.098H102.186V158.578Z" fill="#111E28"/>
<path d="M103.48 169.069H101.1C100.159 169.069 99.3745 169.884 99.1926 170.967C99.1811 171.036 99.1772 171.106 99.1772 171.177V183.174C99.1772 183.244 99.1811 183.315 99.1926 183.384C99.3745 184.467 100.159 185.281 101.1 185.281H103.48C104.001 185.281 104.424 184.766 104.424 184.129V170.221C104.423 169.585 104.001 169.069 103.48 169.069Z" fill="#111E28"/>
<path d="M102.924 157.307H102.186V170.616H102.924V157.307Z" fill="#111E28"/>
<path d="M98.4191 175.849C97.8362 175.849 97.3637 176.426 97.3637 177.138C97.3637 177.849 97.8362 178.426 98.4191 178.426C99.0019 178.426 99.4744 177.849 99.4744 177.138C99.4744 176.426 99.0019 175.849 98.4191 175.849Z" fill="#374169"/>
<path d="M99.7713 174.273H98.4191V180.002H99.7713V174.273Z" fill="#111E28"/>
<path d="M104.484 169.069H102.104C101.163 169.069 100.378 169.884 100.197 170.967C100.185 171.036 100.181 171.106 100.181 171.177V183.174C100.181 183.244 100.185 183.315 100.197 183.384C100.379 184.467 101.163 185.281 102.104 185.281H104.484C105.005 185.281 105.427 184.766 105.427 184.129V170.221C105.427 169.585 105.005 169.069 104.484 169.069Z" fill="#374169"/>
<path d="M104.171 158.314C104.694 157.231 104.4 155.835 103.513 155.195C102.626 154.556 101.483 154.915 100.959 155.998C100.435 157.081 100.729 158.477 101.616 159.116C102.503 159.756 103.647 159.396 104.171 158.314Z" fill="#374169"/>
<path d="M135.88 161.374C134.549 160.385 126.32 160.456 125.307 160.469C124.293 160.456 116.065 160.385 114.733 161.374C113.314 162.429 111.586 174.785 111.401 177.723C111.216 180.646 111.523 188.342 125.204 189.161V189.174C125.239 189.172 125.272 189.17 125.307 189.168C125.341 189.17 125.374 189.172 125.409 189.174V189.161C139.09 188.342 139.397 180.646 139.212 177.723C139.027 174.784 137.299 162.429 135.88 161.374Z" fill="#374169"/>
<path d="M117.54 177.481C118.744 177.481 119.721 176.289 119.721 174.819C119.721 173.348 118.744 172.156 117.54 172.156C116.335 172.156 115.359 173.348 115.359 174.819C115.359 176.289 116.335 177.481 117.54 177.481Z" fill="white"/>
<path d="M133.073 172.156C131.869 172.156 130.892 173.348 130.892 174.818C130.892 176.289 131.869 177.481 133.073 177.481C134.278 177.481 135.254 176.289 135.254 174.818C135.254 173.348 134.278 172.156 133.073 172.156Z" fill="white"/>
<path d="M121.648 179.683C123.721 184.231 127.619 184.059 129.565 179.333H121.488L121.648 179.683Z" fill="white"/>
<path d="M132.68 203.747L132.672 203.675C132.425 202.011 131.509 200.849 130.444 200.849H120.61C119.545 200.849 118.629 202.011 118.381 203.675L117.358 220.323L117.356 220.352L117.356 220.39C117.386 222.421 118.393 224.013 119.649 224.013H131.404C132.661 224.013 133.668 222.421 133.697 220.39V220.348L132.734 204.635L132.68 203.747ZM131.404 222.634H119.649C119.04 222.634 118.509 221.606 118.486 220.394L119.446 204.737L119.498 203.887C119.649 202.924 120.114 202.228 120.61 202.228H130.444C130.939 202.228 131.404 202.924 131.556 203.887L132.567 220.393C132.542 221.611 132.013 222.634 131.404 222.634Z" fill="#49B3E2"/>
<path d="M118.797 265.528V256.07C118.797 253.829 117.975 251.739 116.542 250.335C115.119 248.942 113.286 248.42 111.512 248.902C108.828 249.631 107.305 251.179 106.985 253.503C106.087 260.015 105.76 273.766 105.756 273.904L105.753 274.055H124.338L124.343 273.914C124.346 273.851 124.493 267.588 118.797 265.528ZM124.104 273.761H106C106.038 272.24 106.377 259.675 107.221 253.552C107.524 251.356 108.985 249.888 111.564 249.188C113.267 248.725 115.026 249.227 116.391 250.564C117.768 251.911 118.557 253.918 118.557 256.07V265.749L118.643 265.779C121.569 266.805 122.897 268.955 123.496 270.578C124.033 272.035 124.098 273.341 124.104 273.761Z" fill="#1D1D1B"/>
<path d="M105.781 273.819L105.972 273.996C110.259 267.098 118.607 265.796 118.691 265.784L118.662 265.493C118.577 265.505 110.131 266.82 105.781 273.819Z" fill="#1D1D1B"/>
<path d="M139.876 265.528V256.07C139.876 253.829 139.054 251.738 137.621 250.335C136.198 248.942 134.365 248.42 132.591 248.902C129.907 249.631 128.384 251.179 128.064 253.503C127.166 260.015 126.839 273.766 126.835 273.904L126.832 274.055H145.418L145.422 273.914C145.425 273.851 145.572 267.588 139.876 265.528ZM145.183 273.761H127.079C127.117 272.24 127.456 259.675 128.3 253.552C128.603 251.356 130.064 249.888 132.643 249.188C134.346 248.725 136.105 249.227 137.47 250.564C138.847 251.911 139.636 253.918 139.636 256.07V265.749L139.722 265.779C142.648 266.805 143.976 268.955 144.575 270.578C145.113 272.035 145.177 273.341 145.183 273.761Z" fill="#1D1D1B"/>
<path d="M126.86 273.819L127.051 273.996C131.338 267.098 139.686 265.796 139.77 265.784L139.741 265.493C139.656 265.505 131.209 266.82 126.86 273.819Z" fill="#1D1D1B"/>
<path d="M138.569 235.599C138.569 238.577 137.375 238.864 137.271 238.884H107.286V239.177H137.286L137.293 239.176C137.355 239.167 138.809 238.926 138.809 235.599V230.696H138.569L138.569 235.599Z" fill="#1D1D1B"/>
<path d="M104.662 230.416L104.661 230.709L139.703 230.857L139.704 230.564L104.662 230.416Z" fill="#1D1D1B"/>
<path d="M110.478 202.457L108.589 223.99L108.828 224.022L110.717 202.488L110.478 202.457Z" fill="#1D1D1B"/>
<path d="M138.58 223.163L137.096 225.68L137.291 225.852L138.775 223.334L138.58 223.163Z" fill="#1D1D1B"/>
<path d="M140.079 224.785L138.595 227.302L138.789 227.473L140.273 224.956L140.079 224.785Z" fill="#1D1D1B"/>
<path d="M94.4664 206.115C94.3106 205.988 94.1128 205.984 93.878 206.101C91.9304 207.082 87.4753 216.364 86.0704 225.093C85.1562 230.772 85.2278 233.956 86.3098 235.74C87.061 236.979 88.3182 237.624 90.5138 237.898C90.7371 237.926 90.9613 237.94 91.1862 237.94C93.0882 237.94 95.0243 236.953 96.5884 235.161C97.8343 233.734 98.647 232 98.6106 230.845C98.5758 229.738 98.8369 226.103 99.0685 223.061C99.1484 222.01 99.2318 220.94 99.3123 219.905C99.5264 217.155 99.7288 214.558 99.7839 213.366C99.9279 210.242 94.7193 206.304 94.4664 206.115ZM99.5442 213.349C99.4893 214.536 99.2872 217.13 99.0733 219.877C98.9927 220.912 98.9094 221.983 98.8293 223.034C98.5827 226.275 98.3354 229.738 98.3708 230.856C98.404 231.914 97.6034 233.596 96.4239 234.948C94.7259 236.893 92.5813 237.863 90.5381 237.607C88.4165 237.342 87.2096 236.731 86.5024 235.566C85.4648 233.855 85.406 230.74 86.306 225.149C87.7893 215.934 92.2852 207.221 93.9697 206.373C94.0526 206.331 94.1259 206.31 94.1894 206.31C94.246 206.31 94.2945 206.327 94.3346 206.36L94.3393 206.364C94.3923 206.403 99.6808 210.39 99.5442 213.349Z" fill="#1D1D1B"/>
<path d="M91.166 228.394C87.9919 226.732 86.9388 221.99 86.9286 221.942L86.6964 222.016C86.707 222.065 87.7876 226.943 91.0698 228.663C91.8388 229.066 92.6643 229.267 93.5434 229.267C95.102 229.267 96.8289 228.635 98.7047 227.373L98.5889 227.116C95.7239 229.043 93.2266 229.474 91.166 228.394Z" fill="#1D1D1B"/>
<path d="M143.904 178.668C143.668 174.917 141.386 158.315 139.433 156.864C137.631 155.525 126.562 155.629 125.308 155.645C124.051 155.629 112.982 155.525 111.18 156.864C109.228 158.315 106.946 174.917 106.709 178.668C106.691 178.952 106.661 179.278 106.629 179.623C106.411 181.971 106.082 185.519 108.212 188.575C110.534 191.905 115.295 193.803 122.368 194.216H126.655C134.114 193.78 139.233 191.709 141.869 188.061C144.287 184.715 144.042 180.852 143.911 178.777L143.904 178.668ZM141.731 187.912C139.129 191.513 134.054 193.558 126.651 193.991H122.372C115.356 193.581 110.64 191.71 108.353 188.429C106.274 185.447 106.598 181.957 106.812 179.648C106.845 179.301 106.875 178.973 106.893 178.685C107.147 174.656 109.456 158.409 111.276 157.056C112.72 155.983 120.411 155.862 123.808 155.862C124.548 155.862 125.084 155.867 125.308 155.87C126.559 155.854 137.579 155.749 139.338 157.056C141.158 158.409 143.466 174.656 143.72 178.685L143.727 178.794C143.856 180.836 144.097 184.637 141.731 187.912Z" fill="#1D1D1B"/>
<path d="M105.51 170.054C105.409 169.075 104.502 168.958 104.493 168.957L104.488 168.957L101.8 168.986L101.801 169.211L104.48 169.182C104.548 169.191 105.243 169.305 105.326 170.075L105.335 183.562L105.52 183.562L105.511 170.068L105.51 170.054Z" fill="#1D1D1B"/>
<path d="M145.033 168.959L142.574 168.957V169.182H145.005C145.12 169.213 146.377 169.583 146.681 170.896L146.858 170.835C146.511 169.331 145.093 168.973 145.033 168.959Z" fill="#1D1D1B"/>
<path d="M146.89 171.062L146.705 171.064L146.803 182.487L146.987 182.485L146.89 171.062Z" fill="#1D1D1B"/>
<path d="M133.363 187.308C131.122 188.351 128.371 188.953 125.407 189.049C119.421 189.238 114.418 185.51 114.369 185.472L114.271 185.663C114.32 185.7 119.115 189.281 124.957 189.281C125.108 189.281 125.26 189.279 125.411 189.274C131.518 189.077 136.417 186.802 138.198 183.335L138.042 183.215C137.197 184.861 135.579 186.276 133.363 187.308Z" fill="#1D1D1B"/>
<path d="M116.295 160.778L116.302 161.003C116.426 160.997 128.713 160.407 133.568 160.896L133.583 160.671C128.718 160.181 116.418 160.772 116.295 160.778Z" fill="#1D1D1B"/>
<path d="M88.0869 176.715H82.4852V258.282H88.0869V176.715Z" fill="#5780BC"/>
</svg>
