<svg width="288" height="315" viewBox="0 0 288 315" fill="none" xmlns="http://www.w3.org/2000/svg">
<path d="M39.495 315H256.7C282.025 315 296.849 279.341 281.404 254.757C281.134 254.328 280.858 253.903 280.576 253.483C274.161 243.929 265.05 236.647 261.454 225.044C256.888 210.314 262.609 192.793 257.479 178.351C251.113 160.43 231.886 156.294 221.163 141.915C213.321 131.4 210.816 116.5 205.101 104.053C196.111 84.471 178.481 71.4544 160.312 70.9854C142.144 70.5164 124.092 82.6107 114.452 101.712C108.103 114.29 104.812 130.088 95.0271 138.63C88.9298 143.953 81.0797 145.63 75.2048 151.325C65.2269 160.997 63.8082 178.941 56.7634 191.991C44.7671 214.213 18.5275 219.022 6.43427 241.163C5.23421 243.36 4.18608 245.706 3.29792 248.167C-8.06531 279.662 11.3828 315 39.495 315Z" fill="#46ACC3"/>
<path d="M73.3667 106.49L63.8359 99.0679V304.407C63.8359 310.248 67.7153 314.999 72.4841 314.999H176.863C178.228 314.999 179.334 313.644 179.334 311.972V106.49H73.3667Z" fill="#E5E0C3"/>
<path d="M179.333 106.489V311.973C179.333 313.643 178.229 314.996 176.865 314.996H72.4859C69.3681 314.996 66.6283 312.963 65.1138 309.925L178.197 106.489H179.333Z" fill="#F0EACC"/>
<path d="M159.968 106.49H67.719V92.655H159.968C156.613 97.0171 156.421 101.614 159.968 106.49Z" fill="#DCCCAB"/>
<path d="M176.863 109.661H72.4841C67.7153 109.661 63.8359 104.91 63.8359 99.0679C63.8359 93.2269 67.7153 88.4752 72.4841 88.4752H160.904C162.269 88.4752 163.375 89.8301 163.375 91.502C163.375 93.1739 162.269 94.5288 160.904 94.5288H72.4841C70.4403 94.5288 68.7776 96.5654 68.7776 99.0687C68.7776 101.572 70.4403 103.608 72.4841 103.608H176.863C178.228 103.608 179.334 104.963 179.334 106.635C179.334 108.306 178.227 109.661 176.863 109.661Z" fill="#FCFBE9"/>
<path d="M87.8722 137.136H86.287C86.1933 136.68 86.0292 136.279 85.7948 135.934C85.5647 135.589 85.2835 135.299 84.9511 135.065C84.623 134.826 84.2586 134.647 83.858 134.528C83.4575 134.408 83.0399 134.349 82.6052 134.349C81.8126 134.349 81.0945 134.549 80.4511 134.949C79.8119 135.35 79.3026 135.94 78.9234 136.72C78.5484 137.5 78.3609 138.457 78.3609 139.59C78.3609 140.724 78.5484 141.68 78.9234 142.46C79.3026 143.24 79.8119 143.83 80.4511 144.231C81.0945 144.631 81.8126 144.832 82.6052 144.832C83.0399 144.832 83.4575 144.772 83.858 144.653C84.2586 144.533 84.623 144.356 84.9511 144.122C85.2835 143.883 85.5647 143.592 85.7948 143.246C86.0292 142.897 86.1933 142.496 86.287 142.045H87.8722C87.7529 142.714 87.5356 143.312 87.2203 143.841C86.9049 144.369 86.5129 144.819 86.0441 145.19C85.5754 145.556 85.0491 145.835 84.4653 146.027C83.8857 146.219 83.2657 146.315 82.6052 146.315C81.4887 146.315 80.4958 146.042 79.6265 145.496C78.7572 144.951 78.0732 144.175 77.5747 143.17C77.0761 142.164 76.8268 140.971 76.8268 139.59C76.8268 138.209 77.0761 137.016 77.5747 136.011C78.0732 135.005 78.7572 134.229 79.6265 133.684C80.4958 133.138 81.4887 132.866 82.6052 132.866C83.2657 132.866 83.8857 132.962 84.4653 133.153C85.0491 133.345 85.5754 133.626 86.0441 133.997C86.5129 134.364 86.9049 134.811 87.2203 135.339C87.5356 135.864 87.7529 136.462 87.8722 137.136ZM101.479 139.59C101.479 140.971 101.23 142.164 100.731 143.17C100.233 144.175 99.5489 144.951 98.6796 145.496C97.8103 146.042 96.8174 146.315 95.7009 146.315C94.5844 146.315 93.5915 146.042 92.7222 145.496C91.8529 144.951 91.1689 144.175 90.6704 143.17C90.1718 142.164 89.9225 140.971 89.9225 139.59C89.9225 138.209 90.1718 137.016 90.6704 136.011C91.1689 135.005 91.8529 134.229 92.7222 133.684C93.5915 133.138 94.5844 132.866 95.7009 132.866C96.8174 132.866 97.8103 133.138 98.6796 133.684C99.5489 134.229 100.233 135.005 100.731 136.011C101.23 137.016 101.479 138.209 101.479 139.59ZM99.9452 139.59C99.9452 138.457 99.7556 137.5 99.3763 136.72C99.0013 135.94 98.4921 135.35 97.8486 134.949C97.2094 134.549 96.4935 134.349 95.7009 134.349C94.9083 134.349 94.1903 134.549 93.5468 134.949C92.9076 135.35 92.3983 135.94 92.0191 136.72C91.6441 137.5 91.4566 138.457 91.4566 139.59C91.4566 140.724 91.6441 141.68 92.0191 142.46C92.3983 143.24 92.9076 143.83 93.5468 144.231C94.1903 144.631 94.9083 144.832 95.7009 144.832C96.4935 144.832 97.2094 144.631 97.8486 144.231C98.4921 143.83 99.0013 143.24 99.3763 142.46C99.7556 141.68 99.9452 140.724 99.9452 139.59ZM104.145 133.045H106.037L110.486 143.911H110.639L115.088 133.045H116.98V146.136H115.497V136.19H115.369L111.278 146.136H109.847L105.756 136.19H105.628V146.136H104.145V133.045ZM120.158 146.136V133.045H124.582C125.609 133.045 126.448 133.23 127.1 133.601C127.756 133.967 128.242 134.464 128.558 135.09C128.873 135.717 129.031 136.415 129.031 137.187C129.031 137.958 128.873 138.659 128.558 139.29C128.247 139.92 127.765 140.423 127.113 140.798C126.461 141.169 125.626 141.354 124.607 141.354H121.437V139.948H124.556C125.259 139.948 125.824 139.827 126.25 139.584C126.676 139.341 126.985 139.013 127.177 138.599C127.373 138.182 127.471 137.711 127.471 137.187C127.471 136.663 127.373 136.194 127.177 135.78C126.985 135.367 126.674 135.043 126.244 134.809C125.813 134.57 125.242 134.451 124.531 134.451H121.744V146.136H120.158ZM131.584 146.136V133.045H133.169V144.729H139.255V146.136H131.584ZM143.072 146.136H141.41L146.217 133.045H147.854L152.66 146.136H150.998L147.087 135.116H146.984L143.072 146.136ZM143.686 141.022H150.385V142.428H143.686V141.022ZM78.9234 155.045V168.136H77.3382V155.045H78.9234ZM92.4825 155.045V168.136H90.9484L83.8149 157.857H83.6871V168.136H82.1018V155.045H83.6359L90.795 165.349H90.9229V155.045H92.4825ZM94.9387 156.451V155.045H104.757V156.451H100.64V168.136H99.0551V156.451H94.9387Z" fill="#E95F5C"/>
<path d="M160.501 165.58H82.6688C81.9542 165.58 81.3743 164.871 81.3743 163.995C81.3743 163.12 81.9536 162.409 82.6688 162.409H160.501C161.215 162.409 161.795 163.119 161.795 163.995C161.795 164.871 161.215 165.58 160.501 165.58Z" fill="#E95F5C"/>
<path d="M160.501 178.272H82.6688C81.9542 178.272 81.3743 177.562 81.3743 176.686C81.3743 175.811 81.9536 175.1 82.6688 175.1H160.501C161.215 175.1 161.795 175.81 161.795 176.686C161.795 177.562 161.215 178.272 160.501 178.272Z" fill="#E95F5C"/>
<path d="M160.501 190.963H82.6688C81.9542 190.963 81.3743 190.253 81.3743 189.377C81.3743 188.502 81.9536 187.792 82.6688 187.792H160.501C161.215 187.792 161.795 188.501 161.795 189.377C161.795 190.253 161.215 190.963 160.501 190.963Z" fill="#E95F5C"/>
<path d="M160.501 203.654H82.6688C81.9542 203.654 81.3743 202.945 81.3743 202.069C81.3743 201.193 81.9536 200.483 82.6688 200.483H160.501C161.215 200.483 161.795 201.193 161.795 202.069C161.795 202.944 161.215 203.654 160.501 203.654Z" fill="#E95F5C"/>
<path d="M160.501 216.345H82.6688C81.9542 216.345 81.3743 215.635 81.3743 214.759C81.3743 213.884 81.9536 213.173 82.6688 213.173H160.501C161.215 213.173 161.795 213.883 161.795 214.759C161.795 215.635 161.215 216.345 160.501 216.345Z" fill="#E95F5C"/>
<path d="M259.364 237.236C263.838 241.288 265.265 249.128 263.752 255.686C262.239 262.245 258.272 267.595 253.753 271.571C249.234 275.546 244.118 278.355 239.201 281.545C227.309 289.259 216.438 299.33 207.141 311.246C209.191 297.4 211.936 283.58 216.912 270.895C221.888 258.211 229.245 246.641 239.037 239.279C242.116 236.964 245.47 235.059 249.047 234.442C252.625 233.824 256.459 234.605 259.364 237.236Z" fill="#7BC4B3"/>
<path d="M206.05 312.676C214.815 284.76 231.798 260.837 253.152 246.331C232.838 262.179 216.527 286.271 207.71 313.724C207.004 313.243 206.755 313.157 206.05 312.676Z" fill="#174555"/>
<path d="M266.822 283.18C268.774 287.949 267.504 294.042 264.552 297.965C261.599 301.887 257.283 303.904 252.978 304.72C248.674 305.535 244.29 305.278 239.935 305.373C229.401 305.602 218.9 307.919 208.963 312.208C214.397 303.428 220.309 294.969 227.45 288.271C234.591 281.573 243.073 276.685 252.038 275.791C254.857 275.509 257.749 275.633 260.425 276.754C263.102 277.875 265.554 280.083 266.822 283.18Z" fill="#32997E"/>
<path d="M207.788 312.734C221.977 297.043 240.751 287.705 259.855 286.836C241.089 289.092 222.736 298.841 208.644 314.185C208.29 313.544 208.142 313.376 207.788 312.734Z" fill="#174555"/>
<path d="M88.8385 155.465H81.7894H64.2282H57.1859C52.7309 155.465 49.1252 159.882 49.1252 165.33V185.068C49.1252 190.096 52.1992 194.25 56.1742 194.854V201.081L66.2516 194.933H88.8385C89.1819 194.933 89.5191 194.909 89.8501 194.854C93.8191 194.242 96.8924 190.096 96.8924 185.068V165.33C96.8924 159.881 93.2867 155.465 88.8385 155.465Z" fill="#265161"/>
<path d="M59.1062 174.914C59.1062 176.769 57.8789 178.272 56.3645 178.272C54.85 178.272 53.6228 176.769 53.6228 174.914C53.6228 173.059 54.85 171.555 56.3645 171.555C57.8783 171.555 59.1062 173.059 59.1062 174.914Z" fill="#E5E0C3"/>
<path d="M64.6864 178.272C66.2006 178.272 67.4281 176.768 67.4281 174.914C67.4281 173.059 66.2006 171.555 64.6864 171.555C63.1723 171.555 61.9448 173.059 61.9448 174.914C61.9448 176.768 63.1723 178.272 64.6864 178.272Z" fill="#E5E0C3"/>
<path d="M73.0085 178.272C74.5226 178.272 75.7501 176.768 75.7501 174.914C75.7501 173.059 74.5226 171.555 73.0085 171.555C71.4943 171.555 70.2668 173.059 70.2668 174.914C70.2668 176.768 71.4943 178.272 73.0085 178.272Z" fill="#E5E0C3"/>
<path d="M81.3312 178.272C82.8454 178.272 84.0728 176.768 84.0728 174.914C84.0728 173.059 82.8454 171.555 81.3312 171.555C79.817 171.555 78.5895 173.059 78.5895 174.914C78.5895 176.768 79.817 178.272 81.3312 178.272Z" fill="#E5E0C3"/>
<path d="M92.3948 174.914C92.3948 176.769 91.1669 178.272 89.6531 178.272C88.1387 178.272 86.9114 176.769 86.9114 174.914C86.9114 173.059 88.1393 171.555 89.6531 171.555C91.1676 171.555 92.3948 173.059 92.3948 174.914Z" fill="#E5E0C3"/>
<path d="M166.623 306.981L166.509 303.118C173.855 302.794 180.736 296.658 183.242 288.194C184.966 282.372 184.856 275.367 182.916 267.376C181.791 262.742 180.173 258.174 178.608 253.756C177.797 251.467 176.958 249.099 176.189 246.729C174.212 240.637 172.015 232.555 172.573 224.067C173.153 215.25 176.912 207.584 182.383 204.062L183.852 207.484C179.329 210.395 176.213 216.868 175.719 224.378C175.213 232.068 177.272 239.599 179.122 245.301C179.873 247.616 180.702 249.955 181.503 252.218C183.105 256.74 184.762 261.416 185.942 266.273C188.079 275.077 188.169 282.894 186.209 289.512C183.275 299.419 175.221 306.603 166.623 306.981Z" fill="#265161"/>
<path d="M223.491 151.499L192.752 200.22C186.649 209.892 175.256 211.685 167.353 204.209L164.26 201.271C162.903 199.988 162.139 198.101 162.039 196.153C161.95 194.499 162.335 192.806 163.225 191.399L166.842 185.662C168.779 182.593 172.396 182.021 174.908 184.394C176.644 186.041 179.15 185.647 180.494 183.52L207.206 141.184C208.544 139.051 208.222 135.981 206.486 134.335C203.98 131.962 203.513 127.532 205.451 124.463L209.068 118.726C209.952 117.326 211.189 116.445 212.508 116.128C214.08 115.749 215.771 116.167 217.135 117.458L220.234 120.395C228.13 127.873 229.594 141.827 223.491 151.499Z" fill="#E95F5C"/>
<path d="M213.789 143.938L184.319 190.657C178.979 199.123 169.423 201.288 162.039 196.154C161.95 194.5 162.335 192.807 163.225 191.399L166.842 185.663C168.779 182.594 172.396 182.022 174.908 184.395C176.644 186.042 179.15 185.648 180.494 183.521L207.206 141.185C208.544 139.052 208.222 135.982 206.486 134.336C203.98 131.963 203.513 127.532 205.451 124.463L209.068 118.727C209.952 117.327 211.189 116.446 212.508 116.129C218.435 123.582 219.135 135.472 213.789 143.938Z" fill="#C24E57"/>
<path d="M199.811 196.561C197.898 192.73 197.127 188.065 197.671 183.625C198.215 179.185 200.07 175.003 202.815 172.028C201.282 170.455 199.631 168.75 198.018 167.088C196.65 165.678 196.33 163.256 197.265 161.389C197.277 161.365 197.289 161.341 197.301 161.317C198.349 159.222 200.589 158.573 202.292 159.871L213.311 168.27C216.473 170.679 217.561 175.772 215.634 179.676C215.622 179.701 215.61 179.726 215.597 179.75C214.361 182.229 212.908 184.562 211.929 187.208C210.949 189.853 210.48 192.946 211.317 195.665C207.443 197.074 203.799 197.374 199.811 196.561Z" fill="#EC9270"/>
<path d="M197.11 170.511L190.163 164.093C188.814 162.847 188.546 160.497 189.563 158.845C190.58 157.193 192.498 156.864 193.847 158.11L200.795 164.528C202.143 165.774 202.412 168.124 201.395 169.776C200.377 171.428 198.459 171.757 197.11 170.511Z" fill="#EC9270"/>
<path d="M193.426 176.495L186.478 170.076C185.129 168.83 184.861 166.481 185.878 164.828C186.895 163.176 188.814 162.847 190.163 164.093L197.11 170.511C198.459 171.757 198.727 174.107 197.71 175.759C196.693 177.412 194.774 177.741 193.426 176.495Z" fill="#EC9270"/>
<path d="M189.741 182.478L182.794 176.06C181.445 174.814 181.177 172.464 182.194 170.812C183.211 169.16 185.129 168.83 186.478 170.076L193.426 176.495C194.774 177.741 195.043 180.09 194.026 181.743C193.009 183.395 191.09 183.724 189.741 182.478Z" fill="#EC9270"/>
<path d="M186.057 188.461L179.109 182.043C177.76 180.797 177.492 178.447 178.509 176.795C179.526 175.143 181.445 174.814 182.794 176.06L189.741 182.478C191.09 183.724 191.358 186.074 190.341 187.726C189.324 189.378 187.405 189.707 186.057 188.461Z" fill="#EC9270"/>
<path d="M213.388 210.547H192.679V314.999H213.388V210.547Z" fill="#265161"/>
<path d="M192.679 210.547V216.038H200.951C204.524 216.038 207.421 219.586 207.421 223.962V314.999H213.388V210.547H192.679Z" fill="#0C232B"/>
<path d="M214.336 191.828H191.731C189.915 191.828 188.443 193.63 188.443 195.855V207.385C188.443 209.609 189.915 211.411 191.731 211.411H214.336C216.152 211.411 217.624 209.609 217.624 207.385V195.855C217.624 193.63 216.152 191.828 214.336 191.828Z" fill="#F1EEFF"/>
<path d="M213.388 199.161C213.388 200.515 212.493 201.612 211.388 201.612C210.283 201.612 209.387 200.515 209.387 199.161C209.387 197.808 210.283 196.711 211.388 196.711C212.493 196.711 213.388 197.808 213.388 199.161Z" fill="#265161"/>
<path d="M194.18 131.726H168.974V148.011H194.18V131.726Z" fill="#FC9E4B"/>
<path d="M192.095 115.994H171.059V144.934H192.095V115.994Z" fill="#FCFBE9"/>
<path d="M168.974 131.726C168.164 132.597 167.641 133.859 167.641 135.283V150.719C167.641 152.143 168.163 153.406 168.974 154.276L181.577 143.001L168.974 131.726Z" fill="#FCC14B"/>
<path d="M194.179 131.726L181.576 143.001L194.179 154.276C194.989 153.405 195.511 152.143 195.511 150.719V135.283C195.512 133.859 194.99 132.597 194.179 131.726Z" fill="#FCC14B"/>
<path d="M168.974 154.277C169.656 155.01 170.54 155.469 171.519 155.469H191.634C192.613 155.469 193.497 155.01 194.18 154.277L181.577 143.002L168.974 154.277Z" fill="#FC9E4B"/>
<path d="M189.232 121.375H173.921V123.495H189.232V121.375Z" fill="#265161"/>
<path d="M189.232 126.105H173.921V128.225H189.232V126.105Z" fill="#265161"/>
<path d="M189.232 130.834H173.921V132.954H189.232V130.834Z" fill="#265161"/>
<path d="M254.899 210.547H227.26L222.331 214.759V170.656C222.331 166.614 225.006 163.337 228.306 163.337H254.899C258.199 163.337 260.874 166.613 260.874 170.656V203.228C260.874 207.27 258.199 210.547 254.899 210.547Z" fill="#FCC14B"/>
<path d="M241.602 192.795C236.919 192.795 233.109 188.128 233.109 182.393V179.151H250.095V182.393C250.095 188.128 246.285 192.795 241.602 192.795ZM234.372 180.696V182.392C234.372 187.276 237.615 191.248 241.602 191.248C245.589 191.248 248.833 187.276 248.833 182.392V180.696H234.372Z" fill="#265161"/>
<path d="M241.602 187.084C239.487 187.084 237.772 184.983 237.772 182.392V174.985C237.772 172.394 239.487 170.294 241.602 170.294C243.718 170.294 245.432 172.394 245.432 174.985V182.392C245.432 184.983 243.718 187.084 241.602 187.084Z" fill="#265161"/>
<path d="M242.234 192.022H240.971V200.746H242.234V192.022Z" fill="#265161"/>
<path d="M244.895 202.721H238.31C237.345 202.721 236.562 201.764 236.562 200.581C236.562 199.4 237.344 198.441 238.31 198.441H244.895C245.86 198.441 246.642 199.399 246.642 200.581C246.642 201.763 245.86 202.721 244.895 202.721Z" fill="#265161"/>
<path d="M51.5661 211.411H12.1808C11.7243 208.238 12.9787 204.775 15.3159 203.293C17.653 201.813 20.7498 202.412 22.6009 204.703C21.2205 202.401 21.4947 199.097 23.0209 196.938C24.547 194.778 27.3326 194.144 29.3905 195.488C29.141 192.563 30.5949 189.583 32.6016 187.968C34.6083 186.353 37.3543 186.237 39.4469 187.678C41.54 189.119 42.8852 192.054 42.8018 194.993C44.4991 194.78 46.4521 195.839 47.4224 197.558C48.3933 199.277 48.5316 201.649 47.7701 203.519C50.2746 203.97 51.4438 208.315 51.5661 211.411Z" fill="#BCE1E9"/>
<path d="M278.41 131.23H239.024C238.568 128.057 239.822 124.593 242.159 123.112C244.496 121.632 247.593 122.231 249.444 124.521C248.063 122.219 248.338 118.916 249.864 116.757C251.39 114.597 254.175 113.963 256.233 115.306C255.984 112.381 257.438 109.402 259.444 107.787C261.451 106.171 264.197 106.056 266.29 107.497C268.383 108.938 269.728 111.873 269.645 114.812C271.342 114.599 273.294 115.658 274.265 117.377C275.236 119.096 275.374 121.467 274.613 123.337C277.118 123.788 278.287 128.133 278.41 131.23Z" fill="#BCE1E9"/>
<path d="M199.706 85.7056L196.091 88.4752L200.328 89.3399L199.706 85.7056Z" fill="#FCC14B"/>
<path d="M224.221 112.07L219.632 124.32L220.779 124.965L225.368 112.714L224.221 112.07Z" fill="#FCC14B"/>
<path d="M220.601 109.855L216.012 122.106L217.16 122.751L221.749 110.5L220.601 109.855Z" fill="#FCC14B"/>
<path d="M205.348 96.9701C203.718 94.1241 200.455 92.7866 199.569 89.4845C199.084 87.6779 199.484 85.6141 200.428 84.1041C201.371 82.5941 202.802 81.6114 204.309 81.1507C206.879 80.3655 209.727 81.0819 211.837 83.0443C213.392 84.4915 214.509 86.5144 215.83 88.2771C218.469 91.8024 221.995 94.3178 225.801 95.3898C227.453 95.855 229.153 96.0563 230.778 96.6456C232.402 97.2357 233.997 98.2842 234.918 100.027C236.377 102.794 235.696 106.684 233.899 109.135C232.102 111.585 229.442 112.822 226.806 113.474C223.035 114.406 219.03 114.29 215.444 112.588C211.857 110.885 208.733 107.493 207.333 103.105C206.676 101.048 206.382 98.7782 205.348 96.9701Z" fill="#7BC4B3"/>
<path d="M217.683 90.4633C216.712 94.2164 216.485 98.2539 217.027 102.134C217.288 104.012 217.773 105.945 218.9 107.256C220 108.535 221.661 109.043 223.123 108.548C224.585 108.054 225.796 106.574 226.205 104.785C226.363 106.349 228.098 107.259 229.288 106.656C230.478 106.054 231.13 104.366 231.07 102.791C231.011 101.216 230.366 99.7563 229.579 98.5081C228.583 96.9277 227.336 95.5857 225.929 94.5795C223.46 92.8138 220.49 91.126 217.683 90.4633Z" fill="#32997E"/>
<path d="M232.512 101.023C231.903 96.1985 233.3 91.058 236.147 87.6408C237.254 86.3116 238.881 85.1874 240.298 85.9568C241.516 86.6172 242.043 88.4813 241.851 90.0957C241.66 91.7101 240.916 93.1338 240.19 94.5016C241.448 93.677 242.939 93.0506 244.366 93.0355C245.793 93.0203 247.337 94.1339 247.524 95.8663C247.67 97.2137 246.949 98.5315 246 99.2358C245.05 99.9394 243.913 100.14 242.806 100.237C243.841 100.496 245.048 102.027 245.356 103.265C245.664 104.503 245.377 105.935 244.636 106.857C243.75 107.959 242.387 108.253 241.125 108.2C237.395 108.043 233.081 105.542 232.512 101.023Z" fill="#7BC4B3"/>
<path d="M207.152 85.2321C207.152 86.1475 206.546 86.8896 205.799 86.8896C205.051 86.8896 204.445 86.1475 204.445 85.2321C204.445 84.3167 205.051 83.5746 205.799 83.5746C206.546 83.5746 207.152 84.3167 207.152 85.2321Z" fill="#265161"/>
<path d="M56.2644 249.217C52.839 248.468 49.9003 245.836 47.2685 243.048C44.6368 240.26 42.1224 237.199 39.0151 235.281C35.9078 233.364 31.9802 232.782 29.0366 235.055C25.4852 237.797 24.5056 243.847 25.5525 248.826C26.6 253.806 29.2163 258.025 31.6072 262.252C33.998 266.48 36.2851 271.106 36.5069 276.242C36.7447 281.758 34.5533 287.225 35.2975 292.674C36.1845 299.165 41.1231 303.871 46.3026 305.62C51.482 307.369 56.9629 306.8 62.3345 306.637C67.7061 306.475 73.3376 306.815 77.9897 310.108C79.3071 295.859 78.9804 281.385 77.0237 267.247C76.5395 263.751 75.9428 260.225 74.6334 257.063C73.3241 253.9 71.2117 251.098 68.4787 249.929C64.6099 248.273 60.2988 250.099 56.2644 249.217Z" fill="#FCC14B"/>
<path d="M74.9478 303.867C68.2934 280.045 53.5332 259.794 34.9603 249.005C52.327 263.828 66.1329 284.284 75.4944 307.537C75.4129 306.146 75.3172 305.188 74.9478 303.867Z" fill="#174555"/>
<path d="M78.0323 305.379C78.036 287.62 72.1932 269.959 62.0967 257.212C70.6658 270.898 75.6235 288.426 75.5575 305.674C76.3962 305.62 77.1942 305.435 78.0323 305.379Z" fill="#174555"/>
<path d="M78.931 304.935C68.3151 292.838 53.7772 286.053 39.2807 286.429C53.2991 288.063 67.1545 295.552 77.4215 307.356C77.9607 306.566 78.3924 305.724 78.931 304.935Z" fill="#174555"/>
<path d="M117.604 224.491H106.678V241.497H117.604V224.491Z" fill="#E95F5C"/>
<path d="M138.189 224.491H127.262V241.497H138.189V224.491Z" fill="#E95F5C"/>
<path d="M117.604 232.813H106.678V241.497H117.604V232.813Z" fill="#C24E57"/>
<path d="M138.189 232.813H127.262V241.497H138.189V232.813Z" fill="#C24E57"/>
<path d="M156.756 254.233V254.124C156.756 244.762 150.56 237.173 142.917 237.173H101.949C94.3057 237.173 88.1096 244.762 88.1096 254.124V254.233C88.1096 258.445 86.0313 262.156 82.9122 263.931C76.9972 267.296 72.8954 274.634 72.8954 283.149V307.505C72.8954 311.644 75.6347 314.999 79.0137 314.999H165.851C169.23 314.999 171.969 311.644 171.969 307.505V283.149C171.969 274.634 167.867 267.297 161.952 263.931C158.834 262.157 156.756 258.446 156.756 254.233Z" fill="#E95F5C"/>
<path d="M161.88 263.889C158.781 262.148 156.756 258.41 156.756 254.233V254.124C156.756 254.099 156.755 254.074 156.754 254.049H96.4373C94.4621 254.049 92.8606 256.011 92.8606 258.43C92.8606 260.85 94.4621 262.811 96.4373 262.811H143.544C147.063 262.811 150.304 265.151 152.01 268.922C155.583 276.823 150.918 286.52 143.544 286.52H72.8962V307.506C72.8962 311.645 75.6354 315 79.0145 315H165.851C169.23 315 171.97 311.645 171.97 307.506V283.149C171.97 274.598 167.835 267.235 161.88 263.889Z" fill="#C24E57"/>
<path d="M130.077 291.756C138.024 286.441 140.95 274.241 136.61 264.506C132.271 254.772 122.311 251.189 114.363 256.504C106.415 261.819 103.49 274.019 107.829 283.753C112.169 293.488 122.129 297.071 130.077 291.756Z" fill="#174555"/>
<path d="M114.806 269.739C114.11 271.505 112.371 272.249 110.929 271.397C109.487 270.544 108.879 268.414 109.575 266.647C110.271 264.879 112.01 264.137 113.453 264.988C114.895 265.842 115.502 267.972 114.806 269.739Z" fill="#E95F5C"/>
<path d="M134.875 281.598C134.179 283.366 132.44 284.109 130.997 283.257C129.555 282.404 128.948 280.274 129.644 278.507C130.34 276.741 132.078 275.996 133.521 276.849C134.964 277.701 135.571 279.832 134.875 281.598Z" fill="#E95F5C"/>
<path d="M129.682 263.378C128.986 265.144 127.247 265.889 125.804 265.036C124.362 264.183 123.755 262.053 124.451 260.286C125.147 258.519 126.886 257.776 128.329 258.628C129.771 259.48 130.378 261.611 129.682 263.378Z" fill="#E95F5C"/>
<path d="M119.999 287.96C119.303 289.726 117.565 290.47 116.122 289.618C114.68 288.766 114.072 286.635 114.767 284.869C115.463 283.102 117.203 282.359 118.645 283.211C120.088 284.062 120.695 286.193 119.999 287.96Z" fill="#E95F5C"/>
<path d="M114.322 280.166C113.985 281.023 113.396 281.666 112.663 281.979C111.152 282.625 109.492 281.645 108.964 279.793C108.708 278.896 108.753 277.931 109.09 277.074C109.427 276.219 110.016 275.575 110.748 275.262C112.26 274.616 113.92 275.596 114.447 277.447C114.704 278.345 114.659 279.311 114.322 280.166Z" fill="#E95F5C"/>
<path d="M135.36 271.171C135.023 272.027 134.434 272.671 133.701 272.983C132.19 273.629 130.529 272.649 130.002 270.798C129.746 269.9 129.791 268.935 130.128 268.079C130.465 267.223 131.054 266.579 131.786 266.266C133.298 265.62 134.958 266.601 135.485 268.452C135.742 269.35 135.696 270.315 135.36 271.171Z" fill="#E95F5C"/>
<path d="M121.168 262.785C120.831 263.641 120.242 264.285 119.509 264.598C117.998 265.244 116.338 264.264 115.81 262.412C115.555 261.515 115.599 260.55 115.936 259.694C116.274 258.838 116.862 258.194 117.595 257.881C119.106 257.235 120.766 258.215 121.294 260.067C121.551 260.963 121.506 261.929 121.168 262.785Z" fill="#E95F5C"/>
<path d="M128.513 288.552C128.176 289.409 127.588 290.052 126.854 290.365C125.343 291.011 123.683 290.031 123.155 288.179C122.9 287.282 122.944 286.317 123.281 285.46C123.619 284.605 124.207 283.961 124.94 283.648C126.451 283.002 128.111 283.982 128.639 285.833C128.895 286.731 128.85 287.697 128.513 288.552Z" fill="#E95F5C"/>
<path d="M139.04 282.232L131.294 279.482L137.873 285.197L139.04 282.232Z" fill="#174555"/>
<path d="M67.6351 16.5785C67.6351 15.3275 67.8661 14.1054 68.328 12.9122C68.8091 11.6997 69.5019 10.6027 70.4065 9.62116C71.311 8.63963 72.408 7.86018 73.6975 7.28281C75.0062 6.6862 76.4785 6.38789 78.1144 6.38789C80.0774 6.38789 81.7903 6.80167 83.253 7.62924C84.7156 8.43755 85.803 9.51531 86.5151 10.8625L82.2137 13.9226C81.9635 13.249 81.5978 12.7293 81.1167 12.3637C80.6548 11.998 80.1448 11.7478 79.5867 11.6131C79.0478 11.4591 78.5185 11.3821 77.9989 11.3821C77.1906 11.3821 76.4881 11.5457 75.8915 11.8729C75.3141 12.1808 74.833 12.5946 74.4481 13.1143C74.0824 13.6339 73.8033 14.2113 73.6109 14.8464C73.4377 15.4815 73.3511 16.1166 73.3511 16.7517C73.3511 17.4638 73.4569 18.147 73.6686 18.8013C73.8803 19.4557 74.1883 20.0427 74.5924 20.5623C74.9966 21.0627 75.4873 21.4572 76.0647 21.7459C76.6613 22.0346 77.3253 22.179 78.0566 22.179C78.5763 22.179 79.1055 22.102 79.6444 21.948C80.1833 21.7748 80.674 21.5054 81.1167 21.1397C81.5593 20.774 81.8961 20.2833 82.1271 19.6674L86.7172 22.4099C86.313 23.4107 85.6394 24.2671 84.6964 24.9792C83.7534 25.6913 82.6852 26.2398 81.492 26.6247C80.2988 26.9904 79.1151 27.1732 77.9412 27.1732C76.4208 27.1732 75.0254 26.8749 73.7552 26.2783C72.5043 25.6624 71.4169 24.8541 70.4931 23.8533C69.5885 22.8333 68.8861 21.6978 68.3857 20.4469C67.8853 19.1766 67.6351 17.8872 67.6351 16.5785ZM97.6486 27.1732C96.0897 27.1732 94.6752 26.8845 93.405 26.3072C92.1348 25.7105 91.0378 24.9215 90.114 23.9399C89.2094 22.9392 88.507 21.8229 88.0066 20.5912C87.5254 19.3402 87.2849 18.0508 87.2849 16.7228C87.2849 15.3564 87.5447 14.0573 88.0643 12.8256C88.5839 11.5938 89.3057 10.4968 90.2294 9.53456C91.1725 8.55303 92.2791 7.7832 93.5493 7.22508C94.8388 6.66695 96.2437 6.38789 97.7641 6.38789C99.323 6.38789 100.738 6.6862 102.008 7.28281C103.278 7.86018 104.365 8.64926 105.27 9.65003C106.174 10.6508 106.867 11.7767 107.348 13.0276C107.849 14.2594 108.099 15.5296 108.099 16.8383C108.099 18.1855 107.839 19.4749 107.32 20.7067C106.819 21.9384 106.097 23.045 105.154 24.0265C104.231 24.9888 103.134 25.7587 101.863 26.336C100.593 26.8941 99.1883 27.1732 97.6486 27.1732ZM93.0008 16.7806C93.0008 17.4734 93.097 18.147 93.2895 18.8013C93.482 19.4365 93.7706 20.0138 94.1556 20.5335C94.5405 21.0338 95.0216 21.438 95.599 21.7459C96.1956 22.0346 96.8981 22.179 97.7064 22.179C98.5147 22.179 99.2172 22.025 99.8138 21.7171C100.41 21.4091 100.892 20.9954 101.257 20.4757C101.642 19.9368 101.921 19.3498 102.094 18.7147C102.287 18.0604 102.383 17.3964 102.383 16.7228C102.383 16.03 102.287 15.366 102.094 14.7309C101.902 14.0958 101.613 13.528 101.228 13.0276C100.843 12.508 100.353 12.1039 99.756 11.8152C99.1594 11.5265 98.4666 11.3821 97.6775 11.3821C96.8692 11.3821 96.1667 11.5361 95.5701 11.844C94.9927 12.152 94.5116 12.5657 94.1267 13.0854C93.7418 13.5858 93.4531 14.1631 93.2606 14.8175C93.0874 15.4526 93.0008 16.107 93.0008 16.7806ZM116.114 16.9249V27H110.485V6.50336H114.873L123.101 16.9249V6.50336H128.73V27H124.255L116.114 16.9249ZM148.213 11.411H142.324V27H136.695V11.411H130.777V6.50336H148.213V11.411ZM153.109 6.50336H159.403L165.927 27H160.211L158.97 22.9873H153.513L152.301 27H146.556L153.109 6.50336ZM158.075 19.2344L156.256 12.0172L154.351 19.2344H158.075ZM165.658 16.5785C165.658 15.3275 165.889 14.1054 166.351 12.9122C166.832 11.6997 167.525 10.6027 168.43 9.62116C169.334 8.63963 170.431 7.86018 171.721 7.28281C173.029 6.6862 174.502 6.38789 176.138 6.38789C178.101 6.38789 179.814 6.80167 181.276 7.62924C182.739 8.43755 183.826 9.51531 184.538 10.8625L180.237 13.9226C179.987 13.249 179.621 12.7293 179.14 12.3637C178.678 11.998 178.168 11.7478 177.61 11.6131C177.071 11.4591 176.542 11.3821 176.022 11.3821C175.214 11.3821 174.511 11.5457 173.915 11.8729C173.337 12.1808 172.856 12.5946 172.471 13.1143C172.106 13.6339 171.827 14.2113 171.634 14.8464C171.461 15.4815 171.374 16.1166 171.374 16.7517C171.374 17.4638 171.48 18.147 171.692 18.8013C171.904 19.4557 172.211 20.0427 172.616 20.5623C173.02 21.0627 173.511 21.4572 174.088 21.7459C174.685 22.0346 175.349 22.179 176.08 22.179C176.599 22.179 177.129 22.102 177.668 21.948C178.206 21.7748 178.697 21.5054 179.14 21.1397C179.583 20.774 179.919 20.2833 180.15 19.6674L184.74 22.4099C184.336 23.4107 183.663 24.2671 182.72 24.9792C181.777 25.6913 180.708 26.2398 179.515 26.6247C178.322 26.9904 177.138 27.1732 175.964 27.1732C174.444 27.1732 173.049 26.8749 171.778 26.2783C170.527 25.6624 169.44 24.8541 168.516 23.8533C167.612 22.8333 166.909 21.6978 166.409 20.4469C165.909 19.1766 165.658 17.8872 165.658 16.5785ZM202.708 11.411H196.819V27H191.19V11.411H185.272V6.50336H202.708V11.411ZM219.374 27.1732C217.739 27.1732 216.334 26.9038 215.16 26.3649C213.986 25.826 213.023 25.0851 212.273 24.142C211.542 23.199 211.003 22.1212 210.656 20.9087C210.31 19.677 210.137 18.3876 210.137 17.0404V6.50336H215.766V17.0404C215.766 17.714 215.833 18.3587 215.968 18.9746C216.103 19.5904 216.314 20.1389 216.603 20.6201C216.892 21.1012 217.257 21.4861 217.7 21.7748C218.162 22.0442 218.72 22.179 219.374 22.179C220.048 22.179 220.616 22.0442 221.078 21.7748C221.54 21.4861 221.905 21.1012 222.175 20.6201C222.463 20.1197 222.675 19.5615 222.81 18.9457C222.945 18.3298 223.012 17.6947 223.012 17.0404V6.50336H228.641V17.0404C228.641 18.4645 228.449 19.7925 228.064 21.0242C227.698 22.2559 227.14 23.3337 226.39 24.2575C225.639 25.1813 224.677 25.903 223.503 26.4226C222.348 26.923 220.972 27.1732 219.374 27.1732ZM244.293 13.2009C244.293 13.2009 244.129 13.1046 243.802 12.9122C243.475 12.7197 243.042 12.508 242.503 12.2771C241.964 12.0269 241.377 11.8055 240.742 11.6131C240.107 11.4206 239.481 11.3244 238.865 11.3244C238.384 11.3244 237.99 11.4014 237.682 11.5554C237.374 11.7093 237.22 11.9691 237.22 12.3348C237.22 12.6812 237.374 12.9603 237.682 13.172C237.99 13.3837 238.423 13.5761 238.981 13.7494C239.558 13.9226 240.242 14.1343 241.031 14.3845C242.301 14.7694 243.398 15.212 244.322 15.7124C245.245 16.2128 245.957 16.8575 246.458 17.6466C246.958 18.4164 247.208 19.4461 247.208 20.7355C247.208 21.9673 246.987 23.0065 246.544 23.8533C246.102 24.6809 245.505 25.3449 244.755 25.8453C244.004 26.3456 243.167 26.7113 242.243 26.9423C241.319 27.154 240.376 27.2598 239.414 27.2598C238.432 27.2598 237.403 27.1636 236.325 26.9711C235.267 26.7594 234.237 26.4804 233.236 26.1339C232.235 25.7683 231.321 25.3449 230.494 24.8637L232.919 19.9272C232.919 19.9272 233.111 20.0427 233.496 20.2736C233.881 20.5046 234.391 20.7644 235.026 21.0531C235.661 21.3418 236.364 21.6016 237.133 21.8325C237.922 22.0635 238.711 22.179 239.501 22.179C240.116 22.179 240.54 22.102 240.771 21.948C241.021 21.7748 241.146 21.5535 241.146 21.284C241.146 20.8799 240.934 20.5719 240.511 20.3602C240.088 20.1293 239.529 19.9176 238.837 19.7251C238.163 19.5134 237.412 19.2729 236.585 19.0034C235.392 18.5993 234.41 18.147 233.64 17.6466C232.87 17.127 232.303 16.5207 231.937 15.8279C231.571 15.1158 231.389 14.2594 231.389 13.2586C231.389 11.7382 231.745 10.468 232.457 9.44795C233.169 8.42793 234.102 7.6581 235.257 7.13847C236.431 6.59959 237.691 6.33015 239.039 6.33015C240.039 6.33015 241.002 6.45525 241.926 6.70544C242.869 6.93639 243.744 7.22508 244.553 7.5715C245.38 7.91792 246.102 8.2451 246.718 8.55303L244.293 13.2009Z" fill="black"/>
</svg>
