<svg width="387" height="352" viewBox="0 0 387 352" fill="none" xmlns="http://www.w3.org/2000/svg">
<path d="M297.938 117.849C314.562 117.849 328.039 102.295 328.039 83.1085C328.039 63.9221 314.562 48.3685 297.938 48.3685C281.313 48.3685 267.837 63.9221 267.837 83.1085C267.837 102.295 281.313 117.849 297.938 117.849Z" fill="#F5F5F5"/>
<path d="M308.886 82.4432C307.965 84.7402 308.441 87.2549 309.948 88.0604C311.456 88.8651 313.425 87.6559 314.345 85.359C315.266 83.062 314.79 80.5473 313.283 79.7425C311.776 78.9371 309.807 80.1462 308.886 82.4432Z" fill="#E0E0E0"/>
<path d="M286.18 70.3194C285.259 72.6164 285.735 75.1311 287.242 75.9359C288.75 76.7406 290.718 75.5314 291.639 73.2345C292.56 70.9375 292.084 68.4228 290.577 67.6173C289.07 66.8126 287.101 68.0224 286.18 70.3194Z" fill="#E0E0E0"/>
<path d="M288.202 78.8663C285.642 85.2518 287.787 92.6813 292.992 95.4609C298.198 98.2405 304.493 95.3173 307.053 88.9325L288.202 78.8663Z" fill="#E0E0E0"/>
<path d="M288.768 91.1439C288.768 91.1439 291.727 89.3989 294.771 91.0246C297.816 92.6503 298.59 96.3883 298.59 96.3883C298.59 96.3883 292.617 97.4425 288.768 91.1439Z" fill="#EBEBEB"/>
<path d="M132.713 113.443H68.6114C66.255 113.443 64.3447 111.239 64.3447 108.519V88.1689C64.3447 85.4493 66.255 83.2446 68.6114 83.2446H132.713C135.069 83.2446 136.98 85.4493 136.98 88.1689V108.519C136.98 111.239 135.069 113.443 132.713 113.443Z" fill="#F5F5F5"/>
<path d="M76.7331 103.7C79.3705 103.7 81.5085 101.232 81.5085 98.1885C81.5085 95.1447 79.3705 92.6772 76.7331 92.6772C74.0958 92.6772 71.9578 95.1447 71.9578 98.1885C71.9578 101.232 74.0958 103.7 76.7331 103.7Z" fill="#E0E0E0"/>
<path d="M122.604 95.6267H84.8279V98.1893H122.604V95.6267Z" fill="#E0E0E0"/>
<path d="M100.071 100.149H84.8279V102.711H100.071V100.149Z" fill="#E0E0E0"/>
<path d="M311.052 205.721H246.951C244.594 205.721 242.684 203.516 242.684 200.796V180.446C242.684 177.727 244.594 175.522 246.951 175.522H311.052C313.409 175.522 315.319 177.727 315.319 180.446V200.796C315.319 203.516 313.409 205.721 311.052 205.721Z" fill="#F5F5F5"/>
<path d="M255.072 195.977C257.71 195.977 259.848 193.51 259.848 190.466C259.848 187.422 257.71 184.955 255.072 184.955C252.435 184.955 250.297 187.422 250.297 190.466C250.297 193.51 252.435 195.977 255.072 195.977Z" fill="#E0E0E0"/>
<path d="M300.943 187.903H263.167V190.466H300.943V187.903Z" fill="#E0E0E0"/>
<path d="M278.411 192.425H263.167V194.988H278.411V192.425Z" fill="#E0E0E0"/>
<path d="M69.9026 192.03L73.5134 194.176C73.9193 194.418 74.4029 194.413 74.8052 194.163L78.3846 191.947C79.3984 191.32 80.5956 192.306 80.4105 193.616L79.7576 198.243C79.684 198.764 79.8376 199.293 80.1669 199.657L83.0992 202.901C83.9297 203.82 83.487 205.439 82.3499 205.641L78.3355 206.354C77.8841 206.434 77.4957 206.766 77.2972 207.24L75.5306 211.461C75.0301 212.657 73.559 212.671 73.0416 211.485L71.2131 207.299C71.0075 206.828 70.6145 206.504 70.1619 206.433L66.1375 205.798C64.9975 205.618 64.5315 204.008 65.3485 203.073L68.2329 199.773C68.5576 199.402 68.703 198.87 68.6218 198.352L67.9018 193.738C67.6968 192.431 68.8794 191.422 69.9026 192.03Z" fill="#E0E0E0"/>
<path d="M243.332 111.46L245.048 113.376C245.242 113.591 245.514 113.683 245.777 113.622L248.118 113.076C248.781 112.922 249.31 113.711 249.013 114.412L247.964 116.889C247.846 117.167 247.855 117.495 247.987 117.765L249.16 120.165C249.492 120.845 249.004 121.669 248.335 121.56L245.97 121.175C245.704 121.132 245.437 121.242 245.255 121.47L243.64 123.499C243.182 124.074 242.352 123.794 242.235 123.025L241.822 120.311C241.776 120.005 241.602 119.746 241.358 119.617L239.187 118.471C238.572 118.146 238.546 117.148 239.144 116.782L241.253 115.49C241.49 115.345 241.65 115.074 241.681 114.766L241.954 112.028C242.032 111.254 242.846 110.918 243.332 111.46Z" fill="#E0E0E0"/>
<path d="M89.0474 42.2924L91.659 45.2075C91.9528 45.535 92.3674 45.6752 92.768 45.5822L96.3293 44.7518C97.3378 44.5166 98.1426 45.7184 97.6906 46.7853L96.0957 50.553C95.9164 50.9769 95.9292 51.475 96.1295 51.8861L97.9142 55.5385C98.42 56.5731 97.6783 57.8274 96.6592 57.661L93.0618 57.0746C92.6571 57.0085 92.25 57.1764 91.9738 57.5241L89.5157 60.6117C88.8196 61.4866 87.5564 61.0599 87.3783 59.8899L86.7499 55.7596C86.6792 55.2952 86.4153 54.9003 86.0433 54.7041L82.739 52.9598C81.8034 52.4658 81.7643 50.9479 82.6736 50.3912L85.8827 48.4251C86.2436 48.2041 86.4871 47.7923 86.5338 47.3238L86.9502 43.1585C87.0688 41.9783 88.308 41.4668 89.0474 42.2924Z" fill="#E0E0E0"/>
<path d="M314.73 310.549C314.73 310.646 258.656 310.724 189.502 310.724C120.324 310.724 64.2625 310.645 64.2625 310.549C64.2625 310.452 120.324 310.373 189.502 310.373C258.656 310.373 314.73 310.452 314.73 310.549Z" fill="#263238"/>
<path d="M208.546 44.1507L125.63 44.0961C115.652 44.09 107.56 53.1398 107.558 64.3073L107.517 296.965C107.515 308.126 115.596 317.178 125.568 317.183L208.484 317.239C218.462 317.245 226.554 308.196 226.556 297.027L226.596 64.3693C226.599 53.2086 218.519 44.1567 208.546 44.1507Z" fill="#263238"/>
<path d="M208.458 52.3802L192.383 52.3694L145.433 52.3384L139.779 52.3344L125.709 52.325C118.721 52.3209 113.053 58.7273 113.052 66.6333L113.012 296.18C113.011 304.082 118.67 310.49 125.654 310.495L208.405 310.549C215.392 310.554 221.059 304.148 221.061 296.242L221.101 66.694C221.102 58.792 215.443 52.3849 208.458 52.3802Z" fill="white"/>
<path d="M208.459 52.3802C208.459 52.3802 208.599 52.3822 208.876 52.3951C209.016 52.4018 209.189 52.4106 209.394 52.4207C209.601 52.4247 209.841 52.4436 210.112 52.4995C210.383 52.546 210.688 52.5973 211.025 52.6552C211.356 52.7503 211.719 52.8547 212.113 52.968C212.503 53.1007 212.912 53.2881 213.358 53.4654C213.782 53.7006 214.253 53.9176 214.716 54.2283C215.658 54.8188 216.626 55.6552 217.57 56.7248C218.513 57.7958 219.369 59.1775 220.028 60.8201C220.683 62.4626 221.112 64.3909 221.143 66.4796C221.148 68.5576 221.153 70.7703 221.158 73.1138C221.166 91.8631 221.178 118.988 221.193 152.506C221.196 186.026 221.2 225.937 221.205 270.253C221.205 275.792 221.205 281.401 221.205 287.074C221.205 289.911 221.205 292.764 221.205 295.633C221.217 296.346 221.167 297.079 221.128 297.803C221.03 298.522 220.953 299.246 220.766 299.946C220.438 301.352 219.937 302.718 219.232 303.94C217.87 306.422 215.813 308.378 213.455 309.546C212.265 310.105 211.009 310.473 209.727 310.644C208.433 310.753 207.161 310.712 205.878 310.719C200.75 310.716 195.573 310.714 190.35 310.711C169.457 310.698 147.825 310.685 125.669 310.672C122.873 310.638 120.066 309.633 117.859 307.652C116.75 306.68 115.778 305.506 114.992 304.183C114.206 302.858 113.642 301.371 113.285 299.829C113.086 299.063 113.001 298.265 112.917 297.476L112.864 296.281L112.86 295.1C112.861 293.526 112.861 291.956 112.861 290.387C112.862 287.251 112.862 284.126 112.863 281.012C112.866 268.556 112.869 256.283 112.872 244.224C112.879 220.106 112.886 196.841 112.893 174.68C112.902 152.518 112.91 131.459 112.918 111.75C112.923 101.895 112.927 92.3781 112.931 83.2306C112.934 78.6568 112.936 74.1747 112.938 69.789C112.941 68.6924 112.943 67.6012 112.945 66.5167C112.974 65.4235 113.067 64.3356 113.301 63.2869C113.746 61.1847 114.607 59.2341 115.764 57.5983C118.085 54.3072 121.603 52.4133 125.074 52.2461C128.536 52.178 131.894 52.2346 135.167 52.2232C141.708 52.2326 147.876 52.2414 153.644 52.2495C165.179 52.269 175.115 52.2852 183.236 52.2987C191.355 52.3182 197.66 52.3337 201.938 52.3438C204.073 52.3526 205.703 52.36 206.801 52.3647C207.897 52.3674 208.459 52.3802 208.459 52.3802C208.459 52.3802 207.897 52.3917 206.802 52.3971C205.703 52.4004 204.074 52.4052 201.938 52.4112C197.66 52.4159 191.356 52.4227 183.237 52.4321C175.115 52.4348 165.179 52.4382 153.644 52.4422C147.876 52.4422 141.707 52.4429 135.167 52.4436C131.899 52.4598 128.526 52.4079 125.084 52.4793C121.667 52.6478 118.209 54.5155 115.93 57.7534C114.794 59.3629 113.95 61.2804 113.515 63.3449C113.038 65.4086 113.188 67.5958 113.163 69.787C113.164 74.1727 113.165 78.6548 113.166 83.2285C113.167 92.3767 113.168 101.894 113.17 111.747C113.171 131.457 113.171 152.516 113.173 174.678C113.171 196.839 113.17 220.104 113.17 244.222C113.168 256.281 113.167 268.554 113.166 281.01C113.165 284.124 113.165 287.249 113.164 290.385C113.164 291.954 113.164 293.524 113.164 295.098L113.168 296.277L113.22 297.443C113.302 298.213 113.383 298.991 113.578 299.738C113.926 301.241 114.477 302.692 115.243 303.985C116.011 305.275 116.96 306.422 118.042 307.371C120.197 309.306 122.937 310.285 125.669 310.32C147.825 310.336 169.457 310.351 190.35 310.367C195.573 310.371 200.75 310.375 205.878 310.379C207.159 310.373 208.445 310.412 209.698 310.306C210.952 310.139 212.179 309.78 213.342 309.235C215.647 308.094 217.657 306.183 218.988 303.759C219.677 302.565 220.166 301.231 220.487 299.859C220.67 299.176 220.745 298.468 220.841 297.766C220.879 297.056 220.929 296.354 220.917 295.633C220.918 292.764 220.919 289.911 220.92 287.074C220.922 281.401 220.923 275.792 220.926 270.253C220.946 225.937 220.964 186.025 220.979 152.506C221.005 118.988 221.026 91.8631 221.041 73.1138C221.04 70.771 221.04 68.5589 221.039 66.4817C221.013 64.4111 220.592 62.4963 219.947 60.8639C219.298 59.2314 218.451 57.8551 217.516 56.7868C216.582 55.7199 215.623 54.8828 214.687 54.291C214.227 53.9796 213.76 53.7613 213.338 53.524C212.895 53.3447 212.489 53.1547 212.102 53.0199C211.709 52.9039 211.348 52.7968 211.019 52.6997C210.683 52.639 210.38 52.5844 210.11 52.5359C209.84 52.4773 209.601 52.4557 209.394 52.449C209.189 52.4355 209.016 52.424 208.877 52.4146C208.599 52.3944 208.459 52.3802 208.459 52.3802Z" fill="#263238"/>
<path d="M108.966 106.928H106.068C105.637 106.928 105.288 106.525 105.288 106.028V77.5986C105.288 77.1012 105.637 76.6981 106.068 76.6981H108.966C109.397 76.6981 109.746 77.1012 109.746 77.5986V106.027C109.746 106.525 109.397 106.928 108.966 106.928Z" fill="#263238"/>
<path d="M108.966 142.631H106.068C105.637 142.631 105.288 142.228 105.288 141.73V113.302C105.288 112.804 105.637 112.401 106.068 112.401H108.966C109.397 112.401 109.746 112.804 109.746 113.302V141.73C109.746 142.228 109.397 142.631 108.966 142.631Z" fill="#263238"/>
<path d="M228.046 153.623H225.148C224.717 153.623 224.368 153.22 224.368 152.723V102.309C224.368 101.811 224.717 101.408 225.148 101.408H228.046C228.477 101.408 228.826 101.811 228.826 102.309V152.723C228.826 153.22 228.477 153.623 228.046 153.623Z" fill="#263238"/>
<path d="M83.7131 200.579C89.0708 203.782 93.1786 209.296 96.1325 215.368C99.0863 221.44 100.99 228.102 102.876 234.717L104.526 268.829C98.2927 256.59 93.289 242.202 91.9376 228.091C93.3205 227.949 94.7028 227.807 96.0858 227.665C93.3042 227.175 90.9699 224.849 89.4842 222.091C87.9991 219.333 87.2341 216.153 86.4877 213.022C88.1749 213.311 89.8615 213.601 91.5487 213.89C87.5856 210.838 84.7124 205.957 83.7131 200.579Z" fill="#455A64"/>
<g opacity="0.4">
<path d="M83.7131 200.579C89.0708 203.782 93.1786 209.296 96.1325 215.368C99.0863 221.44 100.99 228.102 102.876 234.717L104.526 268.829C98.2927 256.59 93.289 242.202 91.9376 228.091C93.3205 227.949 94.7028 227.807 96.0858 227.665C93.3042 227.175 90.9699 224.849 89.4842 222.091C87.9991 219.333 87.2341 216.153 86.4877 213.022C88.1749 213.311 89.8615 213.601 91.5487 213.89C87.5856 210.838 84.7124 205.957 83.7131 200.579Z" fill="black"/>
</g>
<path d="M105.448 276.822C105.448 276.822 118.978 258.132 118.822 240.289H113.357C113.357 240.289 119.294 235.784 118.824 233.26C118.354 230.737 118.198 221.185 118.198 221.185L113.2 222.627C113.2 222.627 116.948 220.464 117.417 217.04C117.885 213.615 116.324 197.755 116.324 197.755C116.324 197.755 110.233 205.144 108.359 212.714C106.485 220.284 101.567 229.114 103.011 252.183C104.456 275.253 105.448 276.822 105.448 276.822Z" fill="#455A64"/>
<path d="M98.5893 278.586C98.5893 278.586 83.9303 267.316 80.6733 252.932L85.0673 251.551C85.0673 251.551 79.4399 249.428 79.3395 247.281C79.2384 245.133 77.5536 237.415 77.5536 237.415L81.8442 237.312C81.8442 237.312 78.4214 236.52 77.3953 233.885C76.3692 231.25 74.6184 218.105 74.6184 218.105C74.6184 218.105 80.9157 222.508 83.8573 228.12C86.7989 233.733 92.4275 239.59 95.6395 258.502C98.8521 277.414 98.5893 278.586 98.5893 278.586Z" fill="#455A64"/>
<path d="M112.628 214.052C112.624 214.051 112.608 214.117 112.58 214.246C112.55 214.39 112.511 214.58 112.462 214.821C112.361 215.345 112.217 216.089 112.034 217.039C111.846 218.002 111.628 219.183 111.392 220.558C111.151 221.932 110.871 223.495 110.596 225.232C110.017 228.697 109.406 232.84 108.777 237.45C108.167 242.063 107.557 247.145 107.016 252.493C106.486 257.846 106.074 262.955 105.756 267.608C105.457 272.262 105.233 276.457 105.112 279.984C105.036 281.746 105 283.342 104.963 284.743C104.921 286.144 104.9 287.351 104.892 288.337C104.883 289.311 104.876 290.073 104.871 290.61C104.871 290.858 104.871 291.053 104.871 291.201C104.873 291.334 104.876 291.402 104.88 291.402C104.884 291.402 104.89 291.334 104.897 291.201C104.902 291.054 104.911 290.859 104.92 290.611C104.936 290.075 104.959 289.313 104.988 288.341C105.011 287.355 105.046 286.149 105.101 284.749C105.152 283.349 105.2 281.755 105.287 279.994C105.43 276.47 105.672 272.279 105.983 267.63C106.313 262.981 106.731 257.875 107.262 252.527C107.803 247.182 108.405 242.102 109.001 237.49C109.618 232.882 110.211 228.738 110.767 225.269C111.031 223.532 111.299 221.967 111.527 220.59C111.75 219.213 111.954 218.029 112.127 217.063C112.291 216.108 112.42 215.361 112.51 214.834C112.549 214.59 112.58 214.398 112.604 214.253C112.624 214.121 112.632 214.053 112.628 214.052Z" fill="#263238"/>
<path d="M107.325 288.267C107.325 288.267 119.707 272.053 123.552 262.252L120.649 260.82C122.753 261.22 124.908 260.177 126.539 258.593C128.171 257.008 129.368 254.924 130.543 252.87L126.72 252.124C130.196 250.998 133.26 248.259 135.073 244.656C130.561 245.512 126.48 248.373 123.116 251.947C120.392 254.842 118.085 258.202 115.87 261.636C114.79 263.311 113.844 265.096 113.057 266.976C110.977 271.94 107.318 282.313 107.325 288.267Z" fill="#455A64"/>
<path d="M80.4789 227.543C80.4754 227.545 80.4947 227.601 80.5362 227.708C80.5846 227.828 80.6477 227.983 80.7265 228.179C80.9064 228.607 81.1587 229.21 81.4811 229.978C82.1451 231.534 83.0859 233.798 84.2241 236.608C85.3658 239.416 86.6792 242.784 88.0914 246.547C89.4906 250.316 90.9816 254.485 92.4649 258.896C93.9395 263.313 95.2664 267.555 96.428 271.431C97.5773 275.312 98.5689 278.824 99.3608 281.788C100.157 284.751 100.781 287.156 101.196 288.823C101.405 289.641 101.57 290.283 101.687 290.74C101.742 290.946 101.786 291.11 101.821 291.236C101.852 291.348 101.87 291.404 101.874 291.403C101.878 291.402 101.869 291.343 101.845 291.228C101.817 291.1 101.781 290.934 101.735 290.724C101.629 290.264 101.48 289.617 101.29 288.793C100.903 287.116 100.304 284.701 99.529 281.73C98.7581 278.756 97.7834 275.235 96.6446 271.347C95.4941 267.463 94.1731 263.215 92.6968 258.794C91.2123 254.379 89.7137 250.211 88.3016 246.444C86.8772 242.684 85.5463 239.322 84.3835 236.524C83.2243 233.723 82.2595 231.471 81.5687 229.93C81.2288 229.172 80.9619 228.578 80.7727 228.155C80.6845 227.965 80.6144 227.814 80.5601 227.697C80.5099 227.592 80.483 227.54 80.4789 227.543Z" fill="#263238"/>
<path d="M106.275 295.216C106.283 295.217 106.303 295.114 106.334 294.918C106.366 294.689 106.405 294.405 106.454 294.057C106.501 293.683 106.561 293.225 106.647 292.697C106.731 292.168 106.811 291.564 106.935 290.903C107.157 289.576 107.475 288.009 107.881 286.284C108.299 284.565 108.813 282.692 109.439 280.761C110.075 278.834 110.762 277.036 111.432 275.426C112.116 273.824 112.775 272.404 113.368 271.239C113.653 270.648 113.939 270.133 114.179 269.673C114.417 269.211 114.634 268.822 114.813 268.505C114.975 268.207 115.108 267.963 115.215 267.767C115.305 267.596 115.349 267.504 115.342 267.499C115.335 267.493 115.278 267.574 115.174 267.735C115.057 267.923 114.911 268.157 114.733 268.443C114.541 268.751 114.312 269.132 114.062 269.587C113.811 270.04 113.513 270.549 113.217 271.135C112.603 272.291 111.925 273.706 111.228 275.31C110.542 276.92 109.845 278.724 109.207 280.66C108.578 282.6 108.069 284.484 107.66 286.215C107.266 287.95 106.964 289.528 106.763 290.865C106.649 291.53 106.581 292.139 106.51 292.671C106.437 293.203 106.391 293.664 106.358 294.042C106.328 294.393 106.303 294.68 106.284 294.91C106.27 295.109 106.266 295.214 106.275 295.216Z" fill="#263238"/>
<path d="M117.036 291.401H89.9368V297.782H117.036V291.401Z" fill="#FF725E"/>
<path d="M114.454 297.782L111.523 319.24H95.1478L92.4153 297.782H114.454Z" fill="#FF725E"/>
<path d="M91.5994 297.782C91.5994 297.86 96.7257 297.924 103.048 297.924C109.373 297.924 114.498 297.86 114.498 297.782C114.498 297.703 109.373 297.639 103.048 297.639C96.7257 297.639 91.5994 297.703 91.5994 297.782Z" fill="#263238"/>
<g opacity="0.3">
<path d="M201.808 44.0961V97.5294C201.808 101.019 204.281 103.848 207.332 103.848H214.057C213.691 106.011 212.888 108.082 211.716 109.827C211.282 110.473 211.794 111.379 212.484 111.195C214.244 110.726 215.968 110.108 217.553 109.129C219.49 107.931 221.205 106.113 222.12 103.848H228.826V101.409H226.597V64.6187C226.597 53.284 218.635 44.0961 208.815 44.0961H201.808Z" fill="black"/>
</g>
<g opacity="0.3">
<path d="M107.408 142.352H131.336C135.819 142.352 139.453 146.546 139.453 151.72V173.974C139.453 179.147 135.819 183.342 131.336 183.342H121.455C121.995 186.556 123.178 189.633 124.906 192.224C125.541 193.177 124.782 194.509 123.767 194.236C121.181 193.541 118.647 192.625 116.318 191.172C113.472 189.396 110.952 186.7 109.608 183.341H107.517L107.408 142.352Z" fill="black"/>
</g>
<path d="M167.057 202.471C176.825 202.471 184.744 193.332 184.744 182.059C184.744 170.785 176.825 161.646 167.057 161.646C157.289 161.646 149.37 170.785 149.37 182.059C149.37 193.332 157.289 202.471 167.057 202.471Z" fill="#E0E0E0"/>
<path d="M172.917 178.587C172.917 180.074 173.708 181.279 174.684 181.279C175.66 181.279 176.451 180.074 176.451 178.587C176.451 177.099 175.66 175.894 174.684 175.894C173.708 175.893 172.917 177.099 172.917 178.587Z" fill="#263238"/>
<path d="M159.983 181.279C160.959 181.279 161.751 180.074 161.751 178.587C161.751 177.1 160.959 175.894 159.983 175.894C159.008 175.894 158.216 177.1 158.216 178.587C158.216 180.074 159.008 181.279 159.983 181.279Z" fill="#263238"/>
<path d="M173.822 184.868C169.453 184.868 165.083 184.868 160.714 184.868C160.016 184.868 160.014 183.617 160.714 183.617C165.083 183.617 169.453 183.617 173.822 183.617C174.519 183.617 174.52 184.868 173.822 184.868Z" fill="#263238"/>
<path d="M183.045 238.533C187.234 228.349 183.477 216.173 174.652 211.337C165.827 206.502 155.277 210.839 151.088 221.023C146.898 231.208 150.655 243.384 159.48 248.219C168.305 253.055 178.855 248.718 183.045 238.533Z" fill="#E0E0E0"/>
<path d="M172.917 226.31C172.917 227.797 173.708 229.003 174.684 229.003C175.66 229.003 176.451 227.797 176.451 226.31C176.451 224.823 175.66 223.617 174.684 223.617C173.708 223.617 172.917 224.823 172.917 226.31Z" fill="#263238"/>
<path d="M158.216 226.31C158.216 227.797 159.008 229.003 159.983 229.003C160.959 229.003 161.751 227.797 161.751 226.31C161.751 224.823 160.959 223.617 159.983 223.617C159.008 223.617 158.216 224.823 158.216 226.31Z" fill="#263238"/>
<path d="M170.063 295.806C179.689 293.892 186.149 283.333 184.49 272.223C182.831 261.113 173.683 253.658 164.056 255.573C154.43 257.487 147.97 268.045 149.629 279.155C151.288 290.266 160.436 297.72 170.063 295.806Z" fill="#E0E0E0"/>
<path d="M172.232 272.212C172.232 273.7 173.023 274.905 173.999 274.905C174.975 274.905 175.767 273.699 175.767 272.212C175.767 270.725 174.975 269.52 173.999 269.52C173.023 269.52 172.232 270.725 172.232 272.212Z" fill="#263238"/>
<path d="M159.983 275.029C160.959 275.029 161.751 273.824 161.751 272.337C161.751 270.85 160.959 269.644 159.983 269.644C159.008 269.644 158.216 270.85 158.216 272.337C158.216 273.824 159.008 275.029 159.983 275.029Z" fill="#263238"/>
<path d="M162.057 278.455C162.676 275.888 164.865 273.938 167.198 274.039C169.521 274.14 171.615 276.218 172.066 278.846C172.202 279.632 171.157 279.969 171.021 279.179C170.664 277.103 169.065 275.375 167.198 275.291C165.341 275.207 163.597 276.739 163.103 278.788C162.916 279.562 161.87 279.233 162.057 278.455Z" fill="#263238"/>
<path d="M167.892 155.349C178.102 155.349 186.38 145.796 186.38 134.012C186.38 122.228 178.102 112.676 167.892 112.676C157.682 112.676 149.404 122.228 149.404 134.012C149.404 145.796 157.682 155.349 167.892 155.349Z" fill="#FF725E"/>
<path d="M174.017 130.383C174.017 131.937 174.844 133.198 175.864 133.198C176.885 133.198 177.711 131.937 177.711 130.383C177.711 128.829 176.885 127.568 175.864 127.568C174.844 127.568 174.017 128.829 174.017 130.383Z" fill="#263238"/>
<path d="M158.651 130.383C158.651 131.937 159.478 133.198 160.499 133.198C161.519 133.198 162.346 131.937 162.346 130.383C162.346 128.829 161.519 127.568 160.499 127.568C159.478 127.568 158.651 128.829 158.651 130.383Z" fill="#263238"/>
<path d="M173.452 133.981C172.9 136.692 170.685 138.836 168.245 138.844C165.815 138.852 163.552 136.784 162.983 134.062C162.813 133.247 163.892 132.845 164.063 133.664C164.512 135.814 166.246 137.541 168.199 137.537C170.142 137.534 171.907 135.849 172.348 133.685C172.514 132.866 173.619 133.158 173.452 133.981Z" fill="#263238"/>
<path d="M180.616 101.329C187.644 93.2177 187.644 80.067 180.616 71.9559C173.588 63.8448 162.193 63.8448 155.165 71.9559C148.137 80.067 148.137 93.2177 155.165 101.329C162.193 109.44 173.588 109.44 180.616 101.329Z" fill="#E0E0E0"/>
<path d="M173.688 83.1086C173.688 84.6217 174.494 85.8484 175.486 85.8484C176.48 85.8484 177.284 84.6217 177.284 83.1086C177.284 81.5955 176.479 80.3688 175.486 80.3688C174.493 80.3688 173.688 81.5955 173.688 83.1086Z" fill="#263238"/>
<path d="M158.73 83.1086C158.73 84.6217 159.536 85.8484 160.528 85.8484C161.522 85.8484 162.326 84.6217 162.326 83.1086C162.326 81.5955 161.521 80.3688 160.528 80.3688C159.536 80.3688 158.73 81.5955 158.73 83.1086Z" fill="#263238"/>
<path d="M161.686 87.1608C161.686 91.3672 164.466 94.7776 167.896 94.7776C171.326 94.7776 174.106 91.3672 174.106 87.1608H161.686Z" fill="#263238"/>
<path d="M164.665 93.6588C164.665 93.6588 165.891 91.8545 167.896 91.8545C169.902 91.8545 171.135 93.6588 171.135 93.6588C171.135 93.6588 168.123 95.9612 164.665 93.6588Z" fill="#FF725E"/>
<path d="M171.418 232.414C171.27 232.414 171.121 232.348 171.008 232.219C169.956 231.018 168.151 230.551 166.181 230.967C165.229 231.168 164.31 231.529 163.449 232.038C163.162 232.209 162.811 232.077 162.663 231.746C162.516 231.415 162.629 231.009 162.916 230.839C163.879 230.268 164.906 229.866 165.971 229.641C168.353 229.139 170.487 229.728 171.829 231.261C172.059 231.523 172.061 231.949 171.834 232.214C171.719 232.348 171.569 232.414 171.418 232.414Z" fill="#263238"/>
<path d="M199.335 112.939C199.392 113.011 197.337 115.287 194.747 118.023C192.155 120.76 190.009 122.92 189.952 122.848C189.895 122.777 191.95 120.501 194.541 117.764C197.132 115.029 199.279 112.868 199.335 112.939Z" fill="#FF725E"/>
<path d="M206.494 131.1C206.496 131.197 203.29 131.362 199.334 131.467C195.377 131.573 192.168 131.581 192.166 131.484C192.164 131.387 195.369 131.222 199.327 131.116C203.284 131.01 206.493 131.003 206.494 131.1Z" fill="#FF725E"/>
<path d="M197.896 145.119C197.875 145.16 197.47 144.928 196.843 144.499C196.216 144.07 195.37 143.44 194.469 142.688C193.568 141.937 192.783 141.207 192.233 140.655C191.684 140.103 191.366 139.733 191.392 139.697C191.449 139.62 192.853 140.912 194.647 142.404C196.437 143.901 197.941 145.033 197.896 145.119Z" fill="#FF725E"/>
<path d="M144.361 114.209L144.742 115.101C144.785 115.201 144.868 115.271 144.964 115.287L145.817 115.43C146.058 115.47 146.155 115.812 145.98 116.009L145.363 116.703C145.294 116.782 145.262 116.894 145.278 117.004L145.424 117.984C145.465 118.262 145.212 118.473 144.997 118.342L144.234 117.88C144.148 117.828 144.046 117.828 143.96 117.88L143.198 118.342C142.981 118.473 142.729 118.261 142.771 117.984L142.916 117.004C142.932 116.894 142.901 116.782 142.831 116.703L142.215 116.009C142.04 115.812 142.136 115.47 142.378 115.43L143.23 115.287C143.326 115.271 143.409 115.201 143.452 115.101L143.834 114.209C143.941 113.957 144.253 113.957 144.361 114.209Z" fill="#FF725E"/>
<path d="M139.42 131.816L139.685 132.435C139.715 132.504 139.772 132.553 139.838 132.563L140.43 132.662C140.598 132.691 140.665 132.928 140.543 133.065L140.115 133.546C140.067 133.6 140.045 133.678 140.057 133.755L140.158 134.435C140.186 134.628 140.011 134.775 139.862 134.684L139.333 134.363C139.273 134.327 139.202 134.327 139.142 134.363L138.613 134.684C138.463 134.775 138.288 134.628 138.316 134.435L138.417 133.755C138.429 133.678 138.407 133.601 138.358 133.546L137.93 133.065C137.809 132.929 137.876 132.691 138.044 132.662L138.635 132.563C138.702 132.552 138.759 132.504 138.789 132.435L139.053 131.816C139.129 131.641 139.345 131.641 139.42 131.816Z" fill="#FF725E"/>
<path d="M197.882 123.056L198.206 123.815C198.243 123.9 198.313 123.959 198.395 123.973L199.12 124.095C199.326 124.129 199.408 124.421 199.259 124.588L198.734 125.178C198.675 125.245 198.648 125.341 198.662 125.434L198.786 126.268C198.821 126.504 198.606 126.685 198.423 126.573L197.774 126.179C197.701 126.135 197.614 126.135 197.541 126.179L196.892 126.573C196.708 126.684 196.494 126.504 196.529 126.268L196.653 125.434C196.667 125.341 196.64 125.245 196.581 125.178L196.056 124.588C195.907 124.421 195.989 124.13 196.195 124.095L196.92 123.973C197.002 123.96 197.072 123.9 197.109 123.815L197.434 123.056C197.525 122.841 197.79 122.841 197.882 123.056Z" fill="#FF725E"/>
<path d="M187.879 115.486L188.063 115.916C188.083 115.965 188.123 115.998 188.17 116.006L188.581 116.075C188.698 116.094 188.744 116.259 188.66 116.354L188.362 116.689C188.329 116.727 188.313 116.781 188.321 116.834L188.391 117.307C188.411 117.441 188.289 117.543 188.185 117.481L187.817 117.257C187.776 117.233 187.726 117.233 187.685 117.257L187.317 117.481C187.213 117.544 187.091 117.441 187.111 117.307L187.181 116.834C187.189 116.781 187.173 116.726 187.14 116.689L186.842 116.354C186.758 116.259 186.804 116.094 186.921 116.075L187.333 116.006C187.379 115.998 187.419 115.965 187.44 115.916L187.623 115.486C187.676 115.364 187.827 115.364 187.879 115.486Z" fill="#FF725E"/>
<path d="M141.822 124.891C141.811 124.938 141.254 124.801 140.365 124.543C139.475 124.284 138.252 123.904 136.906 123.463C135.56 123.022 134.346 122.604 133.472 122.284C132.597 121.965 132.062 121.744 132.073 121.697C132.084 121.651 132.64 121.787 133.529 122.046C134.419 122.304 135.643 122.685 136.989 123.126C138.335 123.567 139.549 123.985 140.424 124.305C141.299 124.624 141.834 124.845 141.822 124.891Z" fill="#FF725E"/>
<path d="M143.244 140.787C143.297 140.862 142.442 141.759 141.336 142.791C140.229 143.823 139.289 144.597 139.236 144.521C139.184 144.446 140.037 143.549 141.145 142.518C142.251 141.486 143.192 140.712 143.244 140.787Z" fill="#FF725E"/>
<path d="M283.769 134.562L287.525 134.229C289.324 136.093 291.63 137.362 294.25 137.708C300.162 138.488 305.786 134.057 307.301 127.416C309.204 119.074 304.233 110.796 296.797 109.924C290.834 109.224 285.237 113.818 283.838 120.544C283.122 123.983 283.57 127.394 284.865 130.266L284.861 130.26L283.769 134.562Z" fill="white"/>
<path d="M283.769 134.562C283.769 134.562 283.8 134.461 283.852 134.273C283.905 134.073 283.98 133.799 284.075 133.446C284.269 132.712 284.551 131.652 284.915 130.278L284.819 130.303L284.824 130.309C284.845 130.336 284.88 130.338 284.903 130.314C284.923 130.294 284.927 130.261 284.916 130.235C284.216 128.648 283.54 126.375 283.588 123.602C283.602 122.223 283.832 120.737 284.289 119.244C284.744 117.752 285.453 116.251 286.445 114.905C287.434 113.558 288.704 112.367 290.194 111.5C291.681 110.632 293.388 110.092 295.173 110.015C298.731 109.843 302.612 111.697 305.015 115.309L305.461 115.986L305.85 116.705C306.129 117.171 306.304 117.7 306.533 118.191C306.907 119.219 307.221 120.271 307.373 121.351C307.713 123.5 307.599 125.684 307.108 127.677C306.604 129.668 305.727 131.455 304.626 132.91C303.524 134.368 302.204 135.497 300.824 136.272C298.046 137.83 295.108 137.957 292.794 137.308C290.453 136.671 288.712 135.356 287.564 134.181C287.549 134.176 287.536 134.171 287.522 134.165C286.321 134.289 285.393 134.384 284.75 134.45C284.442 134.484 284.202 134.51 284.026 134.529C283.859 134.547 283.769 134.562 283.769 134.562C283.765 134.565 283.843 134.562 284.001 134.552C284.173 134.54 284.409 134.524 284.713 134.503C285.365 134.455 286.309 134.384 287.529 134.293L287.488 134.277C288.631 135.482 290.381 136.835 292.751 137.502C295.093 138.181 298.083 138.075 300.917 136.502C302.326 135.72 303.676 134.576 304.803 133.092C305.931 131.612 306.831 129.79 307.349 127.758C307.854 125.726 307.973 123.495 307.628 121.297C307.473 120.194 307.153 119.118 306.771 118.068C306.538 117.565 306.358 117.025 306.074 116.549L305.676 115.814L305.22 115.122C302.764 111.431 298.794 109.539 295.162 109.725C293.339 109.807 291.597 110.364 290.084 111.255C288.566 112.144 287.276 113.364 286.274 114.74C285.268 116.117 284.554 117.648 284.099 119.169C283.642 120.69 283.418 122.2 283.413 123.6C283.383 126.414 284.088 128.706 284.814 130.296L284.906 130.223L284.901 130.217C284.881 130.191 284.845 130.188 284.822 130.212C284.814 130.22 284.809 130.231 284.806 130.243C284.465 131.645 284.203 132.728 284.021 133.477C283.938 133.826 283.874 134.096 283.827 134.294C283.785 134.475 283.765 134.565 283.769 134.562Z" fill="#263238"/>
<path d="M293.958 130.266L288.751 123.787L290.711 121.69L294.202 126.034L300.993 119.563L302.694 121.94L293.958 130.266Z" fill="#FF725E"/>
<path d="M212.977 27.8459H277.002C280.053 27.8459 282.527 30.7003 282.527 34.222V90.0824C282.527 93.6034 280.053 96.4585 277.002 96.4585H227.765C226.851 98.7447 225.136 100.579 223.199 101.788C221.614 102.777 219.89 103.401 218.129 103.874C217.439 104.059 216.922 103.153 217.354 102.505C218.53 100.741 219.335 98.647 219.703 96.4592H212.978C209.927 96.4592 207.453 93.6048 207.453 90.0831V34.2213C207.453 30.7003 209.926 27.8459 212.977 27.8459Z" fill="white"/>
<path d="M212.977 27.8452C212.977 27.8452 212.863 27.8601 212.639 27.8776C212.415 27.889 212.08 27.9382 211.653 28.0629C210.816 28.3036 209.523 28.9425 208.517 30.55C208.015 31.3393 207.651 32.3866 207.532 33.5796C207.479 34.778 207.523 36.1112 207.514 37.5367C207.519 40.3951 207.525 43.6762 207.532 47.3461C207.54 54.69 207.551 63.5881 207.563 73.7642C207.567 78.8529 207.571 84.2617 207.576 89.955C207.567 91.3495 207.938 92.7683 208.711 93.8892C209.467 95.0114 210.571 95.8545 211.81 96.1585C212.428 96.3196 213.064 96.3095 213.723 96.3075C214.377 96.3068 215.034 96.3061 215.695 96.3061C217.017 96.3054 218.353 96.3041 219.702 96.3034H219.866L219.835 96.4888C219.532 98.2803 218.94 100.033 218.066 101.609C217.956 101.806 217.843 102 217.725 102.191C217.617 102.376 217.458 102.584 217.393 102.737C217.235 103.079 217.409 103.543 217.718 103.685C217.881 103.757 218.024 103.748 218.23 103.681L218.82 103.513C219.213 103.397 219.604 103.271 219.993 103.132C221.545 102.577 223.077 101.827 224.421 100.713C225.759 99.6047 226.929 98.1475 227.634 96.389L227.673 96.2926H227.765C241.222 96.2899 255.917 96.2866 271.203 96.2832C272.373 96.2832 273.539 96.2832 274.703 96.2832H276.444C277.031 96.2913 277.587 96.2744 278.14 96.141C279.234 95.8586 280.257 95.1913 280.994 94.2214C281.75 93.2698 282.212 92.0363 282.34 90.7672C282.389 90.137 282.372 89.4724 282.375 88.8187C282.375 88.1635 282.375 87.5097 282.375 86.8573C282.375 85.5518 282.375 84.2516 282.375 82.9569C282.376 80.3667 282.376 77.7974 282.377 75.251C282.379 65.0642 282.382 55.2386 282.385 45.8781C282.386 43.538 282.388 41.2275 282.388 38.9467C282.389 37.8063 282.389 36.674 282.39 35.5497C282.388 34.4201 282.438 33.3114 282.121 32.2822C281.545 30.2137 279.987 28.6102 278.207 28.1586C277.325 27.9039 276.391 28.0259 275.474 27.9949C274.557 27.9942 273.647 27.9935 272.746 27.9928C265.533 27.9854 258.816 27.978 252.682 27.9713C240.419 27.9477 230.495 27.9288 223.63 27.9153C220.204 27.9012 217.543 27.8897 215.731 27.8823C214.832 27.8749 214.146 27.8688 213.677 27.8648C213.215 27.8574 212.977 27.8452 212.977 27.8452C212.977 27.8452 213.215 27.8331 213.677 27.827C214.146 27.823 214.833 27.8176 215.731 27.8095C217.543 27.8021 220.204 27.7906 223.63 27.7765C230.495 27.763 240.419 27.7441 252.682 27.7205C258.816 27.7138 265.534 27.7071 272.746 27.699C273.647 27.6983 274.557 27.6976 275.474 27.697C275.932 27.697 276.392 27.6963 276.855 27.6956C277.084 27.6916 277.326 27.7179 277.561 27.728C277.796 27.7711 278.034 27.7947 278.265 27.8641C280.133 28.3352 281.769 30.0128 282.375 32.1845C282.71 33.2676 282.659 34.441 282.662 35.5484C282.662 36.6726 282.663 37.8056 282.663 38.9453C282.664 41.2255 282.665 43.5366 282.666 45.8768C282.669 55.2373 282.672 65.0628 282.675 75.2497C282.676 77.7961 282.676 80.3653 282.676 82.9555C282.676 84.251 282.677 85.5511 282.677 86.856C282.677 87.5084 282.677 88.1622 282.677 88.8173C282.673 89.4731 282.692 90.1235 282.64 90.8043C282.506 92.1455 282.017 93.449 281.22 94.4546C280.441 95.4791 279.361 96.1848 278.203 96.4834C277.623 96.6256 277.016 96.6424 276.444 96.6337H274.702C273.539 96.6337 272.373 96.6337 271.202 96.6337C255.917 96.6303 241.221 96.6276 227.764 96.6243L227.895 96.5279C227.162 98.3497 225.957 99.8453 224.586 100.978C223.207 102.119 221.646 102.879 220.074 103.439C219.681 103.579 219.285 103.706 218.888 103.823L218.293 103.992C218.111 104.057 217.828 104.094 217.612 103.98C217.161 103.774 216.915 103.111 217.143 102.601C217.263 102.342 217.385 102.207 217.5 102.006C217.616 101.819 217.727 101.629 217.834 101.437C218.69 99.8965 219.272 98.1819 219.57 96.4281L219.702 96.6128C218.353 96.6121 217.017 96.6108 215.695 96.6101C215.034 96.6094 214.377 96.6094 213.723 96.6087C213.076 96.6108 212.402 96.6209 211.754 96.4504C210.456 96.1295 209.301 95.2446 208.51 94.0684C207.703 92.8964 207.316 91.4007 207.328 89.955C207.333 84.2617 207.337 78.8529 207.341 73.7642C207.354 63.5881 207.364 54.69 207.373 47.3461C207.38 43.6762 207.386 40.3951 207.391 37.5367C207.407 36.1058 207.369 34.7901 207.429 33.5675C207.556 32.3523 207.933 31.2901 208.449 30.4934C209.481 28.8711 210.796 28.2422 211.642 28.0151C212.074 27.8971 212.412 27.856 212.637 27.8527C212.863 27.8439 212.977 27.8452 212.977 27.8452Z" fill="#263238"/>
<path d="M222.441 48.3942C224.989 48.3942 227.055 46.0103 227.055 43.0696C227.055 40.1289 224.989 37.745 222.441 37.745C219.893 37.745 217.828 40.1289 217.828 43.0696C217.828 46.0103 219.893 48.3942 222.441 48.3942Z" fill="#455A64"/>
<path d="M220.484 54.1832L221.194 55.8459C221.274 56.0326 221.429 56.1627 221.608 56.1924L223.198 56.4593C223.648 56.5347 223.828 57.1737 223.502 57.5404L222.351 58.8344C222.222 58.98 222.163 59.1896 222.194 59.3952L222.465 61.2224C222.542 61.74 222.072 62.135 221.669 61.8903L220.247 61.0276C220.087 60.9306 219.896 60.9306 219.736 61.0276L218.314 61.8903C217.911 62.135 217.44 61.74 217.517 61.2224L217.789 59.3952C217.819 59.1896 217.76 58.98 217.631 58.8344L216.48 57.5404C216.154 57.1737 216.334 56.5354 216.785 56.4593L218.375 56.1924C218.554 56.1627 218.708 56.0326 218.788 55.8459L219.499 54.1832C219.701 53.7127 220.282 53.7127 220.484 54.1832Z" fill="#FF725E"/>
<path d="M232.175 54.1832L232.886 55.8459C232.966 56.0326 233.121 56.1627 233.3 56.1924L234.889 56.4593C235.339 56.5347 235.519 57.1737 235.193 57.5404L234.043 58.8344C233.914 58.98 233.854 59.1896 233.885 59.3952L234.157 61.2224C234.234 61.74 233.763 62.135 233.36 61.8903L231.938 61.0276C231.778 60.9306 231.587 60.9306 231.427 61.0276L230.005 61.8903C229.602 62.135 229.132 61.74 229.209 61.2224L229.48 59.3952C229.511 59.1896 229.452 58.98 229.322 58.8344L228.172 57.5404C227.846 57.1737 228.026 56.5354 228.476 56.4593L230.066 56.1924C230.245 56.1627 230.399 56.0326 230.479 55.8459L231.19 54.1832C231.392 53.7127 231.974 53.7127 232.175 54.1832Z" fill="#FF725E"/>
<path d="M243.867 54.1832L244.578 55.8459C244.658 56.0326 244.813 56.1627 244.992 56.1924L246.581 56.4593C247.032 56.5347 247.211 57.1737 246.886 57.5404L245.735 58.8344C245.605 58.98 245.546 59.1896 245.577 59.3952L245.849 61.2224C245.926 61.74 245.455 62.135 245.052 61.8903L243.63 61.0276C243.47 60.9306 243.279 60.9306 243.119 61.0276L241.697 61.8903C241.294 62.135 240.824 61.74 240.901 61.2224L241.172 59.3952C241.203 59.1896 241.144 58.98 241.015 58.8344L239.864 57.5404C239.538 57.1737 239.718 56.5354 240.168 56.4593L241.758 56.1924C241.937 56.1627 242.092 56.0326 242.172 55.8459L242.882 54.1832C243.084 53.7127 243.666 53.7127 243.867 54.1832Z" fill="#FF725E"/>
<path d="M255.559 54.1832L256.27 55.8459C256.35 56.0326 256.505 56.1627 256.684 56.1924L258.273 56.4593C258.723 56.5347 258.903 57.1737 258.577 57.5404L257.427 58.8344C257.297 58.98 257.238 59.1896 257.269 59.3952L257.541 61.2224C257.618 61.74 257.147 62.135 256.744 61.8903L255.322 61.0276C255.162 60.9306 254.971 60.9306 254.811 61.0276L253.389 61.8903C252.986 62.135 252.516 61.74 252.593 61.2224L252.864 59.3952C252.895 59.1896 252.836 58.98 252.707 58.8344L251.556 57.5404C251.23 57.1737 251.41 56.5354 251.86 56.4593L253.45 56.1924C253.629 56.1627 253.783 56.0326 253.863 55.8459L254.574 54.1832C254.776 53.7127 255.358 53.7127 255.559 54.1832Z" fill="#FF725E"/>
<path d="M267.251 54.1832L267.962 55.8459C268.042 56.0326 268.197 56.1627 268.376 56.1924L269.965 56.4593C270.416 56.5347 270.595 57.1737 270.27 57.5404L269.119 58.8344C268.989 58.98 268.931 59.1896 268.961 59.3952L269.233 61.2224C269.31 61.74 268.839 62.135 268.436 61.8903L267.014 61.0276C266.854 60.9306 266.663 60.9306 266.503 61.0276L265.081 61.8903C264.678 62.135 264.208 61.74 264.285 61.2224L264.556 59.3952C264.587 59.1896 264.528 58.98 264.399 58.8344L263.248 57.5404C262.922 57.1737 263.102 56.5354 263.552 56.4593L265.143 56.1924C265.321 56.1627 265.476 56.0326 265.556 55.8459L266.267 54.1832C266.468 53.7127 267.049 53.7127 267.251 54.1832Z" fill="#E0E0E0"/>
<path d="M269.999 86.2925H219.48C217.585 86.2925 216.049 84.5198 216.049 82.3327V69.6217C216.049 67.4346 217.585 65.662 219.48 65.662H269.999C271.894 65.662 273.43 67.4346 273.43 69.6217V82.3327C273.43 84.5192 271.894 86.2925 269.999 86.2925Z" fill="#F5F5F5"/>
<path d="M266.759 40.594H230.262V43.0696H266.759V40.594Z" fill="#E0E0E0"/>
<path d="M244.99 44.9628H230.262V47.4384H244.99V44.9628Z" fill="#E0E0E0"/>
<path d="M267.348 71.7483H221.449V74.2239H267.348V71.7483Z" fill="#E0E0E0"/>
<path d="M255.067 76.7156H221.449V79.1912H255.067V76.7156Z" fill="#E0E0E0"/>
<path d="M123.783 134.837H72.3719C67.8891 134.837 64.2549 139.032 64.2549 144.205V166.459C64.2549 171.633 67.8891 175.827 72.3719 175.827H102.055C103.399 179.186 105.919 181.883 108.766 183.659C111.094 185.111 113.628 186.027 116.214 186.722C117.229 186.994 117.989 185.663 117.353 184.71C115.625 182.119 114.443 179.042 113.902 175.827H123.783C128.266 175.827 131.9 171.633 131.9 166.459V144.205C131.9 139.032 128.266 134.837 123.783 134.837Z" fill="white"/>
<path d="M123.783 134.837C123.783 134.837 124.128 134.82 124.792 134.893C125.453 134.971 126.443 135.207 127.6 135.885C128.737 136.576 130.035 137.781 130.96 139.681C131.41 140.632 131.753 141.747 131.893 142.981C132.022 144.221 131.958 145.528 131.979 146.911C131.983 152.447 131.988 159.156 131.993 166.834C131.947 168.778 131.329 170.766 130.214 172.383C129.093 173.985 127.485 175.251 125.63 175.72C124.708 175.972 123.737 175.98 122.79 175.972C121.836 175.972 120.87 175.974 119.893 175.975C117.939 175.977 115.941 175.979 113.901 175.981L114.032 175.798C114.451 178.273 115.266 180.732 116.482 182.981C116.787 183.543 117.116 184.088 117.47 184.623C117.666 184.922 117.764 185.324 117.708 185.703C117.651 186.081 117.468 186.43 117.194 186.652C116.927 186.885 116.567 186.962 116.243 186.892C115.938 186.82 115.658 186.736 115.364 186.652C114.783 186.485 114.201 186.302 113.62 186.102C111.303 185.302 108.981 184.203 106.91 182.53C104.852 180.866 103.025 178.64 101.92 175.899L102.055 175.999C95.2204 176 88.1394 176.001 80.8867 176.002C79.0792 176.002 77.2828 176.002 75.4981 176.002C74.6058 176.002 73.7163 176.002 72.8298 176.001C72.3901 176.011 71.9357 175.979 71.4878 175.945C71.0422 175.873 70.5978 175.796 70.1674 175.648C69.3048 175.37 68.4843 174.935 67.7426 174.366C67.0091 173.784 66.3609 173.071 65.8212 172.265C64.7257 170.663 64.1522 168.642 64.113 166.645C64.1171 158.776 64.1212 151.185 64.1247 143.954C64.1282 143.033 64.2976 142.13 64.5207 141.263C64.763 140.397 65.1257 139.592 65.5491 138.843C65.9941 138.108 66.5185 137.45 67.1008 136.877C67.7005 136.33 68.34 135.846 69.0338 135.501C69.727 135.166 70.4465 134.895 71.1853 134.794C71.9229 134.661 72.6605 134.688 73.3747 134.686C74.8137 134.688 76.2305 134.69 77.6227 134.691C83.1923 134.699 88.3806 134.706 93.118 134.713C102.586 134.736 110.25 134.755 115.555 134.769C118.198 134.783 120.252 134.794 121.655 134.802C122.347 134.809 122.876 134.815 123.241 134.819C123.6 134.825 123.783 134.837 123.783 134.837C123.783 134.837 123.6 134.85 123.242 134.856C122.877 134.86 122.348 134.866 121.656 134.873C120.254 134.881 118.2 134.892 115.556 134.906C110.251 134.92 102.588 134.938 93.1197 134.962C88.3823 134.969 83.1941 134.976 77.6245 134.984C76.2322 134.985 74.8154 134.987 73.3764 134.988C72.654 134.992 71.9328 134.967 71.2244 135.097C70.509 135.195 69.814 135.459 69.1436 135.784C68.4732 136.12 67.8553 136.59 67.2754 137.119C66.713 137.675 66.2073 138.313 65.7774 139.023C65.3686 139.748 65.0188 140.527 64.7858 141.363C64.5715 142.202 64.408 143.073 64.4062 143.964C64.408 151.19 64.4103 158.776 64.412 166.639C64.4506 168.565 65.0036 170.51 66.0607 172.055C66.581 172.831 67.2059 173.518 67.9125 174.079C68.6274 174.626 69.4175 175.045 70.2485 175.313C70.6632 175.457 71.0913 175.529 71.5205 175.6C71.9532 175.631 72.3836 175.663 72.8304 175.653C73.7169 175.653 74.6063 175.653 75.4987 175.653C77.2834 175.653 79.0798 175.653 80.8873 175.653C88.14 175.654 95.2204 175.655 102.056 175.656H102.151L102.191 175.756C103.266 178.428 105.054 180.615 107.078 182.255C109.112 183.901 111.405 184.991 113.703 185.787C114.279 185.987 114.856 186.168 115.434 186.336C115.72 186.417 116.017 186.506 116.295 186.572C116.552 186.626 116.823 186.57 117.031 186.388C117.244 186.218 117.388 185.942 117.432 185.652C117.474 185.359 117.402 185.058 117.248 184.819C116.893 184.279 116.557 183.721 116.248 183.151C115.016 180.866 114.193 178.369 113.771 175.857L113.74 175.674H113.902C115.941 175.676 117.939 175.678 119.893 175.68C120.87 175.681 121.836 175.682 122.79 175.683C123.749 175.694 124.679 175.688 125.576 175.445C127.376 174.996 128.939 173.77 130.032 172.217C131.118 170.647 131.724 168.717 131.774 166.825C131.792 159.151 131.809 152.445 131.821 146.912C131.807 145.532 131.875 144.211 131.755 143.002C131.623 141.789 131.291 140.689 130.854 139.749C129.953 137.87 128.68 136.667 127.561 135.971C126.423 135.286 125.444 135.036 124.787 134.942C124.46 134.877 124.205 134.889 124.037 134.865C123.868 134.851 123.783 134.837 123.783 134.837Z" fill="#263238"/>
<path d="M82.286 149.01L83.3629 151.528C83.4838 151.811 83.7179 152.008 83.9889 152.053L86.3973 152.457C87.0794 152.572 87.3516 153.539 86.8581 154.094L85.1154 156.055C84.9192 156.275 84.8299 156.593 84.876 156.905L85.2871 159.674C85.4039 160.457 84.6903 161.056 84.0806 160.685L81.9262 159.378C81.6839 159.231 81.3948 159.231 81.1524 159.378L78.998 160.685C78.3878 161.055 77.6747 160.457 77.7915 159.674L78.2026 156.905C78.2488 156.593 78.1594 156.276 77.9632 156.055L76.2205 154.094C75.7271 153.539 75.9992 152.572 76.6813 152.457L79.0897 152.053C79.3607 152.008 79.5949 151.811 79.7158 151.528L80.7927 149.01C81.0993 148.296 81.9805 148.296 82.286 149.01Z" fill="#FF725E"/>
<path d="M99.9974 149.01L101.074 151.528C101.196 151.811 101.429 152.008 101.7 152.053L104.109 152.457C104.791 152.572 105.063 153.539 104.57 154.094L102.827 156.055C102.631 156.275 102.541 156.593 102.587 156.905L102.999 159.674C103.115 160.457 102.402 161.056 101.792 160.685L99.6377 159.378C99.3953 159.231 99.1056 159.231 98.8633 159.378L96.7089 160.685C96.0986 161.055 95.3855 160.457 95.5023 159.674L95.9141 156.905C95.9602 156.593 95.8708 156.276 95.6746 156.055L93.932 154.094C93.4385 153.539 93.7106 152.572 94.3927 152.457L96.8012 152.053C97.0721 152.008 97.3063 151.811 97.4272 151.528L98.5041 149.01C98.8113 148.296 99.6925 148.296 99.9974 149.01Z" fill="#FF725E"/>
<path d="M117.71 149.01L118.786 151.528C118.907 151.811 119.142 152.008 119.412 152.053L121.821 152.457C122.503 152.572 122.776 153.539 122.282 154.094L120.539 156.055C120.343 156.275 120.253 156.593 120.3 156.905L120.711 159.674C120.828 160.457 120.114 161.056 119.504 160.685L117.35 159.378C117.107 159.231 116.818 159.231 116.576 159.378L114.422 160.685C113.811 161.055 113.098 160.457 113.215 159.674L113.626 156.905C113.672 156.593 113.583 156.276 113.387 156.055L111.644 154.094C111.151 153.539 111.423 152.572 112.105 152.457L114.513 152.053C114.784 152.008 115.018 151.811 115.139 151.528L116.216 149.01C116.523 148.296 117.405 148.296 117.71 149.01Z" fill="#FF725E"/>
<path d="M303.861 288.701V264.506C303.861 255.152 297.291 247.569 289.185 247.569H217.818C209.712 247.569 203.142 255.152 203.142 264.506V306.674C203.142 316.028 209.712 323.611 217.818 323.611H289.185C297.29 323.611 303.861 316.028 303.861 306.674V300.987C305.839 301.53 307.968 301.355 309.839 300.43C312.392 299.169 314.412 296.549 315.202 293.476C311.1 295.261 306.022 293.087 303.861 288.701Z" fill="white"/>
<path d="M303.861 288.701C303.861 288.701 304.024 288.981 304.335 289.52C304.68 290.032 305.202 290.804 306.071 291.592C306.935 292.374 308.139 293.185 309.7 293.669C311.25 294.126 313.202 294.263 315.182 293.411L315.293 293.364L315.26 293.496C314.708 295.671 313.436 297.941 311.417 299.525C309.426 301.13 306.619 301.84 303.842 301.081L303.946 300.986C303.947 302.037 303.949 303.11 303.95 304.205C303.936 305.302 303.988 306.414 303.915 307.563C303.819 309.851 303.307 312.213 302.338 314.417C301.383 316.626 299.943 318.654 298.119 320.243C296.304 321.833 294.11 323.03 291.713 323.474C291.413 323.527 291.113 323.58 290.811 323.634C290.508 323.678 290.201 323.677 289.895 323.701C289.28 323.752 288.668 323.744 288.05 323.744C286.815 323.745 285.564 323.746 284.296 323.747C281.762 323.749 279.164 323.751 276.507 323.754C271.193 323.757 265.639 323.761 259.873 323.765C248.342 323.77 235.964 323.775 222.952 323.78C221.326 323.781 219.69 323.781 218.044 323.782C216.386 323.77 214.71 323.503 213.115 322.889C209.909 321.694 207.097 319.098 205.268 315.755C204.357 314.08 203.673 312.218 203.322 310.257C202.95 308.295 202.991 306.268 202.99 304.284C202.99 300.291 202.99 296.264 202.99 292.207C202.99 285.735 202.99 279.34 202.99 273.038C202.99 271.462 202.99 269.892 202.991 268.328C202.991 267.547 202.991 266.766 202.991 265.987C202.992 265.208 202.98 264.433 203.028 263.648C203.129 260.507 204.072 257.474 205.543 254.909C206.319 253.656 207.188 252.483 208.202 251.497C209.221 250.531 210.312 249.652 211.513 249.039C212.092 248.679 212.725 248.471 213.332 248.199C213.643 248.088 213.962 248.007 214.276 247.91C214.59 247.813 214.905 247.718 215.228 247.676L216.188 247.507C216.509 247.461 216.834 247.461 217.156 247.437C217.803 247.384 218.437 247.403 219.073 247.399C224.16 247.401 229.139 247.403 233.998 247.405C253.43 247.42 270.929 247.432 285.627 247.443C287.463 247.47 289.256 247.368 291.012 247.593C292.761 247.825 294.421 248.441 295.896 249.33C297.376 250.213 298.68 251.353 299.777 252.645C300.887 253.93 301.726 255.419 302.389 256.924C303.067 258.429 303.463 260.02 303.704 261.564C303.755 261.953 303.805 262.339 303.856 262.72C303.873 263.105 303.891 263.486 303.908 263.864C303.956 264.621 303.926 265.354 303.933 266.075C303.927 268.958 303.923 271.593 303.919 273.962C303.907 278.701 303.897 282.381 303.89 284.883C303.884 286.129 303.878 287.08 303.876 287.727C303.871 288.371 303.861 288.701 303.861 288.701C303.861 288.701 303.852 288.377 303.846 287.738C303.843 287.093 303.838 286.144 303.832 284.901C303.825 282.399 303.815 278.718 303.803 273.979C303.798 271.606 303.794 268.968 303.789 266.081C303.78 265.36 303.807 264.617 303.758 263.873C303.74 263.499 303.722 263.122 303.703 262.74C303.653 262.363 303.602 261.982 303.55 261.597C303.307 260.071 302.911 258.499 302.238 257.013C301.579 255.528 300.746 254.059 299.647 252.793C298.561 251.52 297.271 250.397 295.809 249.53C294.351 248.656 292.712 248.054 290.987 247.828C289.266 247.611 287.462 247.715 285.627 247.692C270.929 247.703 253.43 247.716 233.998 247.73C229.139 247.732 224.16 247.734 219.073 247.736C218.438 247.739 217.797 247.721 217.168 247.774C216.853 247.798 216.535 247.798 216.221 247.843L215.279 248.009C214.962 248.051 214.654 248.144 214.346 248.239C214.038 248.335 213.726 248.414 213.421 248.524C212.826 248.791 212.206 248.994 211.639 249.347C210.462 249.948 209.394 250.811 208.395 251.759C207.401 252.725 206.551 253.876 205.79 255.103C204.35 257.618 203.426 260.588 203.329 263.666C203.281 264.429 203.293 265.209 203.292 265.988C203.292 266.767 203.292 267.548 203.292 268.33C203.292 269.894 203.292 271.464 203.293 273.039C203.293 279.342 203.293 285.737 203.293 292.208C203.293 296.265 203.293 300.292 203.293 304.285C203.294 306.286 203.254 308.266 203.618 310.186C203.961 312.106 204.632 313.93 205.523 315.571C207.315 318.846 210.069 321.392 213.21 322.564C216.35 323.837 219.714 323.339 222.952 323.442C235.963 323.448 248.342 323.453 259.873 323.458C265.639 323.462 271.192 323.465 276.507 323.469C279.164 323.471 281.762 323.473 284.296 323.475C285.564 323.476 286.815 323.477 288.05 323.479C288.668 323.48 289.283 323.489 289.885 323.439C290.186 323.416 290.489 323.418 290.786 323.375C291.084 323.323 291.379 323.271 291.674 323.219C294.036 322.787 296.198 321.612 297.991 320.049C299.792 318.487 301.215 316.491 302.161 314.313C303.121 312.143 303.631 309.813 303.731 307.553C303.806 306.426 303.757 305.299 303.773 304.206C303.774 303.111 303.776 302.038 303.777 300.988V300.864L303.881 300.893C306.609 301.646 309.371 300.959 311.335 299.387C313.328 297.835 314.592 295.602 315.144 293.457L315.223 293.541C313.21 294.396 311.237 294.244 309.676 293.772C308.102 293.273 306.894 292.445 306.031 291.649C305.164 290.845 304.646 290.062 304.308 289.542C304.003 288.989 303.861 288.701 303.861 288.701Z" fill="#263238"/>
<path d="M287.077 273.962H219.927V283.299H287.077V273.962Z" fill="#E0E0E0"/>
<path d="M272.143 289.812H219.927V299.148H272.143V289.812Z" fill="#E0E0E0"/>
<path d="M210.497 169.553C210.497 169.553 208.257 159.141 206.63 155.841C205.003 152.541 201.247 147.877 200.203 148.712C199.159 149.547 200.46 150.962 201.048 152.219L202.639 154.47L203.15 156.374C203.15 156.374 201.084 156.629 201.185 158.707C201.185 158.707 199.871 158.6 199.822 160.536C199.822 160.536 198.469 161.131 198.912 163.15C199.333 165.071 200.096 165.443 200.526 165.112C200.767 164.927 201.008 164.216 201.008 164.216C201.008 164.216 202.757 167.985 203.768 168.701C204.472 169.201 205.054 169.568 205.054 169.568L205.154 172.529C205.154 172.529 206.058 174.101 208.375 171.384C210.691 168.669 210.497 169.553 210.497 169.553Z" fill="#FFBF9D"/>
<path d="M208.089 161.532C208.068 161.539 207.977 161.257 207.808 160.751C207.639 160.246 207.394 159.514 207.036 158.642C206.857 158.206 206.648 157.736 206.388 157.261C206.124 156.797 205.804 156.298 205.467 155.803C205.127 155.338 204.719 154.761 204.201 154.732C203.946 154.731 203.663 154.857 203.564 155.105C203.459 155.367 203.48 155.725 203.546 156.068C203.681 156.762 203.939 157.428 204.174 158.063C204.29 158.373 204.449 158.683 204.514 159.05C204.573 159.407 204.574 159.742 204.575 160.065C204.587 160.712 204.505 161.336 204.627 161.84C204.748 162.359 205.025 162.778 205.315 163.104C205.909 163.758 206.541 164.09 206.958 164.319C207.384 164.54 207.63 164.636 207.625 164.661C207.619 164.683 207.36 164.631 206.913 164.446C206.475 164.249 205.818 163.953 205.168 163.286C204.851 162.952 204.533 162.505 204.384 161.919C204.234 161.316 204.317 160.698 204.295 160.068C204.29 159.751 204.283 159.424 204.229 159.12C204.177 158.823 204.028 158.531 203.902 158.205C203.659 157.559 203.396 156.897 203.248 156.141C203.181 155.768 203.135 155.356 203.292 154.95C203.379 154.753 203.53 154.594 203.698 154.508C203.859 154.435 204.028 154.377 204.207 154.387C204.566 154.402 204.867 154.622 205.091 154.852C205.321 155.088 205.51 155.345 205.685 155.601C206.029 156.12 206.332 156.609 206.601 157.106C206.861 157.604 207.062 158.089 207.231 158.537C207.569 159.434 207.783 160.183 207.92 160.705C208.056 161.23 208.109 161.526 208.089 161.532Z" fill="#FF9A6C"/>
<path d="M201.346 158.847C201.374 158.816 201.75 159.256 202.15 160.126C202.343 160.562 202.568 161.094 202.65 161.772C202.69 162.424 202.66 163.219 202.215 163.874C201.989 164.185 201.705 164.439 201.318 164.471C201.108 164.479 200.922 164.325 200.825 164.172C200.721 164.017 200.659 163.854 200.602 163.709C200.37 163.119 200.203 162.568 200.088 162.098C199.856 161.156 199.814 160.551 199.851 160.544C199.897 160.534 200.014 161.118 200.293 162.022C200.433 162.474 200.616 163.004 200.856 163.573C200.967 163.854 201.116 164.145 201.315 164.128C201.535 164.113 201.807 163.909 201.979 163.654C202.346 163.128 202.396 162.401 202.371 161.803C202.316 161.206 202.121 160.667 201.956 160.234C201.617 159.362 201.31 158.878 201.346 158.847Z" fill="#FF9A6C"/>
<path d="M204.374 161.452C204.412 161.461 204.408 161.68 204.272 161.978C204.204 162.126 204.108 162.293 203.965 162.453C203.892 162.533 203.815 162.614 203.689 162.674C203.634 162.704 203.522 162.723 203.439 162.684C203.465 162.688 203.433 162.686 203.366 162.705C203.163 162.74 203.058 162.625 202.965 162.538C202.877 162.442 202.821 162.347 202.768 162.256C202.661 162.073 202.587 161.894 202.538 161.739C202.439 161.428 202.438 161.22 202.476 161.209C202.518 161.195 202.593 161.372 202.731 161.632C202.8 161.761 202.887 161.911 202.994 162.066C203.09 162.221 203.251 162.388 203.311 162.359C203.345 162.358 203.418 162.311 203.543 162.356L203.553 162.361L203.556 162.362C203.56 162.353 203.527 162.44 203.541 162.403V162.403L203.543 162.4L203.547 162.39C203.548 162.383 203.55 162.376 203.55 162.37C203.547 162.353 203.551 162.361 203.554 162.359C203.556 162.362 203.573 162.354 203.585 162.351C203.644 162.329 203.717 162.27 203.779 162.211C203.905 162.093 204.009 161.956 204.092 161.842C204.257 161.61 204.331 161.438 204.374 161.452Z" fill="#FF9A6C"/>
<path d="M235.433 303.451L232.406 322.53L226.242 336.823C225.798 337.853 226.202 339.103 227.123 339.543C227.639 339.79 228.221 339.737 228.694 339.394C231.704 337.214 242.741 329.13 242.895 327.719C243.073 326.086 247.245 307.839 247.245 307.839L235.433 303.451Z" fill="#263238"/>
<path d="M227.123 339.544L243.125 326.438L242.981 327.243C242.856 327.938 242.524 328.562 242.039 328.999C240.739 330.167 237.092 333.301 228.744 339.408C228.259 339.763 227.648 339.815 227.123 339.544Z" fill="#E0E0E0"/>
<g opacity="0.6">
<path d="M240.79 321.584C240.319 321.814 240.055 322.502 240.235 323.055C240.476 323.793 241.47 324.108 241.907 323.289C242.293 322.564 241.904 321.543 241.167 321.494C240.997 321.482 240.833 321.525 240.7 321.635" fill="white"/>
</g>
<path d="M232.963 331.201C232.868 331.255 232.491 330.238 231.492 329.69C230.508 329.108 229.578 329.379 229.557 329.26C229.543 329.212 229.756 329.061 230.149 328.998C230.538 328.933 231.107 328.997 231.655 329.308C232.202 329.621 232.592 330.103 232.783 330.5C232.979 330.899 233.005 331.186 232.963 331.201Z" fill="white"/>
<path d="M231.201 333.806C231.108 333.87 230.691 333.126 229.89 332.642C229.098 332.136 228.331 332.144 228.326 332.019C228.296 331.911 229.16 331.697 230.065 332.267C230.975 332.826 231.296 333.776 231.201 333.806Z" fill="white"/>
<path d="M235.419 328.633C235.338 328.724 234.53 327.73 233.223 327.118C231.923 326.481 230.742 326.52 230.741 326.391C230.715 326.287 231.969 326.046 233.364 326.725C234.764 327.386 235.501 328.581 235.419 328.633Z" fill="white"/>
<path d="M236.303 325.067C236.238 325.17 235.408 324.514 234.234 324.183C233.063 323.832 232.063 323.955 232.048 323.829C232.02 323.725 233.065 323.396 234.323 323.77C235.585 324.13 236.37 324.991 236.303 325.067Z" fill="white"/>
<path d="M241.551 307.334L246.644 320.912C246.644 320.912 236.396 331.446 237.125 334.061L260.291 323.611L253.108 302.079L241.551 307.334Z" fill="#263238"/>
<path d="M260.291 323.611L259.596 321.525L237.581 332.292C237.581 332.292 236.725 333.275 237.126 334.061L260.291 323.611Z" fill="#E0E0E0"/>
<path d="M246.222 320.945C246.27 321.074 246.856 320.878 247.555 321.047C248.258 321.194 248.736 321.631 248.822 321.532C248.918 321.46 248.485 320.756 247.636 320.568C246.788 320.372 246.157 320.837 246.222 320.945Z" fill="white"/>
<path d="M244.185 323.202C244.202 323.34 244.768 323.34 245.339 323.72C245.92 324.079 246.219 324.632 246.329 324.576C246.443 324.549 246.262 323.749 245.544 323.293C244.83 322.83 244.146 323.076 244.185 323.202Z" fill="white"/>
<path d="M243.942 327.18C244.054 327.161 243.991 326.438 243.458 325.854C242.929 325.266 242.3 325.224 242.289 325.355C242.261 325.491 242.734 325.72 243.165 326.207C243.607 326.682 243.825 327.218 243.942 327.18Z" fill="white"/>
<path d="M278.007 245.627C278.007 245.627 276.846 254.24 271.321 255.893C265.796 257.546 255.206 264.925 255.206 264.925C255.206 264.925 254.334 282.369 252.14 291.125C249.945 299.882 245.014 318.939 245.014 318.939L232.301 315.67C232.301 315.67 239.123 264.697 240.346 255.146C241.569 245.596 253.262 237.037 253.262 237.037L256.511 221.252L271.426 220.72C271.426 220.72 279.127 237.619 278.007 245.627Z" fill="#263238"/>
<path d="M240.967 219.532C241.067 220.217 235.984 228.412 235.218 231.114C235.218 231.114 221.417 242.009 224.206 262.005C227.654 286.721 242.901 315.471 243.015 314.472L256.164 308.14C256.164 308.14 246.244 265.435 246.569 264.957C246.893 264.479 253.499 237.874 253.499 237.874L256.511 221.252L240.967 219.532Z" fill="#263238"/>
<path d="M263.055 232.429C263.055 232.429 262.912 232.47 262.632 232.533C262.35 232.588 261.938 232.715 261.404 232.899C260.337 233.272 258.796 233.957 256.875 235.003C255.915 235.526 254.859 236.138 253.72 236.845C253.141 237.171 252.613 237.658 252.035 238.117C251.466 238.59 250.884 239.097 250.294 239.639C249.109 240.719 247.885 241.938 246.671 243.332C245.465 244.729 244.224 246.264 243.148 248.073C242.077 249.87 241.103 251.919 240.641 254.241C240.585 254.532 240.529 254.823 240.471 255.116C240.431 255.416 240.39 255.717 240.349 256.02C240.269 256.626 240.189 257.238 240.107 257.857C239.945 259.093 239.779 260.352 239.61 261.634C238.933 266.76 238.209 272.242 237.447 278.018C235.916 289.57 234.228 302.295 232.452 315.696L232.334 315.498C233.302 315.746 234.345 316.015 235.392 316.284C238.663 317.126 241.892 317.956 245.048 318.769L244.871 318.889C247.473 308.682 250.008 298.977 252.251 290.013C253.234 285.497 253.729 281.05 254.168 276.848C254.582 272.639 254.887 268.647 255.093 264.918L255.097 264.848L255.148 264.813C259.091 262.126 262.748 259.864 266.061 258.108C267.72 257.238 269.293 256.489 270.798 255.979C271.177 255.857 271.537 255.721 271.885 255.582C272.243 255.469 272.559 255.264 272.872 255.078C273.496 254.7 274.028 254.214 274.49 253.711C275.41 252.69 276.028 251.569 276.49 250.569C276.949 249.564 277.254 248.662 277.464 247.922C277.679 247.183 277.809 246.606 277.889 246.217C277.971 245.828 278.008 245.627 278.008 245.627C278.008 245.627 277.935 246.452 277.527 247.945C277.326 248.692 277.029 249.602 276.575 250.621C276.119 251.633 275.505 252.773 274.578 253.817C274.113 254.332 273.574 254.831 272.94 255.222C272.621 255.414 272.3 255.626 271.934 255.744C271.577 255.889 271.212 256.03 270.841 256.152C269.352 256.667 267.787 257.422 266.137 258.299C262.84 260.068 259.193 262.344 255.266 265.039L255.321 264.934C255.124 268.671 254.828 272.666 254.423 276.883C253.99 281.093 253.503 285.545 252.52 290.095C250.285 299.08 247.761 308.777 245.161 318.99L245.121 319.145L244.983 319.11C241.827 318.298 238.598 317.468 235.327 316.627C234.28 316.358 233.237 316.089 232.27 315.841L232.131 315.805L232.152 315.643C233.938 302.244 235.634 289.521 237.173 277.971C237.946 272.197 238.68 266.717 239.365 261.592C239.537 260.311 239.706 259.052 239.872 257.817C239.954 257.199 240.037 256.587 240.118 255.981C240.159 255.678 240.201 255.376 240.242 255.076C240.301 254.777 240.359 254.479 240.418 254.183C240.895 251.811 241.89 249.743 242.977 247.933C244.068 246.111 245.322 244.574 246.54 243.175C247.764 241.781 248.999 240.564 250.193 239.487C250.788 238.947 251.374 238.443 251.947 237.971C252.527 237.517 253.065 237.027 253.655 236.7C254.8 236 255.862 235.397 256.829 234.882C258.76 233.852 260.313 233.186 261.39 232.832C262.464 232.476 263.055 232.429 263.055 232.429Z" fill="#455A64"/>
<path d="M244.99 234.186C245.027 234.103 246.504 234.931 248.187 236.225C249.872 237.514 251.105 238.764 251.054 238.836C250.999 238.914 249.69 237.796 248.018 236.516C246.349 235.234 244.948 234.275 244.99 234.186Z" fill="#455A64"/>
<path d="M255.55 258.498C255.626 258.486 255.825 260.091 255.622 262.062C255.428 264.035 254.915 265.544 254.843 265.512C254.756 265.481 255.13 263.954 255.32 262.021C255.519 260.091 255.459 258.505 255.55 258.498Z" fill="#455A64"/>
<path d="M268.541 158.088C269.719 153.916 270.897 149.746 272.076 145.574L274.685 139.878C276.582 138.629 280.528 141.335 281.858 143.334C283.187 145.334 283.446 148.052 283.124 150.546C282.911 152.197 282.481 153.967 283.114 155.468C283.84 157.191 285.762 157.987 286.319 159.791C286.683 160.97 286.346 162.318 285.704 163.326C285.063 164.334 284.152 165.066 283.246 165.752C282.429 166.372 281.585 166.98 280.639 167.263C279.693 167.545 278.617 167.456 277.84 166.773C277.805 168.424 276.498 169.842 275.072 169.978C273.645 170.115 272.236 169.106 271.538 167.663C270.84 166.221 270.803 164.429 271.249 162.859C270.856 163.701 269.776 163.873 269.078 163.358C268.38 162.843 268.048 161.838 268.036 160.882C268.024 159.926 268.284 158.997 268.541 158.088Z" fill="#263238"/>
<path d="M274.242 139.971C272.502 134.985 269.342 131.336 264.92 129.648C262.426 128.695 261.225 128.922 259.267 128.833C257.309 128.744 255.377 129.274 253.822 130.65C251.975 132.285 250.264 134.244 249.332 136.705C248.375 139.233 247.412 141.779 246.872 144.467C246.332 147.155 246.234 150.023 246.996 152.638L252.471 155.888C255.635 157.167 258.844 158.458 262.187 158.74C265.531 159.022 269.081 158.18 271.603 155.631C275.105 152.088 275.981 144.957 274.242 139.971Z" fill="#263238"/>
<path d="M260.252 131.285L262.342 131.742L269.102 138.068C270.199 138.535 270.804 139.894 270.494 141.196L262.132 168.99L249.537 169.553L251.219 162.647C251.219 162.647 246.212 160.202 246.799 152.748C247.091 149.041 248.529 143.243 249.838 138.544C251.017 134.313 255.71 129.667 260.252 131.285Z" fill="#FFBF9D"/>
<path d="M256.318 154.388C256.376 154.005 256.286 153.616 256.121 153.31C255.79 152.7 255.141 152.419 254.553 152.629C253.964 152.84 253.473 153.53 253.365 154.298C253.52 154.827 253.857 155.268 254.304 155.479C254.374 155.512 254.445 155.541 254.517 155.565C254.869 155.68 255.261 155.673 255.608 155.472C255.955 155.271 256.247 154.861 256.318 154.388Z" fill="#FF9A6C"/>
<path d="M250.253 145.185C250.131 145.666 250.384 146.181 250.817 146.337C251.249 146.492 251.698 146.229 251.819 145.748C251.941 145.267 251.688 144.751 251.256 144.596C250.823 144.441 250.374 144.704 250.253 145.185Z" fill="#263238"/>
<path d="M250.583 141.398C250.656 141.547 251.372 141.208 252.228 141.461C253.087 141.7 253.604 142.393 253.723 142.298C253.781 142.258 253.727 142.013 253.504 141.703C253.285 141.395 252.874 141.038 252.34 140.884C251.806 140.731 251.306 140.826 250.998 140.984C250.684 141.139 250.546 141.33 250.583 141.398Z" fill="#263238"/>
<path d="M253.932 150.976C253.948 150.921 253.439 150.66 252.604 150.279C252.391 150.19 252.194 150.079 252.195 149.895C252.184 149.698 252.335 149.452 252.506 149.19C252.845 148.639 253.202 148.061 253.575 147.456C255.074 144.981 256.219 142.92 256.132 142.851C256.045 142.783 254.759 144.732 253.26 147.207C252.895 147.819 252.547 148.402 252.215 148.96C252.069 149.223 251.856 149.507 251.884 149.918C251.902 150.124 252.033 150.308 252.163 150.393C252.292 150.483 252.414 150.521 252.521 150.561C253.378 150.869 253.916 151.032 253.932 150.976Z" fill="#263238"/>
<path d="M251.211 162.635C251.211 162.635 255.319 164.167 260.088 162.506C260.088 162.506 256.823 167.036 250.755 164.548L251.211 162.635Z" fill="#FF9A6C"/>
<path d="M256.303 152.397C256.166 152.347 255.928 153.42 254.965 153.949C254.002 154.481 253.038 154.07 252.997 154.218C252.97 154.282 253.173 154.491 253.588 154.627C253.995 154.763 254.628 154.786 255.217 154.462C255.806 154.137 256.151 153.575 256.279 153.144C256.413 152.706 256.368 152.41 256.303 152.397Z" fill="#263238"/>
<path d="M251.793 138.097C251.884 138.381 252.575 138.411 253.326 138.709C254.084 138.978 254.66 139.425 254.876 139.257C254.974 139.172 254.942 138.913 254.73 138.592C254.522 138.274 254.118 137.917 253.599 137.722C253.081 137.527 252.575 137.541 252.246 137.657C251.912 137.773 251.755 137.961 251.793 138.097Z" fill="#263238"/>
<path d="M259.291 147.963C259.183 148.448 258.739 148.743 258.297 148.623C257.857 148.503 257.586 148.013 257.693 147.527C257.801 147.042 258.246 146.746 258.686 146.866C259.128 146.987 259.398 147.478 259.291 147.963Z" fill="#263238"/>
<path d="M262.086 145.135C261.958 145.22 261.491 144.508 260.641 144.223C259.797 143.924 259.047 144.217 258.985 144.066C258.954 143.998 259.108 143.817 259.437 143.681C259.761 143.545 260.272 143.478 260.8 143.66C261.328 143.843 261.714 144.217 261.912 144.534C262.113 144.854 262.148 145.098 262.086 145.135Z" fill="#263238"/>
<path d="M262.422 141.837C262.199 142.002 261.603 141.55 260.819 141.273C260.043 140.967 259.328 140.93 259.234 140.645C259.195 140.51 259.357 140.322 259.702 140.21C260.042 140.098 260.565 140.089 261.101 140.289C261.638 140.49 262.055 140.85 262.271 141.171C262.491 141.494 262.524 141.754 262.422 141.837Z" fill="#263238"/>
<path d="M266.239 152.657C266.357 152.123 267.168 151.021 267.643 151.073C268.91 151.21 271.083 151.966 270.319 155.545C269.275 160.439 265.233 158.219 265.255 158.077C265.272 157.965 265.831 154.498 266.239 152.657Z" fill="#FFBF9D"/>
<path d="M266.807 156.622C266.829 156.612 266.868 156.703 266.978 156.804C267.086 156.903 267.287 157.007 267.528 156.974C268.016 156.912 268.569 156.198 268.777 155.322C268.883 154.88 268.893 154.433 268.831 154.043C268.778 153.648 268.631 153.341 268.415 153.231C268.204 153.107 268.011 153.217 267.929 153.34C267.843 153.461 267.849 153.566 267.825 153.568C267.811 153.577 267.752 153.461 267.829 153.269C267.867 153.176 267.941 153.074 268.061 153.009C268.183 152.942 268.343 152.936 268.496 153.001C268.817 153.12 269.038 153.551 269.106 153.979C269.191 154.414 269.189 154.919 269.071 155.416C268.833 156.395 268.199 157.193 267.542 157.223C267.225 157.228 266.998 157.053 266.894 156.901C266.789 156.742 266.79 156.626 266.807 156.622Z" fill="#FF9A6C"/>
<path d="M267.809 151.148L266.409 152.032C263.21 145.342 257.71 129.499 258.003 130.431C258.003 130.431 261.533 130.075 264.746 131.967C267.959 133.859 273.866 138.142 272.516 142.726C271.166 147.31 267.809 151.148 267.809 151.148Z" fill="#263238"/>
<path d="M275.217 140.337C275.165 140.36 275.561 141.31 275.828 142.956C276.1 144.587 276.163 146.961 275.478 149.386C274.792 151.812 273.527 153.686 272.473 154.817C271.417 155.964 270.61 156.461 270.641 156.516C270.649 156.533 270.857 156.425 271.21 156.182C271.563 155.942 272.055 155.549 272.609 154.988C273.717 153.882 275.044 151.981 275.749 149.487C276.454 146.995 276.354 144.556 276.026 142.909C275.865 142.079 275.668 141.427 275.506 140.992C275.345 140.557 275.233 140.328 275.217 140.337Z" fill="#455A64"/>
<path d="M285.921 244.539L292.22 246.514C292.22 246.514 297.266 246.058 298.131 247.082C298.997 248.106 301.178 251.076 301.178 251.076C301.178 251.076 302.53 251.499 302.196 251.998C301.862 252.498 300.71 252.634 299.879 252.38C299.048 252.126 293.537 250.066 293.537 250.066C293.537 250.066 292.973 251.927 291.685 251.45C290.397 250.974 287.907 249.767 287.122 249.576C286.336 249.386 280.974 248.687 280.653 248.243C280.333 247.798 279.382 241.401 279.382 241.401L284.509 240.11L285.921 244.539Z" fill="#FFBF9D"/>
<path d="M294.66 247.926C294.695 247.839 296.197 248.489 298.013 249.378C299.829 250.268 301.277 251.063 301.247 251.154C301.217 251.244 299.716 250.594 297.893 249.702C296.073 248.809 294.624 248.015 294.66 247.926Z" fill="#FF9A6C"/>
<path d="M288.374 247.11C288.398 247.021 289.649 247.405 291.088 248.19C291.808 248.582 292.433 248.986 292.872 249.322C293.319 249.665 293.494 250.017 293.459 250.041C293.424 250.071 293.21 249.804 292.76 249.534C292.308 249.263 291.667 248.894 290.958 248.507C289.539 247.733 288.346 247.205 288.374 247.11Z" fill="#FF9A6C"/>
<path d="M245.792 168.112C245.792 168.112 239.126 167.828 235.541 170.604C231.956 173.381 219.478 184.531 219.478 184.531L211.145 166.723L203.173 172.447C203.173 172.447 211.221 197.895 217.198 199.772C225.116 202.26 236.23 190.447 236.23 190.447L245.792 168.112Z" fill="#FF725E"/>
<path d="M241.326 168.495L250.591 166.691L262.395 166.167L269.605 168.883L260.324 184.577L247.365 186.734L241.326 168.495Z" fill="#FFBF9D"/>
<path d="M270.722 191.781C270.722 192.571 270.347 208.367 271.832 213.501C273.317 218.634 279.545 242.467 279.545 242.467L286.469 241.317L281.923 207.77C281.923 207.77 279.966 179.293 279.191 176.25C277.842 170.95 273.892 170.246 273.892 170.246L270.722 191.781Z" fill="#FF725E"/>
<path d="M274.484 170.485C274.006 170.326 265.105 167.188 265.105 167.188C265.105 167.188 259.895 177.956 252.639 176.744C246.429 175.706 246.032 167.612 246.032 167.612L239.859 168.771C239.263 168.398 233.364 195.005 237.306 201.544C240.551 206.929 240.598 208.204 240.598 208.204C241.455 208.157 236.655 223.36 237.476 225.177C244.768 241.316 274.484 224.766 274.484 224.766L271.573 205.439L274.484 170.485Z" fill="#FF725E"/>
<path d="M273.798 179.353C273.809 179.355 273.799 179.515 273.771 179.82C273.736 180.159 273.691 180.601 273.635 181.149C273.501 182.343 273.315 184 273.087 186.03C272.855 188.091 272.579 190.544 272.317 193.273C272.047 196 271.798 199.006 271.694 202.167C271.587 205.329 271.695 208.345 271.997 211.062C272.297 213.78 272.726 216.203 273.137 218.224C273.538 220.248 273.895 221.878 274.138 223.005C274.25 223.543 274.341 223.975 274.41 224.306C274.469 224.605 274.496 224.763 274.485 224.766C274.475 224.769 274.429 224.617 274.351 224.324C274.267 223.997 274.159 223.57 274.024 223.04C273.746 221.922 273.357 220.301 272.928 218.28C272.489 216.263 272.037 213.835 271.719 211.102C271.4 208.371 271.282 205.33 271.39 202.154C271.496 198.978 271.754 195.964 272.04 193.235C272.317 190.504 272.615 188.053 272.874 185.996C273.13 183.938 273.357 182.277 273.518 181.129C273.598 180.584 273.662 180.146 273.711 179.809C273.758 179.509 273.788 179.351 273.798 179.353Z" fill="#263238"/>
<path d="M237.09 182.499C237.111 182.505 237.072 182.848 236.983 183.466C236.888 184.082 236.769 184.977 236.622 186.081C236.495 187.188 236.341 188.507 236.266 189.979C236.175 191.449 236.157 193.072 236.283 194.763C236.408 196.453 236.66 198.049 237.024 199.458C237.407 200.857 237.823 202.097 238.28 203.078C239.164 205.059 239.913 206.153 239.858 206.196C239.842 206.211 239.653 205.942 239.325 205.439C239.158 205.191 238.961 204.881 238.761 204.498C238.556 204.119 238.307 203.697 238.09 203.192C237.602 202.215 237.159 200.967 236.755 199.551C236.371 198.125 236.106 196.505 235.98 194.792C235.852 193.078 235.879 191.436 235.986 189.955C236.077 188.472 236.254 187.148 236.409 186.041C236.584 184.937 236.735 184.047 236.867 183.438C236.991 182.829 237.069 182.494 237.09 182.499Z" fill="#263238"/>
<path d="M264.386 210.13C264.389 210.142 264.269 210.193 264.038 210.28C263.806 210.366 263.464 210.492 263.021 210.641C262.135 210.944 260.847 211.358 259.244 211.822C257.641 212.283 255.723 212.796 253.58 213.285C252.509 213.532 251.381 213.773 250.208 214.001C249.621 214.111 249.024 214.222 248.418 214.336C247.821 214.425 247.183 214.633 246.506 214.424C246.178 214.337 245.818 214.026 245.756 213.582C245.675 213.137 245.895 212.725 246.129 212.474C246.622 211.943 247.212 211.723 247.732 211.403C248.805 210.807 249.852 210.263 250.858 209.769C252.871 208.78 254.721 207.996 256.289 207.395C257.858 206.791 259.144 206.368 260.038 206.095C260.484 205.956 260.833 205.861 261.071 205.798C261.308 205.735 261.433 205.708 261.436 205.72C261.439 205.732 261.318 205.782 261.086 205.866C260.823 205.959 260.487 206.079 260.07 206.227C259.188 206.539 257.913 206.998 256.358 207.629C254.802 208.259 252.967 209.064 250.968 210.066C249.968 210.567 248.928 211.115 247.861 211.713C247.338 212.033 246.747 212.272 246.339 212.725C246.136 212.948 246 213.234 246.053 213.515C246.096 213.804 246.311 214.003 246.587 214.087C247.148 214.268 247.765 214.086 248.371 213.991C248.976 213.88 249.572 213.771 250.158 213.663C251.329 213.44 252.455 213.207 253.526 212.969C255.668 212.499 257.586 212.012 259.194 211.582C260.8 211.149 262.095 210.773 262.99 210.51C263.412 210.388 263.754 210.29 264.021 210.213C264.258 210.147 264.384 210.119 264.386 210.13Z" fill="#263238"/>
</svg>
