<svg width="293" height="349" viewBox="0 0 293 349" fill="none" xmlns="http://www.w3.org/2000/svg">
<path d="M251.797 110.653C268.479 110.653 282.002 94.5458 282.002 74.6762C282.002 54.8067 268.479 38.6992 251.797 38.6992C235.116 38.6992 221.593 54.8067 221.593 74.6762C221.593 94.5458 235.116 110.653 251.797 110.653Z" fill="#F5F5F5"/>
<path d="M262.783 73.9873C261.859 76.3661 262.336 78.9703 263.849 79.8044C265.362 80.6379 267.337 79.3856 268.261 77.0069C269.185 74.6281 268.707 72.0238 267.195 71.1904C265.683 70.3563 263.707 71.6085 262.783 73.9873Z" fill="#E0E0E0"/>
<path d="M239.999 61.4317C239.075 63.8105 239.553 66.4147 241.065 67.2481C242.578 68.0815 244.553 66.8293 245.477 64.4505C246.401 62.0718 245.924 59.4675 244.411 58.6334C242.899 57.8 240.923 59.0529 239.999 61.4317Z" fill="#E0E0E0"/>
<path d="M242.028 70.283C239.46 76.8959 241.612 84.5899 246.835 87.4685C252.059 90.347 258.375 87.3198 260.944 80.7076L242.028 70.283Z" fill="#E0E0E0"/>
<path d="M242.597 82.9978C242.597 82.9978 245.565 81.1907 248.62 82.8743C251.675 84.5578 252.452 88.4289 252.452 88.4289C252.452 88.4289 246.458 89.5206 242.597 82.9978Z" fill="#EBEBEB"/>
<path d="M86.0067 106.091H21.6856C19.3211 106.091 17.4043 103.808 17.4043 100.991V79.9168C17.4043 77.1004 19.3211 74.8172 21.6856 74.8172H86.0067C88.3712 74.8172 90.288 77.1004 90.288 79.9168V100.991C90.288 103.809 88.3712 106.091 86.0067 106.091Z" fill="#F5F5F5"/>
<path d="M29.8352 96.0008C32.4816 96.0008 34.6269 93.4454 34.6269 90.2932C34.6269 87.1411 32.4816 84.5857 29.8352 84.5857C27.1888 84.5857 25.0435 87.1411 25.0435 90.2932C25.0435 93.4454 27.1888 96.0008 29.8352 96.0008Z" fill="#E0E0E0"/>
<path d="M75.8629 87.6401H37.9575V90.2939H75.8629V87.6401Z" fill="#E0E0E0"/>
<path d="M53.2533 92.3231H37.9575V94.9769H53.2533V92.3231Z" fill="#E0E0E0"/>
<path d="M264.956 201.654H200.635C198.271 201.654 196.354 199.371 196.354 196.555V175.48C196.354 172.664 198.271 170.38 200.635 170.38H264.956C267.321 170.38 269.238 172.664 269.238 175.48V196.555C269.238 199.371 267.321 201.654 264.956 201.654Z" fill="#F5F5F5"/>
<path d="M208.785 191.564C211.431 191.564 213.577 189.009 213.577 185.856C213.577 182.704 211.431 180.149 208.785 180.149C206.138 180.149 203.993 182.704 203.993 185.856C203.993 189.009 206.138 191.564 208.785 191.564Z" fill="#E0E0E0"/>
<path d="M254.813 183.203H216.907V185.856H254.813V183.203Z" fill="#E0E0E0"/>
<path d="M232.203 187.885H216.907V190.539H232.203V187.885Z" fill="#E0E0E0"/>
<path d="M22.9811 187.476L26.6043 189.699C27.0116 189.949 27.4968 189.944 27.9006 189.686L31.4922 187.391C32.5095 186.741 33.7107 187.762 33.525 189.119L32.8698 193.911C32.796 194.45 32.9501 194.997 33.2806 195.375L36.2229 198.735C37.0562 199.686 36.612 201.363 35.4711 201.572L31.4429 202.31C30.99 202.393 30.6003 202.737 30.401 203.228L28.6284 207.599C28.1262 208.837 26.65 208.852 26.1308 207.624L24.2961 203.289C24.0898 202.801 23.6954 202.466 23.2413 202.392L19.2031 201.735C18.0593 201.548 17.5916 199.881 18.4115 198.913L21.3057 195.495C21.6315 195.111 21.7774 194.56 21.696 194.023L20.9735 189.245C20.7678 187.892 21.9544 186.846 22.9811 187.476Z" fill="#E0E0E0"/>
<path d="M197.004 104.038L198.727 106.021C198.921 106.245 199.194 106.34 199.458 106.276L201.807 105.711C202.472 105.551 203.003 106.368 202.704 107.095L201.653 109.659C201.534 109.948 201.542 110.287 201.675 110.567L202.852 113.052C203.186 113.757 202.696 114.61 202.024 114.497L199.651 114.098C199.385 114.053 199.116 114.168 198.934 114.404L197.313 116.505C196.854 117.101 196.021 116.81 195.904 116.014L195.49 113.203C195.443 112.887 195.269 112.618 195.024 112.485L192.845 111.297C192.228 110.961 192.202 109.928 192.802 109.549L194.918 108.211C195.156 108.06 195.317 107.78 195.348 107.461L195.622 104.626C195.7 103.824 196.517 103.476 197.004 104.038Z" fill="#E0E0E0"/>
<path d="M42.1913 32.4067L44.8119 35.4256C45.1067 35.7648 45.5227 35.91 45.9247 35.8137L49.4982 34.9537C50.5102 34.7101 51.3177 35.9547 50.8641 37.0596L49.2638 40.9614C49.0839 41.4005 49.0967 41.9163 49.2977 42.3421L51.0886 46.1245C51.596 47.196 50.8518 48.4949 49.8292 48.3225L46.2195 47.7153C45.8134 47.6469 45.4049 47.8207 45.1278 48.1808L42.6613 51.3784C41.9628 52.2844 40.6953 51.8426 40.5165 50.6308L39.886 46.3535C39.8151 45.8726 39.5502 45.4635 39.1769 45.2604L35.8614 43.454C34.9226 42.9424 34.8833 41.3705 35.7957 40.7939L39.0158 38.7578C39.3779 38.5289 39.6223 38.1024 39.6692 37.6173L40.087 33.3037C40.206 32.0815 41.4494 31.5517 42.1913 32.4067Z" fill="#E0E0E0"/>
<path d="M268.647 310.215C268.647 310.315 212.381 310.396 142.99 310.396C73.5748 310.396 17.3218 310.315 17.3218 310.215C17.3218 310.115 73.5748 310.033 142.99 310.033C212.381 310.033 268.647 310.115 268.647 310.215Z" fill="#263238"/>
<path d="M162.099 34.3311L78.8989 34.2746C68.8865 34.2683 60.7669 43.6404 60.7651 55.2055L60.7241 296.147C60.7224 307.706 68.8303 317.08 78.8368 317.086L162.036 317.143C172.049 317.15 180.169 307.778 180.17 296.212L180.211 55.2697C180.214 43.7116 172.106 34.3374 162.099 34.3311Z" fill="#263238"/>
<path d="M162.011 42.8537L145.88 42.8426L98.7695 42.8105L93.0964 42.8063L78.9779 42.7965C71.9664 42.7923 66.2793 49.4268 66.2781 57.6144L66.2383 295.335C66.2371 303.518 71.9155 310.154 78.9234 310.159L161.957 310.216C168.969 310.221 174.655 303.586 174.657 295.399L174.697 57.6772C174.698 49.4938 169.019 42.8586 162.011 42.8537Z" fill="white"/>
<path d="M162.011 42.8537C162.011 42.8537 162.152 42.8558 162.43 42.8691C162.57 42.8761 162.744 42.8852 162.95 42.8956C163.158 42.8998 163.399 42.9194 163.67 42.9773C163.943 43.0255 164.249 43.0785 164.587 43.1385C164.919 43.237 165.283 43.3451 165.678 43.4624C166.069 43.5999 166.48 43.794 166.927 43.9775C167.353 44.2211 167.826 44.4459 168.29 44.7677C169.236 45.3791 170.207 46.2453 171.153 47.3531C172.1 48.4622 172.96 49.8931 173.621 51.5941C174.277 53.2951 174.708 55.2921 174.739 57.4552C174.744 59.6071 174.749 61.8987 174.754 64.3256C174.763 83.7426 174.774 111.834 174.789 146.544C174.793 181.258 174.797 222.59 174.801 268.484C174.801 274.221 174.801 280.029 174.801 285.905C174.801 288.843 174.801 291.797 174.801 294.768C174.814 295.507 174.763 296.266 174.724 297.015C174.626 297.76 174.548 298.51 174.361 299.235C174.032 300.691 173.529 302.106 172.822 303.371C171.455 305.942 169.391 307.967 167.025 309.177C165.831 309.756 164.571 310.137 163.284 310.313C161.986 310.426 160.709 310.385 159.422 310.392C154.277 310.389 149.082 310.386 143.841 310.383C122.876 310.37 101.17 310.357 78.9382 310.343C76.133 310.307 73.3161 309.266 71.101 307.215C69.9882 306.208 69.0131 304.993 68.2243 303.623C67.4362 302.251 66.8701 300.71 66.5115 299.114C66.3116 298.32 66.2273 297.494 66.1429 296.677L66.0895 295.44L66.0854 294.216C66.086 292.586 66.086 290.96 66.0866 289.336C66.0872 286.088 66.0878 282.851 66.0884 279.627C66.0913 266.727 66.0942 254.018 66.0972 241.529C66.1042 216.552 66.1112 192.459 66.1183 169.508C66.1271 146.557 66.1353 124.748 66.1435 104.337C66.1482 94.1316 66.1528 84.2759 66.1569 74.8026C66.1593 70.066 66.1616 65.4243 66.164 60.8824C66.1663 59.7467 66.1687 58.6167 66.171 57.4936C66.1997 56.3614 66.2935 55.2349 66.5279 54.1488C66.9744 51.9717 67.8382 49.9517 68.9996 48.2577C71.3284 44.8493 74.8585 42.888 78.3411 42.7148C81.8154 42.6443 85.1844 42.703 88.4683 42.6911C95.0321 42.7009 101.221 42.71 107.009 42.7183C118.583 42.7386 128.554 42.7553 136.703 42.7693C144.849 42.7895 151.176 42.8056 155.468 42.8161C157.611 42.8251 159.246 42.8328 160.348 42.8377C161.448 42.8405 162.011 42.8537 162.011 42.8537C162.011 42.8537 161.448 42.8656 160.349 42.8712C159.247 42.8747 157.612 42.8796 155.469 42.8859C151.176 42.8907 144.85 42.8977 136.703 42.9075C128.554 42.9103 118.584 42.9138 107.009 42.918C101.221 42.918 95.0315 42.9187 88.4683 42.9194C85.189 42.9361 81.8055 42.8824 78.351 42.9564C74.9229 43.1309 71.4526 45.065 69.166 48.4182C68.0263 50.085 67.1795 52.0708 66.7424 54.2088C66.2636 56.3461 66.4148 58.6111 66.3896 60.8803C66.3902 65.4222 66.3913 70.0639 66.3919 74.8005C66.3931 84.2745 66.3943 94.1302 66.396 104.335C66.3972 124.746 66.3978 146.555 66.399 169.506C66.3978 192.457 66.3966 216.55 66.396 241.527C66.3949 254.016 66.3931 266.725 66.3919 279.624C66.3913 282.849 66.3913 286.086 66.3908 289.334C66.3908 290.958 66.3902 292.584 66.3902 294.214L66.3943 295.436L66.4464 296.642C66.529 297.44 66.6105 298.246 66.8062 299.02C67.1555 300.576 67.7075 302.079 68.4769 303.418C69.2469 304.754 70.1992 305.941 71.285 306.924C73.448 308.928 76.1969 309.942 78.9382 309.978C101.17 309.994 122.876 310.01 143.841 310.027C149.082 310.031 154.277 310.035 159.422 310.039C160.707 310.033 161.998 310.073 163.255 309.964C164.513 309.791 165.744 309.419 166.911 308.855C169.224 307.673 171.241 305.694 172.577 303.183C173.268 301.947 173.759 300.566 174.081 299.145C174.265 298.438 174.34 297.705 174.436 296.977C174.474 296.242 174.524 295.515 174.512 294.768C174.514 291.798 174.514 288.843 174.515 285.905C174.517 280.03 174.519 274.221 174.521 268.484C174.541 222.59 174.559 181.257 174.575 146.544C174.601 111.834 174.622 83.7426 174.637 64.3256C174.636 61.8994 174.635 59.6085 174.635 57.4573C174.609 55.3131 174.187 53.33 173.539 51.6395C172.887 49.9489 172.038 48.5236 171.1 47.4173C170.163 46.3123 169.2 45.4454 168.261 44.8326C167.8 44.5101 167.331 44.284 166.908 44.0383C166.463 43.8526 166.055 43.6558 165.667 43.5162C165.273 43.3961 164.911 43.2851 164.58 43.1846C164.243 43.1218 163.939 43.0652 163.668 43.015C163.397 42.9543 163.158 42.9319 162.95 42.9249C162.744 42.911 162.571 42.8991 162.431 42.8893C162.152 42.8684 162.011 42.8537 162.011 42.8537Z" fill="#263238"/>
<path d="M62.1779 99.3442H59.2702C58.8377 99.3442 58.4873 98.9268 58.4873 98.4117V68.9701C58.4873 68.4549 58.8377 68.0375 59.2702 68.0375H62.1779C62.6104 68.0375 62.9608 68.4549 62.9608 68.9701V98.411C62.9608 98.9261 62.6104 99.3442 62.1779 99.3442Z" fill="#263238"/>
<path d="M62.1779 136.318H59.2702C58.8377 136.318 58.4873 135.901 58.4873 135.385V105.945C58.4873 105.429 58.8377 105.012 59.2702 105.012H62.1779C62.6104 105.012 62.9608 105.429 62.9608 105.945V135.385C62.9608 135.901 62.6104 136.318 62.1779 136.318Z" fill="#263238"/>
<path d="M181.666 147.702H178.758C178.326 147.702 177.975 147.284 177.975 146.769V94.5602C177.975 94.045 178.326 93.6276 178.758 93.6276H181.666C182.098 93.6276 182.449 94.045 182.449 94.5602V146.769C182.449 147.284 182.098 147.702 181.666 147.702Z" fill="#263238"/>
<path d="M36.8389 196.33C42.2148 199.647 46.3368 205.357 49.3007 211.645C52.2647 217.933 54.1751 224.833 56.0673 231.683L57.7233 267.01C51.4684 254.335 46.4475 239.435 45.0915 224.822C46.4792 224.674 47.8662 224.527 49.2539 224.38C46.4627 223.872 44.1205 221.464 42.6297 218.607C41.1395 215.751 40.3719 212.458 39.623 209.216C41.3159 209.515 43.0083 209.815 44.7012 210.115C40.7246 206.954 37.8415 201.899 36.8389 196.33Z" fill="#455A64"/>
<g opacity="0.4">
<path d="M36.8389 196.33C42.2148 199.647 46.3368 205.357 49.3007 211.645C52.2647 217.933 54.1751 224.833 56.0673 231.683L57.7233 267.01C51.4684 254.335 46.4475 239.435 45.0915 224.822C46.4792 224.674 47.8662 224.527 49.2539 224.38C46.4627 223.872 44.1205 221.464 42.6297 218.607C41.1395 215.751 40.3719 212.458 39.623 209.216C41.3159 209.515 43.0083 209.815 44.7012 210.115C40.7246 206.954 37.8415 201.899 36.8389 196.33Z" fill="black"/>
</g>
<path d="M58.6484 275.288C58.6484 275.288 72.2249 255.932 72.0684 237.454H66.584C66.584 237.454 72.5413 232.788 72.0696 230.175C71.5984 227.562 71.4414 217.669 71.4414 217.669L66.427 219.162C66.427 219.162 70.1879 216.922 70.6579 213.377C71.1279 209.83 69.5609 193.405 69.5609 193.405C69.5609 193.405 63.4495 201.058 61.5696 208.897C59.6891 216.736 54.7539 225.881 56.203 249.772C57.6528 273.663 58.6484 275.288 58.6484 275.288Z" fill="#455A64"/>
<path d="M51.7658 277.114C51.7658 277.114 37.0567 265.443 33.7885 250.546L38.1976 249.117C38.1976 249.117 32.5509 246.918 32.4501 244.694C32.3487 242.471 30.6581 234.477 30.6581 234.477L34.9635 234.371C34.9635 234.371 31.5289 233.55 30.4993 230.822C29.4697 228.093 27.7129 214.479 27.7129 214.479C27.7129 214.479 34.0317 219.039 36.9834 224.852C39.9351 230.664 45.583 236.73 48.806 256.315C52.0295 275.901 51.7658 277.114 51.7658 277.114Z" fill="#455A64"/>
<path d="M65.8527 210.282C65.8486 210.281 65.8322 210.349 65.804 210.483C65.7747 210.632 65.7355 210.829 65.6863 211.079C65.5849 211.621 65.4401 212.392 65.2561 213.376C65.068 214.373 64.8495 215.596 64.6121 217.02C64.3707 218.443 64.0894 220.062 63.814 221.86C63.2327 225.449 62.6197 229.74 61.988 234.513C61.3762 239.29 60.7644 244.554 60.2212 250.093C59.6891 255.636 59.276 260.927 58.9566 265.745C58.6572 270.565 58.4322 274.909 58.3109 278.562C58.2341 280.387 58.1984 282.04 58.1608 283.491C58.1192 284.941 58.0981 286.191 58.0899 287.213C58.0806 288.221 58.0735 289.01 58.0688 289.566C58.0694 289.823 58.0694 290.025 58.0694 290.178C58.0712 290.316 58.0741 290.387 58.0782 290.387C58.0823 290.387 58.0882 290.316 58.0946 290.179C58.1005 290.026 58.1087 289.824 58.1187 289.567C58.1345 289.013 58.1573 288.224 58.1866 287.217C58.2095 286.195 58.2446 284.947 58.2997 283.497C58.3507 282.047 58.3988 280.396 58.4861 278.573C58.6302 274.923 58.8728 270.583 59.1846 265.768C59.5163 260.954 59.9358 255.666 60.4679 250.128C61.0106 244.592 61.6147 239.332 62.2136 234.555C62.8324 229.783 63.4272 225.491 63.9857 221.899C64.25 220.1 64.5189 218.479 64.7475 217.054C64.9713 215.627 65.1764 214.401 65.3499 213.401C65.5146 212.412 65.6435 211.638 65.7343 211.093C65.7736 210.84 65.8046 210.641 65.8281 210.491C65.8486 210.353 65.8568 210.283 65.8527 210.282Z" fill="#263238"/>
<path d="M60.5317 287.14C60.5317 287.14 72.9561 270.349 76.8138 260.198L73.9013 258.716C76.0121 259.13 78.175 258.05 79.8117 256.409C81.4484 254.768 82.6503 252.61 83.8294 250.482L79.9928 249.71C83.4813 248.544 86.5554 245.708 88.375 241.976C83.8475 242.863 79.752 245.825 76.3766 249.527C73.6435 252.525 71.3288 256.005 69.1061 259.561C68.022 261.296 67.0733 263.144 66.2828 265.091C64.196 270.232 60.5247 280.974 60.5317 287.14Z" fill="#455A64"/>
<path d="M33.5932 224.253C33.5897 224.256 33.609 224.313 33.6506 224.424C33.6992 224.549 33.7625 224.71 33.8416 224.912C34.0221 225.356 34.2753 225.98 34.5988 226.775C35.265 228.387 36.2091 230.732 37.3512 233.642C38.4968 236.549 39.8147 240.037 41.2317 243.935C42.6357 247.838 44.1318 252.155 45.6202 256.723C47.0999 261.298 48.4313 265.69 49.5968 269.704C50.7501 273.724 51.7451 277.361 52.5397 280.431C53.3384 283.499 53.9643 285.989 54.3815 287.716C54.5913 288.563 54.7566 289.228 54.8738 289.701C54.9294 289.914 54.9734 290.084 55.008 290.215C55.0396 290.33 55.0578 290.389 55.0619 290.388C55.066 290.386 55.056 290.325 55.0326 290.207C55.0044 290.073 54.9681 289.902 54.9224 289.685C54.8158 289.209 54.6663 288.539 54.4753 287.685C54.0868 285.948 53.4861 283.447 52.7085 280.37C51.935 277.29 50.9569 273.644 49.8142 269.617C48.6598 265.595 47.3343 261.196 45.8529 256.618C44.3633 252.045 42.8596 247.729 41.4426 243.828C40.0134 239.934 38.6779 236.452 37.5112 233.554C36.348 230.654 35.3799 228.322 34.6867 226.726C34.3456 225.941 34.0778 225.326 33.8879 224.888C33.7995 224.691 33.7291 224.534 33.6746 224.413C33.6242 224.304 33.5973 224.251 33.5932 224.253Z" fill="#263238"/>
<path d="M59.4775 294.336C59.4863 294.338 59.5062 294.231 59.5367 294.028C59.5689 293.791 59.6088 293.496 59.6574 293.136C59.7049 292.749 59.7652 292.275 59.8514 291.728C59.9352 291.18 60.0154 290.554 60.1403 289.87C60.3629 288.496 60.6823 286.872 61.089 285.087C61.5092 283.306 62.0243 281.367 62.6525 279.367C63.2906 277.371 63.9803 275.509 64.6531 273.842C65.3387 272.182 65.9997 270.712 66.5951 269.505C66.881 268.893 67.1682 268.36 67.409 267.884C67.6481 267.406 67.8655 267.002 68.0448 266.674C68.2077 266.366 68.3413 266.113 68.4486 265.91C68.5388 265.733 68.5828 265.638 68.5757 265.632C68.5687 265.626 68.5113 265.71 68.4076 265.877C68.2904 266.071 68.1439 266.314 67.9645 266.61C67.7723 266.929 67.5426 267.324 67.2918 267.795C67.0392 268.264 66.7404 268.791 66.4439 269.398C65.8274 270.595 65.1471 272.061 64.4474 273.721C63.76 275.389 63.0603 277.257 62.4198 279.262C61.7887 281.271 61.2777 283.223 60.8681 285.015C60.4719 286.812 60.169 288.446 59.9674 289.831C59.8531 290.519 59.7846 291.15 59.7137 291.701C59.6404 292.252 59.5941 292.729 59.5613 293.12C59.5308 293.484 59.5062 293.781 59.4869 294.02C59.4728 294.226 59.4693 294.335 59.4775 294.336Z" fill="#263238"/>
<path d="M70.2757 290.386H43.0835V296.993H70.2757V290.386Z" fill="#FF725E"/>
<path d="M67.6853 296.993L64.7436 319.216H48.3127L45.5708 296.993H67.6853Z" fill="#FF725E"/>
<path d="M44.752 296.993C44.752 297.075 49.8959 297.141 56.2399 297.141C62.5863 297.141 67.729 297.075 67.729 296.993C67.729 296.912 62.5863 296.845 56.2399 296.845C49.8959 296.845 44.752 296.912 44.752 296.993Z" fill="#263238"/>
<g opacity="0.3">
<path d="M155.338 34.2746V89.6106C155.338 93.2242 157.82 96.1537 160.881 96.1537H167.629C167.261 98.3943 166.456 100.539 165.28 102.346C164.845 103.015 165.358 103.953 166.051 103.763C167.816 103.277 169.547 102.637 171.137 101.623C173.081 100.383 174.802 98.4997 175.72 96.1537H182.449V93.6283H180.212V55.528C180.212 43.7897 172.223 34.2746 162.369 34.2746H155.338Z" fill="black"/>
</g>
<g opacity="0.3">
<path d="M60.6147 136.029H84.6249C89.1231 136.029 92.7697 140.373 92.7697 145.731V168.777C92.7697 174.135 89.1231 178.479 84.6249 178.479H74.7104C75.2524 181.807 76.4391 184.994 78.1731 187.678C78.8106 188.665 78.0482 190.043 77.0298 189.76C74.435 189.041 71.8923 188.092 69.5559 186.588C66.6998 184.749 64.1712 181.956 62.8228 178.478H60.7243L60.6147 136.029Z" fill="black"/>
</g>
<path d="M120.468 198.289C130.27 198.289 138.216 188.825 138.216 177.15C138.216 165.475 130.27 156.01 120.468 156.01C110.667 156.01 102.721 165.475 102.721 177.15C102.721 188.825 110.667 198.289 120.468 198.289Z" fill="#E0E0E0"/>
<path d="M126.348 173.554C126.348 175.094 127.142 176.343 128.121 176.343C129.101 176.343 129.895 175.094 129.895 173.554C129.895 172.014 129.101 170.766 128.121 170.766C127.142 170.765 126.348 172.014 126.348 173.554Z" fill="#263238"/>
<path d="M113.371 176.343C114.35 176.343 115.144 175.094 115.144 173.554C115.144 172.014 114.35 170.766 113.371 170.766C112.392 170.766 111.598 172.014 111.598 173.554C111.598 175.094 112.392 176.343 113.371 176.343Z" fill="#263238"/>
<path d="M127.257 180.06C122.872 180.06 118.488 180.06 114.103 180.06C113.403 180.06 113.402 178.763 114.103 178.763C118.488 178.763 122.872 178.763 127.257 178.763C127.956 178.763 127.957 180.06 127.257 180.06Z" fill="#263238"/>
<path d="M136.511 235.635C140.715 225.088 136.944 212.479 128.09 207.471C119.235 202.464 108.648 206.955 104.444 217.502C100.241 228.049 104.011 240.659 112.866 245.666C121.721 250.674 132.307 246.183 136.511 235.635Z" fill="#E0E0E0"/>
<path d="M126.348 222.977C126.348 224.517 127.142 225.765 128.121 225.765C129.101 225.765 129.895 224.517 129.895 222.977C129.895 221.436 129.101 220.188 128.121 220.188C127.142 220.188 126.348 221.436 126.348 222.977Z" fill="#263238"/>
<path d="M111.598 222.977C111.598 224.517 112.392 225.765 113.371 225.765C114.35 225.765 115.144 224.517 115.144 222.977C115.144 221.436 114.35 220.188 113.371 220.188C112.392 220.188 111.598 221.436 111.598 222.977Z" fill="#263238"/>
<path d="M123.485 294.948C133.144 292.965 139.626 282.031 137.961 270.525C136.297 259.019 127.117 251.299 117.458 253.281C107.798 255.264 101.316 266.198 102.981 277.704C104.645 289.21 113.825 296.93 123.485 294.948Z" fill="#E0E0E0"/>
<path d="M125.662 270.513C125.662 272.054 126.456 273.302 127.435 273.302C128.414 273.302 129.208 272.053 129.208 270.513C129.208 268.974 128.414 267.725 127.435 267.725C126.456 267.725 125.662 268.973 125.662 270.513Z" fill="#263238"/>
<path d="M113.371 273.431C114.35 273.431 115.144 272.183 115.144 270.643C115.144 269.102 114.35 267.854 113.371 267.854C112.392 267.854 111.598 269.102 111.598 270.643C111.598 272.183 112.392 273.431 113.371 273.431Z" fill="#263238"/>
<path d="M115.452 276.978C116.073 274.32 118.269 272.3 120.61 272.406C122.941 272.51 125.042 274.662 125.495 277.383C125.631 278.198 124.582 278.547 124.446 277.728C124.088 275.579 122.483 273.789 120.61 273.702C118.746 273.615 116.996 275.201 116.501 277.323C116.314 278.125 115.264 277.784 115.452 276.978Z" fill="#263238"/>
<path d="M121.306 149.489C131.552 149.489 139.857 139.596 139.857 127.393C139.857 115.189 131.552 105.296 121.306 105.296C111.061 105.296 102.755 115.189 102.755 127.393C102.755 139.596 111.061 149.489 121.306 149.489Z" fill="#FF725E"/>
<path d="M127.452 123.634C127.452 125.244 128.282 126.549 129.306 126.549C130.329 126.549 131.159 125.244 131.159 123.634C131.159 122.024 130.329 120.719 129.306 120.719C128.282 120.719 127.452 122.024 127.452 123.634Z" fill="#263238"/>
<path d="M112.034 123.634C112.034 125.244 112.864 126.549 113.888 126.549C114.911 126.549 115.741 125.244 115.741 123.634C115.741 122.024 114.911 120.719 113.888 120.719C112.864 120.719 112.034 122.024 112.034 123.634Z" fill="#263238"/>
<path d="M126.886 127.36C126.332 130.167 124.109 132.388 121.661 132.396C119.222 132.404 116.951 130.263 116.381 127.444C116.21 126.6 117.293 126.184 117.464 127.032C117.915 129.258 119.655 131.047 121.615 131.043C123.564 131.04 125.335 129.295 125.777 127.053C125.944 126.205 127.053 126.508 126.886 127.36Z" fill="#263238"/>
<path d="M134.074 93.5452C141.126 85.1452 141.126 71.5263 134.074 63.1263C127.022 54.7264 115.588 54.7264 108.536 63.1263C101.484 71.5263 101.484 85.1452 108.536 93.5452C115.588 101.945 127.022 101.945 134.074 93.5452Z" fill="#E0E0E0"/>
<path d="M127.123 74.6762C127.123 76.2432 127.931 77.5136 128.927 77.5136C129.924 77.5136 130.731 76.2432 130.731 74.6762C130.731 73.1092 129.923 71.8389 128.927 71.8389C127.93 71.8389 127.123 73.1092 127.123 74.6762Z" fill="#263238"/>
<path d="M112.113 74.6762C112.113 76.2432 112.921 77.5136 113.918 77.5136C114.914 77.5136 115.722 76.2432 115.722 74.6762C115.722 73.1092 114.914 71.8389 113.918 71.8389C112.921 71.8389 112.113 73.1092 112.113 74.6762Z" fill="#263238"/>
<path d="M115.08 78.8726C115.08 83.2288 117.869 86.7607 121.311 86.7607C124.752 86.7607 127.541 83.2288 127.541 78.8726H115.08Z" fill="#263238"/>
<path d="M118.068 85.6021C118.068 85.6021 119.298 83.7335 121.311 83.7335C123.323 83.7335 124.561 85.6021 124.561 85.6021C124.561 85.6021 121.539 87.9864 118.068 85.6021Z" fill="#FF725E"/>
<path d="M124.845 229.298C124.696 229.298 124.547 229.23 124.433 229.096C123.377 227.852 121.566 227.369 119.589 227.799C118.635 228.008 117.712 228.381 116.849 228.909C116.56 229.086 116.207 228.95 116.06 228.606C115.912 228.263 116.026 227.843 116.314 227.667C117.279 227.076 118.311 226.659 119.378 226.426C121.769 225.906 123.91 226.516 125.257 228.104C125.487 228.375 125.489 228.816 125.262 229.091C125.147 229.229 124.996 229.298 124.845 229.298Z" fill="#263238"/>
<path d="M152.857 105.569C152.914 105.643 150.852 108.001 148.253 110.834C145.652 113.669 143.498 115.905 143.442 115.831C143.385 115.757 145.446 113.4 148.046 110.566C150.646 107.733 152.8 105.495 152.857 105.569Z" fill="#FF725E"/>
<path d="M160.041 124.377C160.042 124.477 156.825 124.647 152.856 124.757C148.885 124.867 145.665 124.874 145.663 124.774C145.661 124.673 148.877 124.503 152.849 124.393C156.819 124.284 160.039 124.276 160.041 124.377Z" fill="#FF725E"/>
<path d="M151.412 138.895C151.391 138.937 150.985 138.697 150.356 138.252C149.727 137.808 148.878 137.156 147.974 136.377C147.07 135.599 146.282 134.844 145.731 134.272C145.179 133.701 144.86 133.317 144.887 133.28C144.944 133.199 146.352 134.537 148.153 136.083C149.949 137.633 151.458 138.806 151.412 138.895Z" fill="#FF725E"/>
<path d="M97.6947 106.884L98.0773 107.807C98.1201 107.911 98.2033 107.983 98.3 108L99.1556 108.148C99.3976 108.19 99.4949 108.545 99.3191 108.748L98.7003 109.467C98.6305 109.548 98.5989 109.665 98.6153 109.779L98.7612 110.794C98.8028 111.081 98.5491 111.3 98.3328 111.164L97.5675 110.685C97.4814 110.632 97.3788 110.632 97.2927 110.685L96.5274 111.164C96.3106 111.3 96.0574 111.08 96.099 110.794L96.2449 109.779C96.2613 109.665 96.2297 109.548 96.16 109.467L95.5411 108.748C95.3659 108.545 95.4626 108.19 95.7046 108.148L96.5602 108C96.6563 107.983 96.7395 107.911 96.7829 107.807L97.1655 106.884C97.2734 106.623 97.5863 106.623 97.6947 106.884Z" fill="#FF725E"/>
<path d="M92.7368 125.118L93.0022 125.759C93.0321 125.831 93.0896 125.881 93.1564 125.892L93.75 125.995C93.9182 126.024 93.9856 126.27 93.8637 126.411L93.4341 126.91C93.3861 126.966 93.3638 127.046 93.3755 127.126L93.4769 127.83C93.5056 128.03 93.3298 128.182 93.1798 128.088L92.6489 127.756C92.5891 127.718 92.5176 127.718 92.4579 127.756L91.9269 128.088C91.7763 128.182 91.6005 128.03 91.6292 127.83L91.7306 127.126C91.7418 127.046 91.7201 126.966 91.6714 126.91L91.2419 126.411C91.12 126.27 91.1874 126.024 91.3556 125.995L91.9492 125.892C92.016 125.88 92.0734 125.831 92.1033 125.759L92.3688 125.118C92.4444 124.936 92.6612 124.936 92.7368 125.118Z" fill="#FF725E"/>
<path d="M151.399 116.046L151.724 116.832C151.761 116.921 151.831 116.981 151.913 116.996L152.641 117.122C152.848 117.157 152.93 117.459 152.781 117.633L152.254 118.244C152.195 118.313 152.168 118.412 152.182 118.509L152.306 119.373C152.341 119.617 152.126 119.804 151.942 119.688L151.291 119.281C151.217 119.234 151.13 119.234 151.057 119.281L150.406 119.688C150.221 119.803 150.006 119.617 150.041 119.373L150.165 118.509C150.179 118.412 150.152 118.313 150.093 118.244L149.567 117.633C149.417 117.459 149.5 117.158 149.706 117.122L150.434 116.996C150.516 116.982 150.586 116.921 150.623 116.832L150.949 116.046C151.04 115.823 151.307 115.823 151.399 116.046Z" fill="#FF725E"/>
<path d="M141.362 108.206L141.546 108.652C141.567 108.702 141.607 108.737 141.653 108.745L142.067 108.816C142.184 108.836 142.23 109.007 142.146 109.106L141.847 109.453C141.813 109.492 141.798 109.548 141.806 109.603L141.876 110.093C141.896 110.232 141.774 110.337 141.669 110.272L141.3 110.041C141.258 110.015 141.209 110.015 141.167 110.041L140.798 110.272C140.694 110.338 140.571 110.232 140.591 110.093L140.661 109.603C140.67 109.548 140.654 109.491 140.62 109.453L140.321 109.106C140.237 109.007 140.283 108.836 140.401 108.816L140.814 108.745C140.86 108.737 140.9 108.702 140.921 108.652L141.106 108.206C141.158 108.08 141.309 108.08 141.362 108.206Z" fill="#FF725E"/>
<path d="M95.1471 117.947C95.1354 117.995 94.5769 117.853 93.6845 117.586C92.792 117.318 91.5643 116.924 90.2142 116.468C88.8634 116.011 87.6457 115.578 86.7679 115.247C85.8901 114.916 85.3533 114.687 85.3644 114.639C85.3756 114.591 85.9334 114.732 86.8259 115C87.7184 115.267 88.9466 115.661 90.2974 116.119C91.6481 116.575 92.8664 117.009 93.7442 117.339C94.6221 117.67 95.1588 117.899 95.1471 117.947Z" fill="#FF725E"/>
<path d="M96.5738 134.408C96.6266 134.486 95.7693 135.415 94.6588 136.483C93.5483 137.552 92.6049 138.354 92.5521 138.276C92.4994 138.198 93.3561 137.269 94.4672 136.201C95.5776 135.133 96.5211 134.331 96.5738 134.408Z" fill="#FF725E"/>
<path d="M237.579 127.962L241.349 127.617C243.153 129.547 245.468 130.862 248.097 131.22C254.029 132.027 259.672 127.439 261.192 120.561C263.101 111.922 258.114 103.349 250.652 102.446C244.669 101.722 239.053 106.479 237.649 113.445C236.931 117.006 237.38 120.539 238.68 123.512L238.675 123.507L237.579 127.962Z" fill="white"/>
<path d="M237.58 127.962C237.58 127.962 237.611 127.857 237.663 127.663C237.717 127.455 237.791 127.172 237.887 126.806C238.082 126.046 238.364 124.948 238.729 123.525L238.634 123.552L238.638 123.558C238.66 123.585 238.695 123.588 238.718 123.563C238.737 123.542 238.742 123.508 238.73 123.481C238.028 121.837 237.35 119.484 237.398 116.612C237.412 115.183 237.643 113.645 238.102 112.098C238.558 110.553 239.27 108.999 240.265 107.604C241.257 106.21 242.532 104.976 244.027 104.079C245.519 103.18 247.232 102.621 249.023 102.541C252.593 102.362 256.487 104.283 258.898 108.023L259.346 108.725L259.736 109.469C260.016 109.951 260.192 110.499 260.422 111.008C260.797 112.072 261.112 113.162 261.265 114.28C261.606 116.506 261.491 118.767 260.999 120.831C260.493 122.893 259.613 124.744 258.508 126.251C257.403 127.761 256.078 128.93 254.693 129.733C251.906 131.346 248.958 131.478 246.636 130.806C244.286 130.146 242.54 128.784 241.387 127.567C241.373 127.562 241.36 127.557 241.345 127.551C240.14 127.679 239.209 127.778 238.565 127.846C238.255 127.881 238.014 127.908 237.837 127.927C237.67 127.946 237.58 127.962 237.58 127.962C237.575 127.965 237.654 127.962 237.813 127.951C237.986 127.939 238.222 127.922 238.527 127.901C239.182 127.851 240.128 127.778 241.353 127.684L241.311 127.667C242.459 128.914 244.214 130.316 246.592 131.007C248.943 131.71 251.942 131.6 254.787 129.971C256.2 129.161 257.555 127.976 258.686 126.439C259.818 124.907 260.721 123.02 261.24 120.916C261.747 118.811 261.867 116.5 261.52 114.225C261.365 113.082 261.044 111.968 260.661 110.88C260.427 110.359 260.247 109.8 259.961 109.307L259.562 108.547L259.105 107.829C256.64 104.007 252.656 102.048 249.012 102.24C247.183 102.325 245.435 102.902 243.916 103.825C242.394 104.746 241.099 106.009 240.094 107.434C239.084 108.86 238.367 110.446 237.911 112.021C237.452 113.596 237.227 115.16 237.222 116.609C237.192 119.523 237.9 121.897 238.629 123.544L238.72 123.468L238.716 123.462C238.695 123.435 238.66 123.432 238.637 123.457C238.629 123.465 238.623 123.477 238.62 123.489C238.279 124.941 238.015 126.062 237.833 126.838C237.75 127.199 237.685 127.479 237.638 127.684C237.595 127.871 237.575 127.965 237.58 127.962Z" fill="#263238"/>
<path d="M247.803 123.512L242.579 116.803L244.545 114.632L248.048 119.13L254.863 112.429L256.569 114.891L247.803 123.512Z" fill="#FF725E"/>
<path d="M166.545 17.4458H230.789C233.851 17.4458 236.333 20.4018 236.333 24.0489V81.8984C236.333 85.5448 233.851 88.5015 230.789 88.5015H181.384C180.466 90.8691 178.745 92.7691 176.802 94.0213C175.212 95.0453 173.481 95.6909 171.715 96.1809C171.022 96.3728 170.503 95.4347 170.937 94.7633C172.117 92.9366 172.925 90.7679 173.294 88.5022H166.546C163.485 88.5022 161.002 85.5462 161.002 81.8991V24.0482C161.002 20.4018 163.484 17.4458 166.545 17.4458Z" fill="white"/>
<path d="M166.546 17.4451C166.546 17.4451 166.431 17.4605 166.206 17.4786C165.981 17.4905 165.645 17.5414 165.217 17.6706C164.377 17.9198 163.079 18.5815 162.07 20.2462C161.566 21.0636 161.201 22.1482 161.082 23.3837C161.028 24.6248 161.072 26.0054 161.063 27.4817C161.068 30.4419 161.074 33.8397 161.081 37.6404C161.09 45.2458 161.101 54.4608 161.113 64.9992C161.117 70.2691 161.121 75.8705 161.126 81.7665C161.117 83.2107 161.488 84.68 162.264 85.8407C163.023 87.0029 164.131 87.8761 165.374 88.1909C165.994 88.3577 166.632 88.3473 167.294 88.3452C167.95 88.3445 168.61 88.3438 169.273 88.3438C170.599 88.3431 171.939 88.3417 173.293 88.341H173.458L173.426 88.5329C173.123 90.3882 172.529 92.203 171.651 93.8356C171.541 94.0395 171.428 94.2405 171.309 94.438C171.201 94.63 171.041 94.8449 170.976 95.0041C170.818 95.358 170.992 95.8382 171.303 95.9855C171.466 96.0595 171.609 96.0504 171.816 95.9813L172.408 95.8075C172.802 95.6867 173.195 95.5562 173.585 95.4124C175.143 94.838 176.68 94.0611 178.028 92.9073C179.371 91.7598 180.545 90.2507 181.252 88.4296L181.291 88.3298H181.384C194.887 88.327 209.632 88.3235 224.97 88.32C226.145 88.32 227.315 88.32 228.482 88.32H230.23C230.818 88.3284 231.376 88.311 231.931 88.1728C233.029 87.8803 234.055 87.1893 234.795 86.1849C235.554 85.1993 236.017 83.9219 236.146 82.6076C236.195 81.955 236.178 81.2668 236.181 80.5897C236.181 79.9112 236.181 79.2342 236.181 78.5585C236.181 77.2065 236.181 75.86 236.181 74.5192C236.182 71.8368 236.182 69.176 236.182 66.539C236.185 55.9894 236.188 45.8139 236.191 36.1201C236.192 33.6967 236.194 31.3039 236.194 28.9419C236.195 27.7609 236.195 26.5882 236.196 25.424C236.194 24.2541 236.244 23.1059 235.926 22.0401C235.348 19.8979 233.784 18.2374 231.998 17.7697C231.114 17.5059 230.176 17.6322 229.256 17.6001C228.336 17.5994 227.423 17.5987 226.519 17.598C219.282 17.5903 212.541 17.5826 206.386 17.5757C194.081 17.5512 184.123 17.5317 177.234 17.5177C173.797 17.5031 171.126 17.4912 169.309 17.4835C168.407 17.4758 167.718 17.4696 167.248 17.4654C166.784 17.4577 166.546 17.4451 166.546 17.4451C166.546 17.4451 166.784 17.4326 167.248 17.4263C167.718 17.4221 168.407 17.4165 169.309 17.4081C171.126 17.4005 173.797 17.3886 177.234 17.3739C184.123 17.36 194.081 17.3404 206.386 17.316C212.541 17.309 219.282 17.302 226.519 17.2937C227.423 17.293 228.336 17.2923 229.256 17.2916C229.716 17.2916 230.178 17.2909 230.642 17.2902C230.872 17.286 231.115 17.3132 231.351 17.3237C231.586 17.3683 231.825 17.3928 232.057 17.4647C233.931 17.9526 235.572 19.6899 236.181 21.9388C236.517 23.0605 236.465 24.2758 236.468 25.4226C236.469 26.5868 236.469 27.7602 236.47 28.9405C236.471 31.3018 236.472 33.6953 236.473 36.1187C236.476 45.8125 236.479 55.988 236.482 66.5376C236.482 69.1746 236.483 71.8354 236.483 74.5178C236.483 75.8593 236.484 77.2058 236.484 78.5571C236.484 79.2328 236.484 79.9098 236.484 80.5883C236.48 81.2674 236.499 81.941 236.447 82.646C236.312 84.035 235.821 85.3849 235.021 86.4264C234.24 87.4873 233.156 88.2181 231.995 88.5273C231.413 88.6746 230.803 88.6921 230.229 88.683H228.482C227.314 88.683 226.144 88.683 224.97 88.683C209.632 88.6795 194.886 88.6767 181.383 88.6732L181.514 88.5734C180.779 90.4601 179.57 92.009 178.194 93.1823C176.81 94.364 175.244 95.1507 173.667 95.7307C173.272 95.8759 172.874 96.0071 172.477 96.1286L171.879 96.3038C171.697 96.3708 171.413 96.4092 171.196 96.2912C170.744 96.0776 170.497 95.3908 170.725 94.8624C170.846 94.5944 170.968 94.4548 171.084 94.2468C171.2 94.0534 171.311 93.8566 171.419 93.6576C172.277 92.062 172.862 90.2863 173.16 88.4701L173.293 88.6614C171.939 88.6607 170.599 88.6593 169.272 88.6586C168.609 88.6579 167.95 88.6579 167.293 88.6572C166.645 88.6593 165.968 88.6697 165.318 88.4931C164.015 88.1609 162.856 87.2444 162.063 86.0264C161.253 84.8126 160.864 83.2637 160.877 81.7665C160.882 75.8705 160.886 70.2691 160.89 64.9992C160.902 54.4608 160.913 45.2458 160.922 37.6404C160.929 33.8397 160.935 30.4419 160.94 27.4817C160.956 25.9998 160.918 24.6373 160.978 23.3711C161.105 22.1127 161.484 21.0126 162.002 20.1876C163.037 18.5075 164.357 17.8562 165.206 17.621C165.639 17.4989 165.978 17.4563 166.204 17.4528C166.431 17.4437 166.546 17.4451 166.546 17.4451Z" fill="#263238"/>
<path d="M176.042 38.7257C178.599 38.7257 180.671 36.2569 180.671 33.2115C180.671 30.1661 178.599 27.6973 176.042 27.6973C173.485 27.6973 171.413 30.1661 171.413 33.2115C171.413 36.2569 173.485 38.7257 176.042 38.7257Z" fill="#455A64"/>
<path d="M174.078 44.7209L174.791 46.4428C174.871 46.6362 175.026 46.7709 175.206 46.8016L176.801 47.078C177.253 47.1562 177.433 47.8179 177.106 48.1976L175.952 49.5378C175.821 49.6885 175.762 49.9056 175.793 50.1185L176.066 52.0108C176.143 52.5468 175.671 52.9559 175.267 52.7025L173.84 51.8091C173.679 51.7085 173.487 51.7085 173.327 51.8091L171.9 52.7025C171.496 52.9559 171.023 52.5468 171.101 52.0108L171.373 50.1185C171.404 49.9056 171.344 49.6885 171.215 49.5378L170.061 48.1976C169.734 47.8179 169.914 47.1569 170.366 47.078L171.962 46.8016C172.141 46.7709 172.296 46.6362 172.376 46.4428L173.09 44.7209C173.292 44.2337 173.875 44.2337 174.078 44.7209Z" fill="#FF725E"/>
<path d="M185.809 44.7209L186.522 46.4428C186.602 46.6362 186.758 46.7709 186.937 46.8016L188.532 47.078C188.984 47.1562 189.164 47.8179 188.837 48.1976L187.683 49.5378C187.554 49.6885 187.494 49.9056 187.525 50.1185L187.797 52.0108C187.875 52.5468 187.402 52.9559 186.998 52.7025L185.571 51.8091C185.411 51.7085 185.219 51.7085 185.058 51.8091L183.631 52.7025C183.227 52.9559 182.755 52.5468 182.832 52.0108L183.105 50.1185C183.135 49.9056 183.076 49.6885 182.946 49.5378L181.792 48.1976C181.465 47.8179 181.645 47.1569 182.097 47.078L183.692 46.8016C183.872 46.7709 184.027 46.6362 184.107 46.4428L184.82 44.7209C185.023 44.2337 185.607 44.2337 185.809 44.7209Z" fill="#FF725E"/>
<path d="M197.541 44.7209L198.255 46.4428C198.335 46.6362 198.49 46.7709 198.669 46.8016L200.265 47.078C200.716 47.1562 200.897 47.8179 200.57 48.1976L199.415 49.5378C199.285 49.6885 199.226 49.9056 199.257 50.1185L199.53 52.0108C199.607 52.5468 199.135 52.9559 198.73 52.7025L197.304 51.8091C197.143 51.7085 196.951 51.7085 196.791 51.8091L195.364 52.7025C194.959 52.9559 194.487 52.5468 194.565 52.0108L194.837 50.1185C194.867 49.9056 194.808 49.6885 194.679 49.5378L193.524 48.1976C193.197 47.8179 193.378 47.1569 193.83 47.078L195.425 46.8016C195.604 46.7709 195.759 46.6362 195.84 46.4428L196.553 44.7209C196.755 44.2337 197.339 44.2337 197.541 44.7209Z" fill="#FF725E"/>
<path d="M209.273 44.7209L209.987 46.4428C210.067 46.6362 210.222 46.7709 210.401 46.8016L211.997 47.078C212.448 47.1562 212.629 47.8179 212.302 48.1976L211.147 49.5378C211.017 49.6885 210.958 49.9056 210.989 50.1185L211.262 52.0108C211.339 52.5468 210.867 52.9559 210.462 52.7025L209.035 51.8091C208.875 51.7085 208.683 51.7085 208.523 51.8091L207.096 52.7025C206.691 52.9559 206.219 52.5468 206.296 52.0108L206.569 50.1185C206.599 49.9056 206.54 49.6885 206.411 49.5378L205.256 48.1976C204.929 47.8179 205.11 47.1569 205.562 47.078L207.157 46.8016C207.336 46.7709 207.491 46.6362 207.572 46.4428L208.285 44.7209C208.488 44.2337 209.071 44.2337 209.273 44.7209Z" fill="#FF725E"/>
<path d="M221.005 44.7209L221.719 46.4428C221.799 46.6362 221.955 46.7709 222.134 46.8016L223.729 47.078C224.181 47.1562 224.361 47.8179 224.034 48.1976L222.88 49.5378C222.75 49.6885 222.691 49.9056 222.722 50.1185L222.994 52.0108C223.071 52.5468 222.599 52.9559 222.195 52.7025L220.768 51.8091C220.607 51.7085 220.416 51.7085 220.255 51.8091L218.828 52.7025C218.424 52.9559 217.952 52.5468 218.029 52.0108L218.301 50.1185C218.332 49.9056 218.273 49.6885 218.143 49.5378L216.989 48.1976C216.662 47.8179 216.842 47.1569 217.294 47.078L218.89 46.8016C219.069 46.7709 219.224 46.6362 219.305 46.4428L220.018 44.7209C220.219 44.2337 220.803 44.2337 221.005 44.7209Z" fill="#E0E0E0"/>
<path d="M223.762 77.9736H173.07C171.169 77.9736 169.627 76.1379 169.627 73.8729V60.7093C169.627 58.4443 171.169 56.6085 173.07 56.6085H223.762C225.664 56.6085 227.205 58.4443 227.205 60.7093V73.8729C227.205 76.1372 225.664 77.9736 223.762 77.9736Z" fill="#F5F5F5"/>
<path d="M220.511 30.6478H183.89V33.2115H220.511V30.6478Z" fill="#E0E0E0"/>
<path d="M198.667 35.1722H183.89V37.736H198.667V35.1722Z" fill="#E0E0E0"/>
<path d="M221.103 62.9114H175.047V65.4752H221.103V62.9114Z" fill="#E0E0E0"/>
<path d="M208.779 68.0557H175.047V70.6195H208.779V68.0557Z" fill="#E0E0E0"/>
<path d="M77.0455 128.247H25.4588C20.9606 128.247 17.314 132.591 17.314 137.949V160.995C17.314 166.353 20.9606 170.697 25.4588 170.697H55.244C56.5924 174.175 59.121 176.967 61.9771 178.807C64.3135 180.311 66.8562 181.259 69.451 181.979C70.4694 182.261 71.2318 180.882 70.5943 179.896C68.8603 177.212 67.6736 174.025 67.1316 170.697H77.0461C81.5443 170.697 85.1909 166.353 85.1909 160.995V137.949C85.1909 132.591 81.5443 128.247 77.0455 128.247Z" fill="white"/>
<path d="M77.0453 128.247C77.0453 128.247 77.3923 128.229 78.0585 128.304C78.7219 128.385 79.7152 128.63 80.8754 129.332C82.0164 130.047 83.3191 131.295 84.2473 133.263C84.6985 134.248 85.0431 135.403 85.1837 136.68C85.3126 137.965 85.2488 139.319 85.2693 140.751C85.2734 146.484 85.2786 153.432 85.2839 161.383C85.2376 163.396 84.6171 165.455 83.4984 167.13C82.3738 168.788 80.7606 170.1 78.8989 170.585C77.9742 170.847 76.999 170.855 76.0491 170.846C75.0916 170.847 74.1224 170.848 73.142 170.849C71.1812 170.852 69.1765 170.854 67.1302 170.856L67.2615 170.666C67.6817 173.229 68.4991 175.776 69.7198 178.104C70.0257 178.687 70.3562 179.251 70.7107 179.806C70.9076 180.115 71.006 180.531 70.9498 180.924C70.8929 181.315 70.7089 181.677 70.4341 181.906C70.1663 182.148 69.8053 182.228 69.4795 182.155C69.1742 182.08 68.8929 181.994 68.5982 181.907C68.0145 181.733 67.4308 181.544 66.8484 181.337C64.5231 180.508 62.1932 179.371 60.1146 177.638C58.0496 175.914 56.2166 173.609 55.1079 170.771L55.2432 170.874C48.3853 170.875 41.28 170.877 34.0025 170.877C32.1888 170.877 30.3863 170.877 28.5955 170.877C27.7 170.877 26.8076 170.877 25.918 170.877C25.4768 170.886 25.0209 170.854 24.5714 170.819C24.1243 170.743 23.6783 170.665 23.2464 170.511C22.3809 170.223 21.5576 169.772 20.8134 169.183C20.0774 168.58 19.4269 167.842 18.8854 167.008C17.7861 165.348 17.2106 163.255 17.1714 161.187C17.1755 153.038 17.1796 145.177 17.1831 137.688C17.1866 136.734 17.3566 135.799 17.5804 134.901C17.8236 134.005 18.1875 133.171 18.6124 132.395C19.0589 131.634 19.5851 130.953 20.1694 130.359C20.7712 129.793 21.4129 129.292 22.109 128.934C22.8046 128.587 23.5266 128.306 24.2678 128.202C25.008 128.064 25.7481 128.093 26.4648 128.091C27.9087 128.092 29.3303 128.094 30.7273 128.096C36.316 128.103 41.522 128.111 46.2757 128.118C55.7765 128.142 63.466 128.162 68.7892 128.176C71.4414 128.19 73.503 128.202 74.91 128.21C75.6044 128.218 76.1353 128.224 76.5015 128.228C76.8619 128.234 77.0453 128.247 77.0453 128.247C77.0453 128.247 76.8619 128.26 76.5033 128.266C76.137 128.27 75.6055 128.276 74.9117 128.284C73.5047 128.292 71.4432 128.304 68.791 128.318C63.4677 128.332 55.7782 128.352 46.2774 128.376C41.5238 128.383 36.3178 128.39 30.7291 128.398C29.3321 128.4 27.9104 128.402 26.4665 128.403C25.7416 128.407 25.0179 128.381 24.3071 128.516C23.5893 128.617 22.8919 128.891 22.2192 129.228C21.5465 129.575 20.9265 130.062 20.3446 130.61C19.7803 131.186 19.2728 131.846 18.8415 132.582C18.4313 133.333 18.0803 134.139 17.8465 135.005C17.6314 135.873 17.4673 136.776 17.4656 137.699C17.4673 145.182 17.4697 153.038 17.4714 161.181C17.5101 163.176 18.065 165.19 19.1257 166.79C19.6478 167.593 20.2748 168.305 20.9839 168.886C21.7012 169.453 22.494 169.886 23.3279 170.164C23.744 170.313 24.1735 170.387 24.6042 170.461C25.0384 170.493 25.4703 170.526 25.9186 170.517C26.8082 170.517 27.7006 170.517 28.596 170.516C30.3869 170.516 32.1894 170.516 34.0031 170.516C41.2806 170.517 48.3853 170.519 55.2438 170.519H55.3393L55.3798 170.623C56.4586 173.39 58.2529 175.655 60.2834 177.353C62.3244 179.057 64.6257 180.187 66.931 181.011C67.5088 181.218 68.0883 181.405 68.6679 181.579C68.955 181.664 69.2533 181.755 69.5317 181.823C69.7895 181.879 70.062 181.821 70.2706 181.634C70.4845 181.457 70.6286 181.172 70.6732 180.871C70.7154 180.568 70.6433 180.256 70.488 180.008C70.1317 179.45 69.7948 178.872 69.4854 178.281C68.2483 175.914 67.4226 173.329 66.9995 170.727L66.9685 170.537H67.1308C69.1771 170.54 71.1818 170.542 73.1426 170.544C74.123 170.545 75.0922 170.546 76.0497 170.547C77.0119 170.558 77.9449 170.552 78.8444 170.301C80.651 169.835 82.2197 168.566 83.3161 166.957C84.4061 165.332 85.0144 163.333 85.0642 161.374C85.0823 153.426 85.0987 146.482 85.1116 140.752C85.097 139.322 85.1656 137.955 85.0448 136.703C84.9124 135.446 84.579 134.307 84.1406 133.333C83.237 131.388 81.9595 130.142 80.8362 129.421C79.6947 128.712 78.7119 128.452 78.0533 128.355C77.7245 128.288 77.4696 128.3 77.3008 128.276C77.1315 128.261 77.0453 128.247 77.0453 128.247Z" fill="#263238"/>
<path d="M35.4065 142.924L36.4871 145.532C36.6084 145.825 36.8434 146.029 37.1153 146.076L39.5319 146.494C40.2164 146.613 40.4894 147.614 39.9943 148.19L38.2456 150.22C38.0488 150.448 37.9591 150.778 38.0054 151.1L38.4179 153.968C38.5351 154.779 37.819 155.399 37.2073 155.015L35.0455 153.662C34.8023 153.51 34.5122 153.51 34.2691 153.662L32.1073 155.015C31.4949 155.399 30.7794 154.779 30.8966 153.968L31.3092 151.1C31.3555 150.778 31.2658 150.449 31.0689 150.22L29.3203 148.19C28.8251 147.614 29.0982 146.613 29.7826 146.494L32.1993 146.076C32.4712 146.029 32.7062 145.825 32.8275 145.532L33.9081 142.924C34.2157 142.185 35.1 142.185 35.4065 142.924Z" fill="#FF725E"/>
<path d="M53.1789 142.924L54.2595 145.532C54.3814 145.825 54.6158 146.029 54.8877 146.076L57.3044 146.494C57.9888 146.613 58.2619 147.614 57.7667 148.19L56.0181 150.22C55.8212 150.448 55.7316 150.778 55.7779 151.1L56.1904 153.968C56.3076 154.779 55.5915 155.399 54.9797 155.015L52.818 153.662C52.5748 153.51 52.2841 153.51 52.0409 153.662L49.8792 155.015C49.2668 155.399 48.5513 154.779 48.6685 153.968L49.0816 151.1C49.1279 150.778 49.0383 150.449 48.8414 150.22L47.0927 148.19C46.5976 147.614 46.8707 146.613 47.5551 146.494L49.9718 146.076C50.2437 146.029 50.4787 145.825 50.6 145.532L51.6805 142.924C51.9888 142.185 52.873 142.185 53.1789 142.924Z" fill="#FF725E"/>
<path d="M70.9514 142.924L72.032 145.532C72.1533 145.825 72.3883 146.029 72.6602 146.076L75.0768 146.494C75.7613 146.613 76.0349 147.614 75.5392 148.19L73.7906 150.22C73.5937 150.448 73.504 150.778 73.5503 151.1L73.9629 153.968C74.0801 154.779 73.3645 155.399 72.7522 155.015L70.5904 153.662C70.3472 153.51 70.0572 153.51 69.814 153.662L67.6522 155.015C67.0398 155.399 66.3243 154.779 66.4415 153.968L66.8541 151.1C66.9004 150.778 66.8107 150.449 66.6138 150.22L64.8652 148.19C64.37 147.614 64.6431 146.613 65.3276 146.494L67.7442 146.076C68.0161 146.029 68.2511 145.825 68.3724 145.532L69.453 142.924C69.7607 142.185 70.6455 142.185 70.9514 142.924Z" fill="#FF725E"/>
<path d="M257.741 287.59V262.533C257.741 252.846 251.148 244.992 243.015 244.992H171.403C163.27 244.992 156.677 252.846 156.677 262.533V306.202C156.677 315.89 163.27 323.743 171.403 323.743H243.014C251.148 323.743 257.741 315.89 257.741 306.202V300.313C259.725 300.876 261.862 300.694 263.74 299.737C266.301 298.43 268.328 295.717 269.121 292.535C265.004 294.383 259.909 292.132 257.741 287.59Z" fill="white"/>
<path d="M257.741 287.59C257.741 287.59 257.904 287.88 258.217 288.438C258.563 288.968 259.087 289.767 259.958 290.584C260.825 291.393 262.033 292.233 263.6 292.734C265.155 293.207 267.114 293.35 269.1 292.468L269.212 292.418L269.179 292.555C268.625 294.808 267.348 297.158 265.323 298.798C263.325 300.461 260.508 301.196 257.722 300.411L257.826 300.312C257.828 301.4 257.829 302.511 257.83 303.645C257.816 304.782 257.869 305.933 257.795 307.123C257.699 309.493 257.185 311.939 256.213 314.221C255.254 316.509 253.81 318.609 251.979 320.254C250.158 321.901 247.956 323.141 245.551 323.6C245.25 323.656 244.949 323.711 244.646 323.766C244.342 323.812 244.034 323.811 243.727 323.836C243.11 323.889 242.495 323.88 241.876 323.88C240.637 323.882 239.381 323.882 238.109 323.884C235.566 323.886 232.959 323.888 230.293 323.89C224.961 323.894 219.388 323.898 213.603 323.902C202.032 323.907 189.611 323.913 176.555 323.918C174.923 323.919 173.281 323.919 171.63 323.919C169.967 323.908 168.285 323.631 166.684 322.995C163.467 321.757 160.646 319.068 158.81 315.607C157.896 313.872 157.21 311.944 156.857 309.913C156.484 307.881 156.525 305.782 156.525 303.727C156.525 299.592 156.525 295.422 156.524 291.22C156.524 284.518 156.525 277.895 156.525 271.368C156.525 269.737 156.525 268.111 156.525 266.492C156.525 265.682 156.525 264.874 156.525 264.067C156.526 263.26 156.514 262.457 156.563 261.644C156.664 258.392 157.61 255.251 159.087 252.594C159.865 251.297 160.737 250.082 161.755 249.061C162.777 248.06 163.872 247.15 165.077 246.515C165.657 246.143 166.293 245.927 166.902 245.646C167.214 245.53 167.534 245.447 167.849 245.346C168.164 245.245 168.48 245.147 168.804 245.103L169.768 244.928C170.09 244.881 170.416 244.881 170.739 244.856C171.388 244.801 172.025 244.821 172.663 244.817C177.767 244.819 182.763 244.821 187.638 244.824C207.137 244.838 224.696 244.851 239.444 244.863C241.286 244.891 243.086 244.785 244.848 245.018C246.603 245.258 248.269 245.896 249.749 246.816C251.234 247.731 252.542 248.912 253.643 250.25C254.756 251.58 255.598 253.123 256.264 254.681C256.944 256.24 257.342 257.887 257.584 259.486C257.635 259.889 257.685 260.288 257.736 260.683C257.753 261.082 257.771 261.477 257.788 261.868C257.836 262.652 257.806 263.411 257.813 264.158C257.808 267.143 257.803 269.872 257.799 272.326C257.787 277.233 257.777 281.044 257.77 283.636C257.764 284.926 257.758 285.911 257.755 286.581C257.751 287.247 257.741 287.59 257.741 287.59C257.741 287.59 257.731 287.254 257.726 286.593C257.723 285.925 257.718 284.942 257.711 283.655C257.705 281.063 257.695 277.251 257.682 272.344C257.678 269.886 257.673 267.154 257.669 264.164C257.659 263.418 257.687 262.648 257.638 261.877C257.619 261.49 257.601 261.099 257.583 260.704C257.532 260.314 257.481 259.919 257.429 259.521C257.185 257.94 256.788 256.312 256.112 254.774C255.451 253.235 254.616 251.714 253.513 250.403C252.422 249.084 251.128 247.921 249.661 247.024C248.198 246.119 246.554 245.495 244.822 245.261C243.096 245.036 241.285 245.144 239.444 245.12C224.696 245.131 207.137 245.145 187.638 245.159C182.763 245.161 177.767 245.163 172.663 245.166C172.025 245.169 171.383 245.15 170.751 245.205C170.435 245.23 170.116 245.23 169.8 245.277L168.855 245.449C168.537 245.491 168.228 245.589 167.919 245.687C167.61 245.786 167.297 245.868 166.991 245.981C166.394 246.259 165.772 246.469 165.203 246.834C164.022 247.457 162.95 248.351 161.948 249.332C160.951 250.332 160.097 251.524 159.334 252.795C157.889 255.4 156.962 258.476 156.864 261.663C156.816 262.453 156.828 263.261 156.827 264.068C156.827 264.875 156.827 265.683 156.827 266.493C156.827 268.112 156.827 269.739 156.828 271.37C156.828 277.897 156.829 284.519 156.829 291.222C156.829 295.423 156.829 299.593 156.829 303.728C156.829 305.801 156.789 307.851 157.154 309.839C157.499 311.828 158.172 313.717 159.066 315.416C160.864 318.808 163.627 321.444 166.779 322.658C169.93 323.977 173.305 323.461 176.555 323.568C189.611 323.573 202.032 323.579 213.603 323.584C219.388 323.588 224.96 323.591 230.293 323.596C232.959 323.598 235.566 323.6 238.109 323.602C239.381 323.603 240.637 323.604 241.876 323.605C242.496 323.607 243.113 323.616 243.717 323.565C244.019 323.54 244.323 323.543 244.621 323.498C244.92 323.444 245.216 323.39 245.512 323.337C247.882 322.889 250.052 321.673 251.85 320.054C253.658 318.436 255.086 316.369 256.036 314.114C256.998 311.866 257.51 309.453 257.611 307.113C257.686 305.945 257.636 304.778 257.653 303.647C257.654 302.513 257.655 301.401 257.656 300.314V300.185L257.761 300.215C260.498 300.995 263.27 300.284 265.24 298.656C267.24 297.049 268.509 294.736 269.063 292.515L269.141 292.602C267.121 293.487 265.143 293.33 263.576 292.841C261.997 292.324 260.784 291.467 259.918 290.642C259.048 289.81 258.529 288.999 258.19 288.46C257.883 287.887 257.741 287.59 257.741 287.59Z" fill="#263238"/>
<path d="M240.899 272.325H173.52V281.995H240.899V272.325Z" fill="#E0E0E0"/>
<path d="M225.914 288.74H173.52V298.409H225.914V288.74Z" fill="#E0E0E0"/>
<path d="M164.057 164.199C164.057 164.199 161.809 153.416 160.177 149.999C158.544 146.581 154.775 141.751 153.728 142.615C152.68 143.48 153.986 144.946 154.575 146.248L156.172 148.579L156.685 150.55C156.685 150.55 154.612 150.815 154.714 152.967C154.714 152.967 153.394 152.856 153.346 154.86C153.346 154.86 151.987 155.477 152.432 157.568C152.855 159.557 153.62 159.943 154.052 159.6C154.294 159.408 154.535 158.671 154.535 158.671C154.535 158.671 156.29 162.575 157.305 163.317C158.012 163.834 158.596 164.214 158.596 164.214L158.696 167.281C158.696 167.281 159.603 168.908 161.928 166.095C164.252 163.283 164.057 164.199 164.057 164.199Z" fill="#FFBF9D"/>
<path d="M161.641 155.892C161.62 155.899 161.529 155.608 161.359 155.084C161.189 154.561 160.944 153.802 160.585 152.899C160.405 152.448 160.195 151.961 159.934 151.47C159.669 150.989 159.348 150.472 159.01 149.96C158.669 149.477 158.26 148.881 157.739 148.85C157.484 148.849 157.199 148.98 157.1 149.236C156.996 149.507 157.017 149.879 157.083 150.234C157.218 150.952 157.477 151.643 157.712 152.299C157.829 152.621 157.989 152.942 158.053 153.322C158.112 153.691 158.114 154.038 158.115 154.373C158.127 155.043 158.045 155.69 158.168 156.211C158.288 156.748 158.567 157.183 158.858 157.52C159.454 158.198 160.088 158.541 160.506 158.778C160.933 159.007 161.181 159.107 161.175 159.132C161.17 159.155 160.909 159.101 160.461 158.909C160.021 158.706 159.362 158.399 158.71 157.708C158.392 157.363 158.073 156.9 157.924 156.293C157.773 155.669 157.856 155.029 157.833 154.376C157.829 154.048 157.822 153.709 157.767 153.394C157.715 153.087 157.566 152.785 157.439 152.447C157.195 151.777 156.932 151.092 156.783 150.309C156.717 149.923 156.67 149.496 156.827 149.076C156.915 148.872 157.066 148.707 157.235 148.618C157.396 148.542 157.566 148.482 157.746 148.493C158.105 148.508 158.408 148.736 158.633 148.975C158.864 149.218 159.053 149.485 159.229 149.75C159.574 150.288 159.877 150.794 160.148 151.309C160.409 151.824 160.611 152.327 160.78 152.79C161.119 153.719 161.334 154.495 161.471 155.036C161.607 155.579 161.661 155.886 161.641 155.892Z" fill="#FF9A6C"/>
<path d="M154.874 153.111C154.903 153.08 155.279 153.536 155.681 154.436C155.875 154.888 156.101 155.439 156.182 156.141C156.223 156.816 156.193 157.639 155.746 158.318C155.519 158.639 155.235 158.903 154.846 158.936C154.636 158.944 154.449 158.785 154.352 158.626C154.247 158.466 154.185 158.297 154.127 158.147C153.895 157.536 153.728 156.965 153.612 156.478C153.38 155.503 153.337 154.876 153.374 154.869C153.42 154.858 153.538 155.463 153.817 156.4C153.958 156.868 154.142 157.417 154.382 158.006C154.494 158.297 154.644 158.598 154.843 158.581C155.064 158.565 155.337 158.354 155.509 158.09C155.878 157.546 155.928 156.792 155.903 156.173C155.847 155.555 155.652 154.997 155.487 154.548C155.146 153.644 154.838 153.144 154.874 153.111Z" fill="#FF9A6C"/>
<path d="M157.913 155.809C157.951 155.819 157.947 156.046 157.81 156.354C157.742 156.507 157.646 156.68 157.503 156.846C157.43 156.929 157.352 157.013 157.226 157.075C157.17 157.106 157.057 157.126 156.974 157.086C157.001 157.09 156.968 157.088 156.902 157.107C156.698 157.143 156.593 157.024 156.499 156.934C156.41 156.835 156.355 156.736 156.301 156.642C156.194 156.453 156.12 156.268 156.07 156.107C155.972 155.785 155.97 155.57 156.008 155.558C156.051 155.543 156.126 155.727 156.264 155.995C156.334 156.129 156.42 156.285 156.528 156.445C156.624 156.606 156.786 156.779 156.846 156.749C156.88 156.748 156.953 156.699 157.079 156.746L157.089 156.751L157.092 156.752C157.096 156.743 157.063 156.833 157.077 156.795V156.794L157.079 156.791L157.083 156.781C157.084 156.774 157.086 156.767 157.086 156.76C157.083 156.743 157.087 156.751 157.09 156.748C157.092 156.752 157.109 156.744 157.121 156.741C157.18 156.718 157.254 156.656 157.315 156.596C157.442 156.473 157.547 156.332 157.629 156.213C157.796 155.973 157.87 155.795 157.913 155.809Z" fill="#FF9A6C"/>
<path d="M189.078 302.864L186.041 322.623L179.856 337.425C179.41 338.492 179.816 339.786 180.74 340.242C181.258 340.498 181.842 340.443 182.316 340.088C185.337 337.83 196.412 329.458 196.566 327.997C196.744 326.305 200.931 307.409 200.931 307.409L189.078 302.864Z" fill="#263238"/>
<path d="M180.74 340.243L196.797 326.67L196.652 327.504C196.526 328.224 196.194 328.87 195.707 329.322C194.403 330.532 190.743 333.777 182.367 340.102C181.879 340.47 181.267 340.523 180.74 340.243Z" fill="#E0E0E0"/>
<g opacity="0.6">
<path d="M194.454 321.643C193.981 321.882 193.716 322.594 193.897 323.167C194.139 323.931 195.137 324.257 195.574 323.409C195.962 322.658 195.571 321.601 194.832 321.55C194.662 321.538 194.497 321.582 194.364 321.696" fill="white"/>
</g>
<path d="M186.6 331.603C186.505 331.658 186.126 330.606 185.124 330.038C184.136 329.435 183.204 329.716 183.183 329.592C183.168 329.543 183.382 329.387 183.776 329.321C184.167 329.254 184.738 329.32 185.288 329.642C185.836 329.966 186.228 330.465 186.42 330.876C186.616 331.29 186.642 331.587 186.6 331.603Z" fill="white"/>
<path d="M184.832 334.301C184.739 334.366 184.32 333.597 183.516 333.095C182.722 332.571 181.952 332.579 181.947 332.45C181.917 332.338 182.783 332.116 183.692 332.707C184.605 333.285 184.928 334.269 184.832 334.301Z" fill="white"/>
<path d="M189.064 328.944C188.984 329.037 188.172 328.008 186.86 327.374C185.557 326.714 184.372 326.755 184.371 326.621C184.345 326.514 185.602 326.264 187.002 326.967C188.407 327.652 189.146 328.889 189.064 328.944Z" fill="white"/>
<path d="M189.951 325.25C189.886 325.357 189.053 324.678 187.875 324.335C186.7 323.972 185.696 324.099 185.682 323.968C185.653 323.861 186.702 323.52 187.965 323.907C189.231 324.28 190.019 325.172 189.951 325.25Z" fill="white"/>
<path d="M195.217 306.886L200.327 320.947C200.327 320.947 190.044 331.856 190.776 334.565L214.021 323.742L206.814 301.444L195.217 306.886Z" fill="#263238"/>
<path d="M214.021 323.742L213.323 321.583L191.234 332.732C191.234 332.732 190.375 333.751 190.777 334.565L214.021 323.742Z" fill="#E0E0E0"/>
<path d="M199.905 320.982C199.953 321.115 200.54 320.912 201.242 321.087C201.947 321.24 202.427 321.691 202.513 321.59C202.61 321.515 202.175 320.785 201.323 320.591C200.472 320.388 199.839 320.869 199.905 320.982Z" fill="white"/>
<path d="M197.861 323.318C197.878 323.462 198.445 323.462 199.018 323.855C199.601 324.227 199.901 324.8 200.012 324.742C200.125 324.714 199.944 323.885 199.224 323.413C198.507 322.934 197.821 323.188 197.861 323.318Z" fill="white"/>
<path d="M197.616 327.439C197.729 327.419 197.665 326.67 197.13 326.066C196.599 325.456 195.968 325.413 195.957 325.549C195.93 325.69 196.404 325.926 196.837 326.431C197.28 326.923 197.499 327.478 197.616 327.439Z" fill="white"/>
<path d="M231.798 242.981C231.798 242.981 230.633 251.901 225.089 253.613C219.545 255.326 208.919 262.967 208.919 262.967C208.919 262.967 208.044 281.032 205.842 290.1C203.64 299.168 198.692 318.904 198.692 318.904L185.935 315.518C185.935 315.518 192.781 262.731 194.008 252.84C195.235 242.949 206.968 234.086 206.968 234.086L210.228 217.739L225.194 217.188C225.194 217.188 232.922 234.689 231.798 242.981Z" fill="#263238"/>
<path d="M194.631 215.958C194.732 216.667 189.631 225.154 188.863 227.952C188.863 227.952 175.014 239.235 177.813 259.943C181.273 285.539 196.572 315.312 196.686 314.278L209.881 307.72C209.881 307.72 199.926 263.495 200.252 263C200.578 262.505 207.206 234.952 207.206 234.952L210.229 217.738L194.631 215.958Z" fill="#263238"/>
<path d="M216.795 229.314C216.795 229.314 216.651 229.357 216.37 229.421C216.087 229.478 215.674 229.61 215.138 229.8C214.067 230.187 212.521 230.896 210.594 231.98C209.63 232.521 208.57 233.154 207.427 233.887C206.847 234.224 206.317 234.729 205.737 235.204C205.166 235.694 204.582 236.219 203.989 236.78C202.801 237.899 201.572 239.161 200.354 240.605C199.144 242.052 197.898 243.642 196.82 245.515C195.744 247.376 194.767 249.497 194.304 251.903C194.248 252.203 194.191 252.505 194.133 252.809C194.093 253.119 194.052 253.431 194.011 253.745C193.931 254.373 193.85 255.007 193.768 255.647C193.605 256.927 193.438 258.231 193.269 259.558C192.59 264.867 191.863 270.545 191.099 276.526C189.562 288.49 187.869 301.668 186.086 315.546L185.969 315.34C186.939 315.598 187.986 315.876 189.037 316.155C192.319 317.027 195.559 317.887 198.726 318.728L198.548 318.852C201.16 308.282 203.703 298.231 205.953 288.948C206.94 284.272 207.436 279.666 207.877 275.314C208.292 270.955 208.598 266.821 208.805 262.96L208.809 262.887L208.86 262.851C212.817 260.069 216.486 257.726 219.811 255.907C221.475 255.006 223.054 254.23 224.564 253.703C224.945 253.576 225.306 253.435 225.654 253.291C226.014 253.174 226.331 252.962 226.645 252.77C227.271 252.378 227.805 251.875 228.268 251.353C229.192 250.297 229.812 249.135 230.275 248.1C230.736 247.059 231.042 246.125 231.253 245.358C231.469 244.593 231.599 243.996 231.679 243.593C231.762 243.19 231.799 242.982 231.799 242.982C231.799 242.982 231.726 243.836 231.316 245.383C231.114 246.156 230.816 247.098 230.361 248.154C229.903 249.202 229.287 250.382 228.357 251.463C227.89 251.996 227.35 252.513 226.713 252.918C226.393 253.117 226.071 253.336 225.704 253.458C225.346 253.609 224.98 253.755 224.607 253.881C223.113 254.415 221.543 255.197 219.887 256.105C216.579 257.937 212.919 260.294 208.979 263.085L209.034 262.976C208.837 266.846 208.54 270.983 208.133 275.351C207.699 279.711 207.21 284.321 206.223 289.033C203.981 298.338 201.448 308.381 198.839 318.957L198.799 319.118L198.661 319.081C195.494 318.241 192.254 317.381 188.972 316.51C187.921 316.231 186.875 315.953 185.904 315.696L185.764 315.659L185.786 315.49C187.578 301.615 189.28 288.439 190.824 276.477C191.6 270.498 192.336 264.823 193.024 259.515C193.196 258.189 193.365 256.885 193.532 255.606C193.615 254.965 193.697 254.332 193.779 253.704C193.82 253.391 193.862 253.078 193.904 252.767C193.962 252.458 194.021 252.149 194.08 251.842C194.559 249.386 195.557 247.244 196.648 245.369C197.743 243.483 199.001 241.891 200.223 240.443C201.451 238.999 202.69 237.738 203.888 236.623C204.485 236.064 205.073 235.542 205.649 235.054C206.231 234.582 206.77 234.076 207.362 233.736C208.512 233.012 209.577 232.387 210.547 231.854C212.485 230.787 214.043 230.098 215.123 229.731C216.202 229.363 216.795 229.314 216.795 229.314Z" fill="#455A64"/>
<path d="M198.667 231.133C198.705 231.048 200.187 231.905 201.875 233.244C203.566 234.58 204.804 235.874 204.752 235.948C204.697 236.03 203.384 234.871 201.706 233.547C200.032 232.218 198.625 231.225 198.667 231.133Z" fill="#455A64"/>
<path d="M209.263 256.311C209.34 256.299 209.539 257.961 209.336 260.002C209.141 262.045 208.627 263.607 208.555 263.575C208.468 263.543 208.843 261.961 209.033 259.96C209.233 257.961 209.173 256.318 209.263 256.311Z" fill="#455A64"/>
<path d="M222.299 152.325C223.482 148.005 224.664 143.686 225.846 139.366L228.465 133.467C230.368 132.174 234.327 134.976 235.662 137.047C236.996 139.117 237.256 141.933 236.933 144.515C236.718 146.225 236.287 148.058 236.922 149.612C237.651 151.396 239.579 152.221 240.139 154.089C240.504 155.31 240.166 156.706 239.522 157.75C238.878 158.794 237.964 159.552 237.055 160.263C236.235 160.904 235.388 161.535 234.439 161.827C233.489 162.12 232.41 162.027 231.63 161.32C231.595 163.03 230.284 164.498 228.853 164.639C227.421 164.781 226.007 163.735 225.307 162.242C224.607 160.748 224.569 158.892 225.016 157.266C224.623 158.138 223.539 158.316 222.838 157.783C222.138 157.25 221.805 156.209 221.793 155.219C221.781 154.229 222.042 153.267 222.299 152.325Z" fill="#263238"/>
<path d="M228.02 133.564C226.275 128.4 223.103 124.621 218.667 122.872C216.164 121.886 214.959 122.121 212.994 122.029C211.029 121.936 209.091 122.486 207.53 123.911C205.677 125.604 203.96 127.633 203.025 130.181C202.065 132.799 201.098 135.436 200.556 138.219C200.014 141.003 199.916 143.973 200.681 146.681L206.175 150.047C209.349 151.372 212.569 152.708 215.924 153.001C219.279 153.293 222.842 152.421 225.372 149.781C228.887 146.112 229.765 138.727 228.02 133.564Z" fill="#263238"/>
<path d="M213.983 124.569L216.079 125.042L222.862 131.593C223.963 132.076 224.57 133.483 224.259 134.832L215.868 163.616L203.231 164.199L204.918 157.047C204.918 157.047 199.895 154.515 200.484 146.796C200.777 142.957 202.219 136.953 203.533 132.086C204.716 127.704 209.425 122.893 213.983 124.569Z" fill="#FFBF9D"/>
<path d="M210.035 148.494C210.093 148.097 210.003 147.694 209.838 147.378C209.505 146.746 208.854 146.454 208.264 146.672C207.674 146.891 207.18 147.605 207.072 148.4C207.228 148.948 207.566 149.405 208.015 149.624C208.084 149.658 208.156 149.688 208.228 149.713C208.581 149.832 208.974 149.824 209.323 149.616C209.671 149.408 209.964 148.983 210.035 148.494Z" fill="#FF9A6C"/>
<path d="M203.949 138.963C203.827 139.461 204.08 139.994 204.515 140.156C204.948 140.316 205.399 140.045 205.521 139.546C205.643 139.048 205.389 138.514 204.955 138.353C204.521 138.192 204.07 138.465 203.949 138.963Z" fill="#263238"/>
<path d="M204.28 135.041C204.353 135.196 205.071 134.845 205.931 135.107C206.792 135.354 207.311 136.072 207.431 135.974C207.489 135.932 207.435 135.678 207.211 135.357C206.992 135.038 206.579 134.669 206.043 134.509C205.507 134.351 205.006 134.449 204.696 134.612C204.381 134.773 204.243 134.971 204.28 135.041Z" fill="#263238"/>
<path d="M207.641 144.961C207.657 144.903 207.146 144.633 206.308 144.239C206.095 144.146 205.897 144.031 205.898 143.841C205.887 143.637 206.038 143.382 206.21 143.11C206.551 142.54 206.908 141.942 207.283 141.315C208.787 138.752 209.936 136.617 209.849 136.546C209.761 136.475 208.471 138.494 206.966 141.057C206.6 141.691 206.251 142.295 205.918 142.873C205.772 143.145 205.557 143.439 205.586 143.865C205.604 144.078 205.735 144.268 205.866 144.356C205.996 144.45 206.118 144.489 206.225 144.531C207.085 144.85 207.625 145.018 207.641 144.961Z" fill="#263238"/>
<path d="M204.91 157.034C204.91 157.034 209.033 158.621 213.817 156.901C213.817 156.901 210.541 161.592 204.453 159.016L204.91 157.034Z" fill="#FF9A6C"/>
<path d="M210.02 146.432C209.882 146.38 209.644 147.491 208.677 148.039C207.712 148.59 206.744 148.164 206.703 148.318C206.676 148.384 206.879 148.601 207.296 148.741C207.704 148.882 208.339 148.906 208.931 148.571C209.521 148.234 209.868 147.651 209.996 147.205C210.131 146.752 210.086 146.445 210.02 146.432Z" fill="#263238"/>
<path d="M205.494 131.623C205.586 131.916 206.279 131.948 207.032 132.256C207.794 132.536 208.371 132.998 208.588 132.824C208.687 132.737 208.655 132.468 208.442 132.136C208.233 131.806 207.828 131.437 207.307 131.235C206.787 131.033 206.279 131.047 205.949 131.167C205.614 131.287 205.457 131.482 205.494 131.623Z" fill="#263238"/>
<path d="M213.017 141.84C212.91 142.342 212.464 142.648 212.021 142.523C211.579 142.399 211.307 141.892 211.415 141.389C211.523 140.886 211.969 140.58 212.411 140.704C212.854 140.829 213.125 141.337 213.017 141.84Z" fill="#263238"/>
<path d="M215.822 138.911C215.694 139 215.225 138.262 214.373 137.967C213.526 137.657 212.773 137.961 212.711 137.804C212.679 137.734 212.834 137.547 213.164 137.406C213.49 137.265 214.003 137.195 214.532 137.384C215.062 137.573 215.449 137.961 215.648 138.288C215.85 138.62 215.884 138.873 215.822 138.911Z" fill="#263238"/>
<path d="M216.16 135.496C215.936 135.667 215.338 135.199 214.552 134.912C213.773 134.595 213.056 134.556 212.961 134.262C212.922 134.121 213.084 133.927 213.43 133.812C213.772 133.695 214.297 133.686 214.835 133.893C215.373 134.101 215.792 134.474 216.008 134.806C216.229 135.141 216.262 135.41 216.16 135.496Z" fill="#263238"/>
<path d="M219.99 146.701C220.108 146.149 220.922 145.007 221.399 145.061C222.67 145.203 224.851 145.985 224.084 149.692C223.036 154.761 218.98 152.461 219.003 152.314C219.02 152.198 219.58 148.608 219.99 146.701Z" fill="#FFBF9D"/>
<path d="M220.56 150.807C220.582 150.797 220.621 150.891 220.732 150.996C220.84 151.098 221.041 151.206 221.283 151.172C221.773 151.108 222.328 150.369 222.537 149.461C222.644 149.003 222.653 148.54 222.591 148.137C222.538 147.728 222.39 147.41 222.174 147.295C221.961 147.167 221.768 147.281 221.686 147.409C221.6 147.533 221.606 147.643 221.582 147.645C221.567 147.654 221.508 147.533 221.585 147.335C221.624 147.239 221.698 147.134 221.818 147.066C221.941 146.997 222.101 146.99 222.255 147.057C222.577 147.181 222.798 147.627 222.867 148.07C222.952 148.52 222.951 149.044 222.832 149.558C222.593 150.572 221.957 151.398 221.298 151.43C220.979 151.435 220.751 151.254 220.648 151.097C220.542 150.932 220.543 150.812 220.56 150.807Z" fill="#FF9A6C"/>
<path d="M221.565 145.138L220.16 146.054C216.951 139.126 211.431 122.718 211.726 123.684C211.726 123.684 215.267 123.315 218.492 125.274C221.716 127.234 227.643 131.669 226.288 136.416C224.933 141.164 221.565 145.138 221.565 145.138Z" fill="#263238"/>
<path d="M228.999 133.942C228.946 133.966 229.344 134.951 229.611 136.655C229.884 138.344 229.948 140.803 229.26 143.314C228.572 145.826 227.303 147.767 226.245 148.938C225.185 150.126 224.376 150.641 224.407 150.698C224.415 150.715 224.623 150.603 224.978 150.352C225.332 150.103 225.826 149.697 226.382 149.115C227.493 147.97 228.825 146.001 229.533 143.419C230.24 140.838 230.139 138.312 229.81 136.606C229.649 135.746 229.451 135.071 229.289 134.621C229.127 134.17 229.015 133.934 228.999 133.942Z" fill="#455A64"/>
<path d="M239.74 241.855L246.06 243.9C246.06 243.9 251.123 243.428 251.991 244.488C252.86 245.549 255.048 248.625 255.048 248.625C255.048 248.625 256.405 249.063 256.07 249.58C255.735 250.097 254.579 250.238 253.745 249.975C252.911 249.712 247.381 247.579 247.381 247.579C247.381 247.579 246.816 249.506 245.523 249.012C244.23 248.519 241.732 247.269 240.944 247.072C240.156 246.874 234.775 246.151 234.453 245.691C234.132 245.23 233.178 238.605 233.178 238.605L238.323 237.268L239.74 241.855Z" fill="#FFBF9D"/>
<path d="M248.508 245.363C248.544 245.272 250.05 245.945 251.872 246.867C253.695 247.788 255.148 248.611 255.117 248.705C255.088 248.799 253.581 248.126 251.753 247.202C249.925 246.277 248.472 245.455 248.508 245.363Z" fill="#FF9A6C"/>
<path d="M242.2 244.518C242.224 244.426 243.48 244.823 244.924 245.636C245.646 246.042 246.273 246.46 246.714 246.809C247.162 247.164 247.338 247.528 247.302 247.553C247.268 247.584 247.053 247.308 246.601 247.028C246.148 246.747 245.505 246.365 244.793 245.965C243.37 245.163 242.173 244.616 242.2 244.518Z" fill="#FF9A6C"/>
<path d="M199.473 162.707C199.473 162.707 192.784 162.413 189.187 165.288C185.589 168.163 173.069 179.711 173.069 179.711L164.707 161.268L156.708 167.196C156.708 167.196 164.784 193.55 170.781 195.494C178.726 198.07 189.878 185.837 189.878 185.837L199.473 162.707Z" fill="#FF725E"/>
<path d="M194.992 163.103L204.289 161.235L216.133 160.692L223.368 163.505L214.054 179.757L201.052 181.992L194.992 163.103Z" fill="#FFBF9D"/>
<path d="M224.488 187.218C224.488 188.036 224.112 204.395 225.602 209.711C227.092 215.028 233.341 239.709 233.341 239.709L240.289 238.518L235.728 203.777C235.728 203.777 233.764 174.286 232.986 171.134C231.633 165.646 227.669 164.917 227.669 164.917L224.488 187.218Z" fill="#FF725E"/>
<path d="M228.264 165.164C227.783 165 218.852 161.75 218.852 161.75C218.852 161.75 213.624 172.901 206.344 171.646C200.112 170.571 199.714 162.189 199.714 162.189L193.519 163.389C192.921 163.003 187.002 190.557 190.958 197.33C194.214 202.906 194.261 204.226 194.261 204.226C195.121 204.178 190.305 219.922 191.129 221.804C198.446 238.517 228.264 221.378 228.264 221.378L225.342 201.363L228.264 165.164Z" fill="#FF725E"/>
<path d="M227.575 174.348C227.586 174.35 227.576 174.516 227.548 174.832C227.513 175.183 227.468 175.64 227.411 176.208C227.277 177.444 227.09 179.161 226.861 181.263C226.628 183.397 226.351 185.937 226.089 188.764C225.818 191.588 225.567 194.701 225.463 197.974C225.356 201.249 225.464 204.372 225.767 207.186C226.068 210 226.499 212.51 226.912 214.603C227.314 216.699 227.672 218.387 227.916 219.555C228.029 220.111 228.119 220.558 228.189 220.902C228.248 221.211 228.275 221.375 228.264 221.378C228.254 221.381 228.208 221.223 228.129 220.921C228.046 220.581 227.937 220.139 227.801 219.59C227.522 218.433 227.132 216.753 226.702 214.661C226.261 212.572 225.808 210.058 225.489 207.228C225.168 204.399 225.051 201.25 225.159 197.96C225.264 194.672 225.523 191.551 225.811 188.725C226.088 185.896 226.388 183.358 226.648 181.227C226.905 179.096 227.133 177.376 227.294 176.187C227.374 175.622 227.438 175.169 227.488 174.82C227.535 174.509 227.564 174.346 227.575 174.348Z" fill="#263238"/>
<path d="M190.742 177.606C190.762 177.612 190.723 177.968 190.634 178.607C190.538 179.245 190.419 180.172 190.272 181.315C190.144 182.462 189.99 183.827 189.914 185.352C189.823 186.874 189.805 188.556 189.931 190.306C190.057 192.057 190.31 193.71 190.675 195.169C191.059 196.618 191.476 197.902 191.935 198.917C192.822 200.969 193.574 202.102 193.519 202.147C193.502 202.162 193.313 201.883 192.984 201.363C192.817 201.106 192.619 200.785 192.418 200.388C192.212 199.996 191.962 199.559 191.744 199.036C191.255 198.024 190.81 196.731 190.405 195.265C190.02 193.789 189.754 192.111 189.627 190.336C189.499 188.561 189.526 186.861 189.633 185.327C189.725 183.791 189.902 182.421 190.058 181.274C190.234 180.131 190.385 179.209 190.517 178.578C190.642 177.947 190.721 177.601 190.742 177.606Z" fill="#263238"/>
<path d="M218.131 206.221C218.134 206.233 218.013 206.286 217.781 206.376C217.549 206.466 217.206 206.596 216.761 206.75C215.872 207.064 214.58 207.492 212.972 207.973C211.363 208.451 209.439 208.982 207.288 209.489C206.213 209.744 205.081 209.993 203.904 210.23C203.315 210.344 202.716 210.459 202.108 210.576C201.509 210.668 200.869 210.884 200.189 210.668C199.86 210.578 199.499 210.256 199.437 209.796C199.355 209.335 199.576 208.908 199.811 208.648C200.306 208.098 200.898 207.871 201.42 207.539C202.496 206.922 203.547 206.359 204.557 205.847C206.576 204.823 208.432 204.011 210.006 203.388C211.58 202.763 212.871 202.324 213.768 202.042C214.216 201.899 214.566 201.8 214.804 201.735C215.042 201.67 215.168 201.641 215.171 201.654C215.174 201.666 215.052 201.718 214.82 201.805C214.556 201.901 214.218 202.026 213.8 202.179C212.915 202.502 211.636 202.978 210.076 203.631C208.514 204.284 206.673 205.117 204.667 206.155C203.664 206.673 202.62 207.241 201.549 207.86C201.025 208.191 200.432 208.44 200.022 208.908C199.818 209.14 199.682 209.436 199.735 209.727C199.778 210.025 199.993 210.231 200.271 210.319C200.834 210.506 201.453 210.318 202.061 210.22C202.668 210.104 203.266 209.991 203.855 209.88C205.029 209.649 206.159 209.407 207.233 209.161C209.383 208.674 211.308 208.169 212.921 207.725C214.533 207.276 215.832 206.887 216.73 206.614C217.154 206.488 217.497 206.386 217.764 206.307C218.002 206.239 218.128 206.209 218.131 206.221Z" fill="#263238"/>
</svg>
