<svg width="48" height="48" viewBox="0 0 48 48" fill="none" xmlns="http://www.w3.org/2000/svg">
<path d="M8.74707 19.452C14.5401 14.55 27.3701 12.59 36.5481 13.66L8.74707 19.452Z" fill="#D9D9D9"/>
<path d="M8.74707 19.452C14.5401 14.55 27.3701 12.59 36.5481 13.66" stroke="white" stroke-linecap="round" stroke-linejoin="round"/>
<path d="M28.9739 13.432C25.9439 13.432 15.9789 16.713 10.4099 22.862L28.9739 13.432Z" fill="#D9D9D9"/>
<path d="M28.9739 13.432C25.9439 13.432 15.9789 16.713 10.4099 22.862" stroke="white" stroke-linecap="round" stroke-linejoin="round"/>
<path d="M33.0281 13.403C33.0281 6.93299 28.5731 4.48199 24.8751 4.48199C21.1771 4.48199 15.6981 8.269 15.6981 12.1C18.4151 8.97 20.3751 8.001 22.6481 8.001C24.1201 8.0328 25.5284 8.60744 26.6025 9.61452C27.6766 10.6216 28.3406 11.9901 28.4671 13.457M27.6641 40.632C20.5241 38.066 12.4101 27.934 8.74707 19.452L27.6641 40.632Z" fill="#D9D9D9"/>
<path d="M33.0281 13.403C33.0281 6.93299 28.5731 4.48199 24.8751 4.48199C21.1771 4.48199 15.6981 8.269 15.6981 12.1C18.4151 8.97 20.3751 8.001 22.6481 8.001C24.1201 8.0328 25.5284 8.60744 26.6025 9.61452C27.6766 10.6216 28.3406 11.9901 28.4671 13.457M27.6641 40.632C20.5241 38.066 12.4101 27.934 8.74707 19.452" stroke="white" stroke-linecap="round" stroke-linejoin="round"/>
<path d="M12.3369 26.125C13.8519 28.748 21.6769 35.738 29.7849 37.487L12.3369 26.125Z" fill="#D9D9D9"/>
<path d="M12.3369 26.125C13.8519 28.748 21.6769 35.738 29.7849 37.487" stroke="white" stroke-linecap="round" stroke-linejoin="round"/>
<path d="M10.2849 22.628C4.68091 25.864 4.78691 30.947 6.63491 34.149C8.48291 37.351 14.5039 40.204 17.8219 38.289C13.7519 37.5 11.9329 36.287 10.7969 34.319C10.0883 33.0282 9.88177 31.521 10.217 30.0872C10.5522 28.6533 11.4055 27.3939 12.6129 26.551M36.5479 13.66C37.8959 21.126 33.1779 33.219 27.6639 40.632L36.5479 13.66Z" fill="#D9D9D9"/>
<path d="M10.2849 22.628C4.68091 25.864 4.78691 30.947 6.63491 34.149C8.48291 37.351 14.5039 40.204 17.8219 38.289C13.7519 37.5 11.9329 36.287 10.7969 34.319C10.0883 33.0282 9.88177 31.521 10.217 30.0872C10.5522 28.6533 11.4055 27.3939 12.6129 26.551M36.5479 13.66C37.8959 21.126 33.1779 33.219 27.6639 40.632" stroke="white" stroke-linecap="round" stroke-linejoin="round"/>
<path d="M31.6479 34.186C33.1569 31.572 35.2619 21.281 32.7629 13.395L31.6479 34.186Z" fill="#D9D9D9"/>
<path d="M31.6479 34.186C33.1569 31.572 35.2619 21.281 32.7629 13.395" stroke="white" stroke-linecap="round" stroke-linejoin="round"/>
<path d="M29.6461 37.712C35.2501 40.947 39.5991 38.314 41.4481 35.112C43.2971 31.91 42.7581 25.27 39.4391 23.354C40.7921 27.274 40.6501 29.454 39.5141 31.423C38.7504 32.682 37.5485 33.6143 36.1392 34.0409C34.7299 34.4674 33.2127 34.3582 31.8791 33.734M19.0391 18.739H30.5341V30.234H19.0391V18.739Z" fill="#D9D9D9"/>
<path d="M29.6461 37.712C35.2501 40.947 39.5991 38.314 41.4481 35.112C43.2971 31.91 42.7581 25.27 39.4391 23.354C40.7921 27.274 40.6501 29.454 39.5141 31.423C38.7504 32.682 37.5485 33.6143 36.1392 34.0409C34.7299 34.4674 33.2127 34.3582 31.8791 33.734M19.0391 18.739H30.5341V30.234H19.0391V18.739Z" stroke="white" stroke-linecap="round" stroke-linejoin="round"/>
</svg>
